<svg width="543" height="112" viewBox="0 0 543 112" fill="none" xmlns="http://www.w3.org/2000/svg">
<path d="M519.861 69.2168C527.341 62.8063 534.918 56.4529 542.692 50.2252C537.171 48.5454 531.625 46.9342 526.067 45.3573C519.983 43.6432 513.874 41.9978 507.753 40.4094C501.632 38.8211 495.499 37.3013 489.341 35.8386C483.184 34.376 477.014 32.9819 470.831 31.6449C464.637 30.308 458.442 29.0396 452.223 27.8283C446.004 26.6171 439.761 25.4744 433.518 24.3888C427.262 23.3032 420.994 22.2863 414.714 21.3378C408.421 20.3894 402.117 19.4867 395.812 18.6639C389.483 17.8412 383.154 17.087 376.8 16.3899C370.434 15.6929 364.069 15.0873 357.691 14.5274C351.288 13.9674 344.885 13.4761 338.471 13.0533C332.031 12.619 325.592 12.2648 319.153 11.9791C312.677 11.682 306.213 11.4535 299.737 11.2935C293.224 11.1335 286.723 11.0307 280.211 11.0078C273.661 10.985 267.124 11.0079 260.574 11.1336C253.988 11.2478 247.402 11.4649 240.828 11.7277C234.205 11.9906 227.582 12.3334 220.971 12.7447C214.312 13.1561 207.652 13.636 200.993 14.196C194.296 14.7559 187.587 15.3729 180.903 16.0814C174.158 16.7899 167.425 17.5555 160.692 18.4125C153.897 19.281 147.128 20.2408 140.345 21.2693C133.514 22.2977 126.696 23.4175 119.877 24.6059C112.997 25.8057 106.129 27.0741 99.2857 28.434C92.369 29.8052 85.4522 31.2336 78.5599 32.7648C71.582 34.3188 64.6285 35.9643 57.6873 37.6784C50.6603 39.4153 43.6579 41.2436 36.6677 43.1519C28.4166 45.403 20.1899 47.7227 12 50.2137C18.4271 55.0702 24.744 60.0066 30.9751 64.9888C35.1619 68.3255 39.3365 71.6736 43.4376 75.0674C39.8017 87.3514 36.4841 99.6353 33.4848 111.919C35.2354 111.382 36.9982 110.891 38.7611 110.377C45.788 108.297 52.8394 106.297 59.9153 104.412C66.8933 102.549 73.8835 100.767 80.8981 99.0869C87.8149 97.43 94.7684 95.8645 101.722 94.3904C108.602 92.9277 115.494 91.5222 122.399 90.231C129.23 88.9512 136.073 87.7742 142.929 86.6772C149.711 85.5802 156.505 84.5746 163.312 83.649C170.057 82.7349 176.802 81.8664 183.572 81.1123C190.268 80.3695 196.977 79.7067 203.686 79.124C210.345 78.5412 217.005 78.0498 223.677 77.627C230.3 77.2042 236.923 76.85 243.546 76.5872C250.12 76.3244 256.706 76.1301 263.292 76.0158C269.829 75.9016 276.367 75.8901 282.904 75.9358C289.404 75.9816 295.905 76.0958 302.405 76.2901C308.869 76.4843 315.333 76.7243 321.797 77.0671C328.224 77.4099 334.651 77.8213 341.078 78.3012C347.468 78.7812 353.859 79.3525 360.237 79.9924C366.59 80.6209 372.944 81.3179 379.285 82.095C385.602 82.8606 391.919 83.6833 398.236 84.5975C404.529 85.5116 410.796 86.4829 417.064 87.5342C423.32 88.5855 429.551 89.7282 435.782 90.9166C442.001 92.105 448.208 93.3734 454.39 94.6989C460.573 96.0244 466.743 97.4185 472.9 98.8812C479.046 100.344 485.191 101.864 491.3 103.475C497.409 105.086 503.505 106.789 509.577 108.526C513.446 109.634 517.314 110.754 521.171 111.919C519.371 103.463 517.376 95.0074 515.294 86.5515L519.812 69.1939L519.861 69.2168Z" fill="#2760B5"/>
<path d="M507.861 58.2168C515.341 51.8063 522.918 45.4529 530.692 39.2252C525.171 37.5454 519.625 35.9342 514.067 34.3573C507.983 32.6432 501.874 30.9978 495.753 29.4094C489.632 27.8211 483.499 26.3013 477.341 24.8386C471.184 23.376 465.014 21.9819 458.831 20.6449C452.637 19.308 446.442 18.0396 440.223 16.8283C434.004 15.6171 427.761 14.4744 421.518 13.3888C415.262 12.3032 408.994 11.2863 402.714 10.3378C396.421 9.38938 390.117 8.48666 383.812 7.66391C377.483 6.84117 371.154 6.08697 364.8 5.38993C358.434 4.69288 352.069 4.08728 345.691 3.52736C339.288 2.96744 332.885 2.47607 326.471 2.05327C320.031 1.61905 313.592 1.26481 307.153 0.979135C300.677 0.682034 294.213 0.453488 287.737 0.29351C281.224 0.133533 274.723 0.0306901 268.211 0.0078362C261.661 -0.0150177 255.124 0.00785434 248.574 0.133551C241.988 0.247821 235.402 0.46492 228.828 0.72774C222.205 0.99056 215.582 1.33335 208.971 1.74472C202.312 2.15609 195.652 2.63605 188.993 3.19597C182.296 3.75589 175.587 4.37294 168.903 5.08141C162.158 5.78988 155.425 6.5555 148.692 7.41252C141.897 8.28097 135.128 9.24083 128.345 10.2693C121.514 11.2977 114.696 12.4175 107.877 13.6059C100.997 14.8057 94.129 16.0741 87.2857 17.434C80.369 18.8052 73.4522 20.2336 66.5599 21.7648C59.582 23.3188 52.6285 24.9643 45.6873 26.6784C38.6603 28.4153 31.6579 30.2436 24.6677 32.1519C16.4166 34.403 8.18992 36.7227 0 39.2137C6.42707 44.0702 12.744 49.0066 18.9751 53.9888C23.1619 57.3255 27.3365 60.6736 31.4376 64.0674C27.8017 76.3514 24.4841 88.6354 21.4848 100.919C23.2354 100.382 24.9982 99.8909 26.7611 99.3767C33.788 97.297 40.8394 95.2973 47.9153 93.4118C54.8933 91.5492 61.8835 89.7666 68.8981 88.0869C75.8149 86.43 82.7684 84.8644 89.7219 83.3904C96.6019 81.9277 103.494 80.5222 110.399 79.231C117.23 77.9512 124.073 76.7742 130.929 75.6772C137.711 74.5802 144.505 73.5746 151.312 72.649C158.057 71.7349 164.802 70.8664 171.572 70.1123C178.268 69.3695 184.977 68.7067 191.686 68.124C198.345 67.5412 205.005 67.0498 211.677 66.627C218.3 66.2042 224.923 65.85 231.546 65.5872C238.12 65.3244 244.706 65.1301 251.292 65.0158C257.829 64.9016 264.367 64.8901 270.904 64.9358C277.404 64.9816 283.905 65.0958 290.405 65.2901C296.869 65.4843 303.333 65.7243 309.797 66.0671C316.224 66.4099 322.651 66.8213 329.078 67.3012C335.468 67.7812 341.859 68.3525 348.237 68.9924C354.59 69.6209 360.944 70.3179 367.285 71.095C373.602 71.8606 379.919 72.6833 386.236 73.5975C392.529 74.5116 398.796 75.4829 405.064 76.5342C411.32 77.5855 417.551 78.7282 423.782 79.9166C430.001 81.105 436.208 82.3734 442.39 83.6989C448.573 85.0244 454.743 86.4185 460.9 87.8812C467.046 89.3438 473.191 90.8636 479.3 92.4748C485.409 94.086 491.505 95.7886 497.577 97.5255C501.446 98.6339 505.314 99.7538 509.171 100.919C507.371 92.4634 505.376 84.0074 503.294 75.5515L507.812 58.1939L507.861 58.2168Z" fill="#5D92E2"/>
</svg>
