<svg width="122" height="192" viewBox="0 0 122 192" fill="none" xmlns="http://www.w3.org/2000/svg">
<mask id="mask0_1_1942" style="mask-type:alpha" maskUnits="userSpaceOnUse" x="0" y="0" width="122" height="192">
<rect width="122" height="192" fill="#D9D9D9"/>
</mask>
<g mask="url(#mask0_1_1942)">
<path d="M111.798 176.825C111.224 169.969 109.324 159.332 109.209 158.918C109.093 158.504 108.574 148.044 105.929 144.439C103.28 140.835 103.747 140.421 99.5714 138.824C95.3958 137.226 89.9812 133.741 89.9812 133.741C89.9812 133.741 92.8579 130.726 93.4366 128.068C94.0111 125.41 95.5072 123.403 95.3357 119.473C95.1643 115.539 94.2854 113.295 95.0142 112.529C95.7387 111.759 96.7205 111.939 98.3881 109.928C100.056 107.917 102.015 103.96 102.015 103.96C102.015 103.96 104.433 98.5826 102.589 91.5501C100.746 84.5176 98.2724 74.2064 98.2724 74.2064C98.2724 74.2064 95.5072 64.3045 94.5298 62.0601C93.5523 59.8157 89.6383 54.8515 87.4476 52.7831C85.2612 50.7147 81.1071 48.1755 78.5777 47.1105C76.0483 46.0455 73.6862 45.3589 70.8653 45.4425C68.0444 45.5262 65.3393 45.755 65.3393 45.755L64.8034 45.7682L57.5969 45.4469L48.4441 48.1094C48.4441 48.1094 44.9072 49.8874 42.3907 52.2286C39.8743 54.5699 38.7725 55.296 36.9634 58.1214C35.1543 60.9467 35.6258 60.8675 33.5037 64.903C31.3816 68.9386 30.91 69.9068 29.2552 73.4583C27.6047 77.0097 27.2875 78.3828 25.4827 82.1763C23.6735 85.9698 23.2277 88.4475 23.5664 92.4963C23.9093 96.5451 22.9662 98.081 25.0111 101.39C27.056 104.7 28.5479 105.994 31.1458 108.454C33.7395 110.914 37.5336 112.912 38.7254 113.391C39.9172 113.871 40.8217 114.307 41.7649 115.759C42.708 117.211 43.8269 118.835 44.9459 119.35C46.0648 119.865 46.0648 120.415 46.0648 120.499C46.0648 120.582 43.8826 125.498 43.8826 125.498C43.8826 125.498 43.4625 124.75 41.8677 125.758C40.273 126.766 39.6299 126.964 37.7522 128.834C37.6107 128.975 37.4693 129.116 37.3321 129.252C37.3321 130.207 37.3535 130.99 36.4747 131.62C34.9742 132.689 33.1608 133.195 31.536 134.031C31.313 134.146 31.0901 134.141 30.8886 134.062C28.9938 135.092 26.3443 136.593 23.8964 138.234C20.4239 140.562 17.736 141.913 16.7842 144.875C15.8325 147.837 15.5796 154.302 15.1337 157.721C14.6879 161.141 13.8476 167.781 13.8476 167.781L11.8884 185.746L11.5798 197.183L10.7481 208.322H10.3151L10.0364 215.368L9.40625 225.032H97.9852L97.6508 221.529C97.9466 221.52 98.1009 221.507 98.1009 221.485C97.938 219.707 96.4333 205.123 96.4333 205.123C96.4333 205.123 98.7354 205.849 101.904 203.842C105.072 201.831 107.717 200.119 108.986 197.932C110.25 195.744 111.288 192.083 111.288 192.083C111.288 192.083 112.381 183.69 111.807 176.834L111.798 176.825Z" fill="white"/>
<path d="M105.732 178.569C105.707 176.285 105.608 174.023 105.552 171.849C105.364 164.543 104.673 157.216 102.83 150.175C101.943 146.777 100.764 143.415 98.8517 140.576C96.1852 136.62 92.2153 135.326 88.6271 132.747C88.5885 132.721 88.5585 132.69 88.5285 132.659C88.3098 133.183 88.0998 133.711 87.8683 134.235C87.4139 135.273 86.8394 136.246 86.2564 137.201C85.4033 138.605 84.5587 140.053 83.6584 141.43C84.0528 143.437 84.4086 145.452 84.773 147.464C80.8675 149.774 76.7863 151.869 72.3878 152.498C72.2463 151.886 72.0791 151.279 71.8733 150.689C72.0148 149.343 71.7876 147.943 71.6804 146.605C71.6547 146.289 71.629 145.972 71.6032 145.655C71.2603 143.503 71.0331 141.329 70.7158 139.172C70.5572 138.983 70.3643 138.834 70.1456 138.737C68.6066 139.208 67.0332 139.428 65.4428 139.56C65.2498 139.591 65.0612 139.617 64.8683 139.643C64.6925 139.657 64.5125 139.665 64.3324 139.674C64.3238 139.687 64.3153 139.696 64.3067 139.709C62.9177 139.855 61.5201 139.877 60.1097 139.771C58.6521 139.661 57.2202 139.401 55.7926 139.058C54.2707 138.693 52.7488 138.037 51.2055 137.852C50.8068 137.804 50.5024 138.046 50.3309 138.385C49.7093 138.372 49.032 138.297 48.3761 138.143C46.0825 139.023 42.3013 137.808 40.8737 135.96C39.7076 134.45 37.4098 131.713 37.0111 129.557C33.1785 131.823 28.1283 134.151 27.1337 135.172C25.7662 136.572 21.6934 139.608 21.1061 142.478C20.5188 145.347 17.6293 157.704 17.3035 162.977C16.9777 168.249 14.7656 190.473 14.7656 194.777C14.7656 199.081 13.801 225.138 13.801 225.138L92.8112 225.05C92.7041 221.684 92.6569 217.551 92.5926 215.325C92.5754 214.7 92.5498 214.075 92.524 213.45C92.4211 212.526 92.3911 211.597 92.3911 210.668C92.3697 210.246 92.344 209.819 92.3226 209.397C92.2625 208.336 92.2111 207.275 92.2068 206.21C92.2068 205.48 92.2968 204.736 92.2968 203.997C92.2797 203.847 92.2625 203.698 92.2411 203.544C92.2196 203.398 92.2196 203.235 92.2411 203.064C92.1725 202.302 92.494 201.911 92.8927 201.849C92.897 201.849 92.9013 201.845 92.9056 201.84C97.8357 199.402 101.938 197.924 104.069 191.903C105.531 187.771 105.775 183.141 105.728 178.582L105.732 178.569Z" fill="#F7EF90"/>
<path d="M100.497 95.9199C95.7815 74.6727 92.9992 45.3807 64.8333 48.0124C42.0948 37.8641 25.8641 74.5275 22.8632 92.8614C20.8912 100.62 43.7711 124.345 37.0576 105.584C36.4145 104.004 35.1542 103.19 33.5337 102.988C28.3335 102.812 26.0956 96.14 27.5532 91.5939C26.8887 87.4791 35.57 86.511 38.9353 82.449C44.8772 76.9171 47.9852 50.4989 58.9386 61.9851C61.8281 71.7153 70.3808 75.6805 79.0192 76.3802C82.1487 79.6676 85.424 83.6064 89.6639 85.4988C93.8481 86.1765 92.2705 90.6213 91.5717 93.5787C94.6455 91.5367 97.9422 94.987 97.8822 98.2788C99.2069 103.538 92.429 105.443 94.2682 109.862C98.5724 106.324 100.09 101.082 100.497 95.9155V95.9199Z" fill="#DCE5EC"/>
<path d="M61.1504 172.925C60.4002 172.925 59.6113 173.374 59.5427 174.373C59.4356 174.901 59.5342 175.377 59.83 175.751C60.1472 176.155 60.6703 176.398 61.2276 176.398C61.6906 176.398 62.1064 176.23 62.3894 175.927C62.6723 175.627 62.8137 175.201 62.7966 174.725C62.848 174.241 62.7237 173.814 62.4408 173.484C62.1364 173.137 61.652 172.925 61.1461 172.925H61.1504Z" fill="#284B66"/>
<path d="M61.1808 151.52C60.3791 151.52 59.5174 152.004 59.3931 153.091C59.3802 153.597 59.5388 154.038 59.856 154.372C60.1947 154.724 60.6835 154.931 61.2065 154.931C61.9867 154.931 62.8055 154.456 62.8784 153.399C62.9342 152.885 62.8056 152.431 62.5097 152.092C62.1968 151.732 61.7124 151.525 61.1808 151.525V151.52Z" fill="#284B66"/>
<path d="M69.6823 141.724C69.5623 145.275 69.9138 149.025 70.7541 153.179C69.2451 153.615 68.4948 154.068 68.4005 154.605C68.3276 155.014 68.632 155.428 69.3394 155.864C69.4851 155.903 69.6909 155.925 69.9438 155.925C73.2063 155.925 85.18 152.475 88.3396 149.584C88.8883 150.107 89.75 151.432 90.9718 153.61C90.8861 154.402 91.1604 155.608 91.9578 156.378C92.931 157.95 94.0757 159.807 95.216 161.69L95.5332 162.306C98.4227 167.939 101.406 173.771 103.55 176.847L103.751 177.26C103.85 177.458 103.944 177.657 104.039 177.855C104.377 178.576 104.81 179.351 105.694 179.351C105.856 179.351 106.032 179.324 106.217 179.267L106.298 179.228L106.324 179.175C106.375 179.052 106.422 178.924 106.452 178.801C106.641 178.51 106.744 178.031 106.77 177.331L106.761 177.265C106.705 177.106 106.62 176.895 106.517 176.649C106.122 174.074 104.365 170.43 100.995 165.202C100.961 161.607 100.802 157.835 99.3615 154.759L99.2372 154.495L99.0743 154.733C98.1869 156.031 97.8268 157.642 97.9082 159.934C94.9502 154.79 91.0704 148.677 89.1498 148.307C89.2056 147.696 88.7554 147.176 87.808 146.771L87.7222 146.749L87.6708 146.776C87.3321 146.943 86.9934 147.119 86.6547 147.3C86.5947 146.411 86.3204 145.346 85.8745 144.325C86.3933 143.334 86.9291 142.331 87.4693 141.323C92.4423 132.011 97.5867 122.382 96.2878 112.04C102.753 106.922 105.548 98.4062 103.584 89.8114C102.744 86.7132 102.054 83.4258 101.385 80.2484C99.1515 69.66 96.8451 58.7107 88.6439 51.2117C84.8842 47.5854 77.9606 43.7258 72.5418 43.7258C70.677 43.7258 69.0693 44.1747 67.7746 45.0637L67.4274 45.3013L67.8389 45.3762C76.1086 46.8724 82.3806 49.5746 87.0149 53.6277C92.2236 58.1826 95.4175 64.4538 96.7807 72.7978C97.1966 74.5801 97.6896 76.4197 98.2169 78.3736C101.089 89.0589 104.347 101.17 95.7133 108.889C95.5675 108.313 95.4046 107.74 95.2245 107.186C98.4055 104.708 99.9274 99.5769 99.3573 96.3335C99.1772 93.9526 96.9094 91.4001 93.8227 91.4001C93.4712 91.4001 93.1325 91.4441 92.8195 91.5233C92.8238 91.5013 92.8281 91.4793 92.8367 91.4485C92.8367 91.3209 92.8538 91.1713 92.8753 90.982C92.9567 90.2383 93.0853 89.1117 91.9407 88.9533L91.885 88.9709C90.2902 89.6926 89.9515 91.7918 89.6214 93.8294C89.3942 95.242 89.1541 96.7031 88.4939 97.7153C88.3181 98.1422 87.7823 99.4492 89.0469 100.021H89.0941C91.3534 99.9641 91.8892 97.4689 92.2793 94.6875C92.5666 94.6435 92.8624 94.5775 93.1153 94.5203C93.5998 94.4103 94.0971 94.2959 94.5558 94.2959C95.3832 94.2959 96.3907 94.6391 96.8151 97.3016C97.2309 98.9872 96.2877 100.585 95.3789 102.125C94.9502 102.847 94.47 103.661 94.1785 104.475L94.14 104.383C94.1014 104.29 94.0628 104.202 94.0156 104.105C92.9267 102.64 91.5163 101.901 89.8186 101.901C85.9174 101.901 81.5617 106.006 81.133 109.087C77.6391 109.782 77.4633 113.805 77.3261 117.039C77.3047 117.567 77.2833 118.082 77.2533 118.544C77.1204 118.782 76.9961 119.015 76.8846 119.235C75.8386 119.724 74.7753 120.261 73.5921 120.864C69.6095 122.892 65.4896 124.992 61.2454 124.992C59.7021 124.992 58.2659 124.723 56.8598 124.178C56.191 123.773 55.5094 123.372 54.8234 122.963L54.7034 122.893C47.6341 118.716 40.3204 114.394 38.9699 105.624C38.1854 102.574 35.9862 101.372 33.8555 100.211C30.9618 98.6307 28.2266 97.1344 29.3413 91.1009C30.0701 88.6012 31.0046 88.3107 31.6434 88.3107C32.2307 88.3107 32.8695 88.588 33.5168 88.874L33.7183 88.962L33.7097 89.3977C33.6669 91.695 33.6154 94.5599 35.7375 95H35.8147L35.8575 94.978C37.3923 94.0406 36.9636 91.9458 36.5478 89.9126C36.3034 88.7068 36.0462 87.4614 36.2219 86.5548C37.2423 85.481 38.1768 84.5612 39.0042 83.7427C42.7511 80.046 44.8175 78.0084 46.6481 70.2497C46.8367 69.8052 47.0296 69.3255 47.244 68.7886C48.7702 64.9863 50.6693 60.251 54.7634 60.251C54.922 60.251 55.0849 60.2598 55.2093 60.2642C55.5137 60.383 55.8009 60.4402 56.0538 60.4402C56.7526 60.4402 57.0956 59.9957 57.1213 59.5557C57.1599 58.9439 56.624 58.2486 55.5265 58.1122C48.3757 58.297 46.095 64.3482 43.6857 70.7602C41.4693 76.6485 39.18 82.7349 32.7966 84.1299L32.8052 84.1739L32.7409 84.1563C32.2736 84.4688 32.0549 84.746 32.0549 85.0321C32.0549 85.2697 32.2007 85.4546 32.3593 85.5998C28.994 85.6658 26.7219 88.2535 26.7047 90.6652C25.813 99.6033 28.8396 101.082 32.0464 102.644C33.6797 103.441 35.3688 104.268 36.6207 106.125C36.865 107.749 37.3152 109.351 37.9582 110.878C37.701 110.689 37.4266 110.504 37.148 110.319C28.218 105.188 24.4326 98.1158 25.5729 88.7068C26.5718 80.4596 31.2147 71.4643 35.3217 63.512C36.0719 62.0553 36.8136 60.6251 37.5166 59.2256C44.2773 45.8999 57.2199 45.7414 63.4361 45.6666C65.5497 45.6402 66.7114 45.627 66.8872 45.0989C66.9944 44.7644 66.7028 44.364 65.8754 43.7082L65.8498 43.7435L65.8154 43.6774C63.419 43.0217 61.0654 42.6917 58.819 42.6917C41.6194 42.6917 32.1021 61.4392 25.0628 79.7731C22.0662 85.2697 21.3588 91.2505 23.0222 97.0728C24.8613 103.507 29.5213 109.171 35.7975 112.599C37.3323 113.545 38.6656 114.086 39.4544 114.086C39.523 114.086 39.583 114.082 39.6388 114.073C40.9291 116.093 42.6225 118.012 44.6674 119.777C44.1701 122.312 42.4296 123.214 40.4147 124.257C38.9314 125.027 37.3966 125.823 36.1877 127.364L36.2219 127.39L36.162 127.417C34.8844 131.452 36.1405 134.449 37.418 136.253C39.6259 139.369 43.6814 141.385 47.7584 141.385C48.933 141.385 50.0777 141.218 51.1194 140.874C53.0486 142.353 57.6015 142.881 61.224 142.881C64.6194 142.881 67.7017 142.459 69.6995 141.719L69.6823 141.724ZM38.6313 131.765C38.1082 129.111 39.5616 126.871 42.7254 125.463C46.0136 129.12 50.1891 131.738 55.8523 133.688C55.5222 134 55.205 134.304 54.892 134.616C54.0946 135.391 53.4044 136.064 52.6199 136.667C51.2309 138.005 49.5075 138.709 47.6298 138.709C43.57 138.709 39.3643 135.461 38.6355 131.765H38.6313ZM60.761 127.879C63.6333 127.879 70.2697 126.008 74.6039 123.588C73.9308 124.978 73.3521 126.277 72.8505 127.527C71.753 128.152 70.6341 128.68 69.4809 129.216C65.8154 130.92 62.3472 132.526 61.2454 137.406C59.6206 132.359 56.1396 130.717 52.4527 128.979C50.0391 127.839 47.5398 126.66 45.3234 124.464C46.1165 123.553 46.6995 122.51 46.9395 121.585C50.7121 124.31 55.2479 126.466 60.0579 127.83C60.2551 127.861 60.4909 127.879 60.761 127.879ZM81.3474 114.61C81.2231 117.198 81.0816 120.133 83.3666 120.701H83.3923L83.4095 120.688C84.8371 118.914 84.5027 116.238 84.1726 113.651C83.8682 111.23 83.5509 108.726 84.6613 106.931C84.7641 107.661 84.8756 108.753 85 110.002C85.4244 114.223 86.0074 119.997 87.1178 119.997C87.1692 119.997 87.2249 119.984 87.2892 119.953C89.2613 118.122 88.6611 114.953 88.0223 111.6C87.5679 109.21 87.1006 106.741 87.6537 104.814C88.9526 105.465 89.1369 108.176 89.3341 111.045C89.5742 114.593 89.8229 118.258 92.2751 118.258H92.3308L92.3437 118.245C92.991 117.523 92.3908 113.396 91.8592 109.752C91.542 107.569 91.2376 105.5 91.2547 104.497C97.0808 113.426 93.3254 121.365 89.347 129.767C86.7534 135.246 84.0697 140.914 83.8553 147.234C84.1169 147.687 84.3783 148.07 84.6313 148.373C82.5821 149.474 80.7172 150.437 78.6723 151.119L78.638 151.146C78.1493 151.595 76.3015 151.969 74.3381 152.365C73.7465 152.484 73.1506 152.607 72.5718 152.735C74.1666 151.049 73.4806 147.674 72.8204 144.408C72.5032 142.833 72.1731 141.204 72.1216 139.792V139.757L72.1131 139.743C72.066 138.507 72.2417 137.578 72.6533 136.887C73.455 132.5 75.2212 128.508 76.9318 124.648C78.7623 120.512 80.6572 116.234 81.3131 111.53C81.4546 112.379 81.4031 113.47 81.3474 114.619V114.61ZM64.4264 137.054C64.6065 136.5 64.7951 135.932 65.0137 135.413C65.9269 136.716 67.1787 138.353 68.8078 139.62C66.75 140.1 64.6579 140.386 62.5916 140.474C63.539 139.77 63.9891 138.388 64.4264 137.054ZM66.4756 133.675C68.1519 133.155 70.0296 132.566 71.4314 131.465C70.8613 133.314 70.4368 135.092 70.1453 136.892C69.6995 136.443 69.1679 136.029 68.6534 135.629C67.9032 135.048 67.1316 134.445 66.4756 133.675ZM59.6335 140.465C57.6786 140.368 55.698 140.095 53.7517 139.651C55.2779 138.63 56.4868 137.226 57.3442 135.474C57.61 136.069 57.7943 136.698 57.9744 137.305C58.3345 138.533 58.6732 139.699 59.6378 140.465H59.6335Z" fill="#284B66"/>
<path d="M24.4363 170.144C24.4706 169.123 24.522 168.141 24.5906 166.962C24.7364 164.379 24.8865 161.712 24.6335 159.278C24.8307 157.227 24.8778 155.449 23.4717 154.442L23.2831 154.305L23.2145 154.53C22.3228 157.505 21.7955 160.642 21.6068 164.119C21.1653 169.695 21.5426 175.53 22.7001 180.996C22.8415 182.022 22.9873 183.043 23.1288 184.059C24.2134 191.686 25.3323 199.568 24.3977 207.322C24.7364 209.082 24.3248 211.873 23.8918 214.83C23.5574 217.092 23.2145 219.433 23.2231 221.365C22.983 222.923 22.9444 224.622 24.4749 225.396L24.5349 225.414C24.5906 225.418 24.6421 225.423 24.6978 225.423C26.3697 225.423 26.4083 222.888 26.4255 221.814C26.6484 220.806 26.8199 219.618 26.9528 218.179C26.9613 218.082 26.9699 217.99 26.9785 217.893C27.2829 214.385 27.2958 210.169 27.3 206.446C27.3086 202.89 27.3129 199.819 27.5658 198.093C27.6301 192.597 26.7642 187.144 25.9239 181.872C25.3195 178.07 24.6978 174.144 24.432 170.139L24.4363 170.144Z" fill="#284B66"/>
<path d="M34.0307 130.317C33.6234 130.317 33.2119 130.532 32.8003 130.752C32.646 130.832 32.4959 130.911 32.3587 130.972C24.3291 134.163 15.0477 139.149 14.559 149.482C11.2022 166.861 10.2547 184.861 9.33302 202.306C8.95576 209.461 8.56566 218.109 8.01263 225.34L7.99976 225.498L8.15408 225.52C8.2484 225.533 8.34273 225.542 8.43704 225.542C12.5483 225.542 12.947 210.473 13.4486 192.967C14.1174 169.735 14.9534 140.817 25.4952 137.697L25.4823 137.657L25.5509 137.67C26.4855 136.927 27.8488 136.355 29.2935 135.752C31.9343 134.643 34.6652 133.494 35.0381 131.135V131.065L35.021 131.025C34.7809 130.559 34.4465 130.321 34.0264 130.321L34.0307 130.317Z" fill="#284B66"/>
<path d="M91.842 133.653L91.5634 133.64L91.6834 133.9C92.7594 136.241 95.2717 137.587 97.9296 139.009C101.282 140.804 104.746 142.662 105.402 146.71C106.812 151.969 109.307 162.338 110.165 172.68C111.134 184.373 109.792 192.774 106.169 197.654C103.721 200.951 100.193 202.627 95.6789 202.627C93.7669 202.627 91.6448 202.328 89.3855 201.738C78.7922 197.118 76.3272 186.181 73.9436 175.602C72.8547 170.765 71.8215 166.193 70.0724 162.188C70.3082 161.136 69.738 159.13 69.3179 157.655C69.1764 157.158 69.0564 156.731 69.0092 156.476L68.9878 156.405L68.9535 156.375C68.5462 156.027 68.2118 155.855 67.9289 155.855C67.6888 155.855 67.4873 155.979 67.3544 156.212C66.677 157.387 67.7059 161.616 68.2118 162.545L68.4005 163.588C69.768 171.227 71.1784 179.127 73.5149 186.648C75.4655 198.227 86.0031 204.933 94.9416 205.378C95.0916 206.509 95.1774 208.525 95.2674 210.659C95.5375 217.102 95.8761 225.12 98.1354 225.12C98.5255 225.12 98.9457 224.882 99.3915 224.407L99.4387 224.341V224.288C99.4644 220.442 98.98 215.812 98.5127 211.332C98.2812 209.136 98.0797 207.16 97.9296 205.294C104.626 204.599 109.458 200.524 111.545 193.808C114.336 179.871 114.075 153.404 104.643 140.848C101.269 136.355 96.9607 133.935 91.8463 133.653H91.842Z" fill="#284B66"/>
<path d="M57.7762 111.834C57.6005 112.335 57.8705 112.885 58.5693 113.471L58.6508 113.519L58.7108 113.506C59.5296 113.312 60.4042 113.127 61.2487 113.127C62.1661 113.127 62.9764 113.343 63.7266 113.783C63.9153 113.911 64.1382 113.977 64.3654 113.977C64.7298 113.977 65.0814 113.81 65.3043 113.524C65.5101 113.259 65.583 112.929 65.5101 112.591C65.2657 111.187 63.1822 110.562 61.2273 110.562C59.7269 110.562 58.0763 110.958 57.7719 111.838L57.7762 111.834Z" fill="#284B66"/>
<path d="M51.2214 106.447C50.2354 106.447 49.0994 108.947 48.8936 110.918C48.7307 112.463 49.1337 113.422 50.0211 113.62H50.0468H50.0897C51.4144 113.334 51.4444 112.102 51.4744 110.795C51.5001 109.774 51.5215 108.718 52.1689 108.023L52.2246 107.935L52.2117 107.869C52.0188 106.922 51.6844 106.443 51.2214 106.443V106.447Z" fill="#284B66"/>
<path d="M71.3099 114.175C71.5028 115.53 71.9487 115.816 72.2873 115.816C72.5874 115.816 72.9004 115.596 73.1962 115.174C73.7578 114.377 74.1737 112.907 73.8736 111.944C74.0665 111.024 73.6078 109.646 73.0547 108.933C72.7761 108.573 72.4846 108.383 72.2016 108.383C71.7558 108.383 71.4256 108.828 71.2156 109.734L71.2242 109.787C71.6786 111.534 71.7043 112.78 71.3056 114.126V114.175H71.3099Z" fill="#284B66"/>
<path d="M76.3695 94.8195C76.9997 94.8195 77.5742 94.617 78.0886 94.2122C78.7788 93.3056 78.9503 92.3682 78.573 91.5716C78.1615 90.7091 77.1497 90.1282 76.0565 90.1282C75.2334 90.1282 74.5047 90.4626 73.9945 91.0832C73.5529 91.9105 73.5357 92.7643 73.9516 93.486C74.4189 94.2958 75.3663 94.8195 76.3695 94.8195Z" fill="#284B66"/>
<path d="M52.5467 89.5035C52.1351 88.641 51.1234 88.0601 50.0302 88.0601C49.2071 88.0601 48.4783 88.3945 47.9681 89.015C47.5265 89.8424 47.5094 90.6962 47.9252 91.4179C48.3925 92.2276 49.34 92.7513 50.3431 92.7513C50.9733 92.7513 51.5478 92.5489 52.0623 92.144C52.7525 91.2375 52.924 90.3001 52.5467 89.5035Z" fill="#284B66"/>
<path d="M53.6482 82.8184C53.7382 82.2771 53.331 81.837 52.4393 81.5114L52.3707 81.4938L52.3278 81.507C51.8476 81.6786 51.1746 81.7974 50.4587 81.9251C48.4909 82.2771 46.2616 82.6732 45.9744 84.4115L45.9872 84.4643C46.1973 85.0629 46.8832 85.3753 47.9636 85.3753C50.1585 85.3753 53.4338 84.0815 53.6482 82.8096V82.8184Z" fill="#284B66"/>
<path d="M81.4287 87.2632V87.2192L81.433 87.206C81.4116 85.4809 79.268 84.7327 77.3774 84.0726C76.6915 83.8349 76.0485 83.6105 75.594 83.3597L75.5297 83.3333L75.4869 83.3421C74.2736 83.5797 74.0636 84.1078 74.0979 84.5127C74.2308 85.9561 77.9819 87.9365 80.0054 87.9365C80.6999 87.9365 81.1886 87.7121 81.4287 87.2588V87.2632Z" fill="#284B66"/>
<path d="M59.213 59.8016C58.9258 59.2427 58.63 58.6794 58.3342 58.1117L58.1113 57.6848L58.0256 58.1601C57.3482 61.848 58.7758 66.3237 61.8453 70.1304C65.2749 74.3816 69.935 76.9165 74.3035 76.9165C75.3109 76.9165 76.3055 76.78 77.2572 76.5116C78.9549 79.1917 81.6 82.0699 84.3394 84.2219C86.7058 86.079 90.277 88.297 93.8438 88.297C95.1085 88.297 96.2874 88.011 97.342 87.4477L97.7021 87.254L97.3163 87.1308C83.7649 82.7828 79.0192 77.5634 75.2337 62.8426C75.1566 62.6226 75.1352 62.3101 75.1094 61.9976C75.058 61.2847 74.9937 60.4749 74.2391 60.4749C74.162 60.4749 74.0763 60.4837 73.9862 60.5013L73.9005 60.5366L73.8748 60.5894C72.4386 63.4323 73.8404 67.3402 75.1951 71.125C75.6924 72.5112 76.1597 73.8183 76.4684 75.0241C66.4667 73.7743 63.1057 67.2918 59.213 59.7884V59.8016Z" fill="#284B66"/>
<path d="M61.0687 97.9756C60.6829 97.9756 60.2027 98.2968 59.8383 98.7897C59.4654 99.2958 59.3067 99.8635 59.4225 100.251C59.4096 100.691 59.5725 101.105 59.8941 101.443C60.3271 101.901 61.0387 102.2 61.7118 102.2H61.819C62.3463 102.139 62.955 101.483 63.0279 100.902C63.075 100.519 62.895 100.224 62.5177 100.079C61.9261 99.8503 61.7289 99.4895 61.8061 98.7897C61.686 98.0856 61.2916 97.98 61.0687 97.98V97.9756Z" fill="#284B66"/>
</g>
</svg>
