<svg width="118" height="148" viewBox="0 0 118 148" fill="none" xmlns="http://www.w3.org/2000/svg">
<path d="M114.869 120.36C111.335 104.796 109.951 97.1285 94.1572 91.0358C94.3718 90.3375 94.5818 89.6392 94.7599 88.9315C118.139 79.5582 106.91 50.2853 105.495 31.1169C103.422 9.11299 84.9472 -0.991454 65.2215 1.4128C40.6191 3.3109 37.2173 30.2639 32.4229 49.901C24.4047 67.7853 31.1535 84.6245 48.998 89.2643C44.0209 91.0686 28.9161 96.4395 27.4961 101.604C20.2679 114.675 16.3957 133.956 10.2314 147.079H115.718C115.792 139.674 115.91 127.592 114.865 120.365L114.869 120.36Z" fill="white"/>
<path d="M101.728 94.3399C100.509 93.4401 96.3718 91.1062 94.9654 91.2561C94.7189 91.0077 94.3627 90.8859 94.002 91.0171C92.6184 95.1414 90.719 99.1484 89.5957 103.423C89.9473 105.082 91.2395 106.413 91.8514 107.992C92.9016 109.811 94.1299 121.494 97.2805 117.155C98.1937 111.278 99.5179 105.443 101.34 99.7999C102.025 98.1127 103.29 95.9428 101.728 94.3399Z" fill="#F3C7B2"/>
<path d="M72.5912 135.246C72.372 129.261 71.2899 123.323 71.2168 117.333C55.1349 117.694 52.1668 117.567 44.8884 117.61L46.1121 90.2349C46.1121 90.2349 39.6145 92.8125 38.2127 93.2062C36.8063 93.6046 34.7287 96.0463 34.7287 96.0463C33.2721 107.318 31.3224 135.396 30.5918 147.042H71.9291C71.6688 142.641 72.7236 138.939 72.5866 135.246H72.5912Z" fill="#F3C7B2"/>
<path d="M35.0807 95.09C34.5647 95.0431 34.2313 95.3103 34.0761 95.7977C33.9574 96.1726 33.8615 96.5616 33.7702 96.9459C32.9118 100.555 32.6287 104.248 32.2908 107.927C31.7657 113.649 30.6241 119.292 30.3684 125.052C30.1538 129.828 29.7292 134.589 29.4324 139.36C29.3182 141.235 29.2725 143.845 29.2588 145.72C29.2543 146.69 29.5556 147.651 30.6971 147.651C31.8204 147.651 32.1264 146.742 32.1492 145.739C32.1675 144.942 32.1492 143.414 32.1492 142.289C31.9711 140.724 32.414 138.873 32.5145 136.998C32.7656 132.283 32.9391 127.554 33.3547 122.854C34.1035 114.408 35.0076 105.982 35.8432 97.5458C35.8934 97.0396 35.9208 96.5241 35.8888 96.0133C35.8569 95.5258 35.624 95.1369 35.0807 95.09Z" fill="#284B66"/>
<path d="M117.07 137.218C117.116 133.296 116.988 129.378 116.728 125.46C116.249 118.284 115.276 111.231 112.271 104.641C110.591 100.953 108.135 97.9348 104.664 95.8773C104.089 95.5352 103.331 95.2305 102.82 95.9148C102.317 96.5897 102.897 97.1333 103.372 97.5083C108.5 101.576 110.637 107.392 111.975 113.541C113.326 119.746 113.559 126.106 113.714 132.452C113.815 136.548 113.755 140.644 113.783 144.745C113.792 146.039 113.787 147.566 115.5 147.557C117.134 147.548 117.075 146.081 117.07 144.839C117.07 142.299 117.07 139.759 117.07 137.223V137.218Z" fill="#284B66"/>
<path d="M97.486 118.865C97.486 120.131 97.591 121.321 98.8467 121.513C99.8695 121.668 100.431 120.834 100.559 119.713C101.226 113.893 102.719 108.311 103.879 102.631C104.043 101.829 104.431 100.728 103.545 100.268C102.682 99.8185 102.189 100.817 101.888 101.576C99.7189 107.073 98.3901 112.894 97.4814 118.86L97.486 118.865Z" fill="#284B66"/>
<path d="M32.4002 97.7093C33.6011 97.4797 33.3089 95.5253 32.1126 95.5441C29.0943 95.5956 27.4322 98.4545 26.3683 100.99C24.8935 104.51 23.4779 108.057 22.0807 111.61C19.2862 118.701 16.542 125.815 13.8389 132.944C13.0763 134.959 12.3138 136.979 11.5558 138.994C10.8024 140.995 9.5969 143.615 9.0307 145.677C8.82522 146.427 9.22248 147.247 9.9211 147.533C10.5786 147.805 11.501 147.608 11.8389 146.891C12.6471 145.176 13.5329 142.715 14.1905 140.934C14.8297 139.2 15.469 137.466 16.1128 135.737C17.4004 132.273 18.6972 128.815 19.9986 125.356C22.6058 118.448 25.2496 111.549 27.866 104.646C28.4779 103.033 28.9482 101.463 29.7701 100.001C30.3866 98.9091 31.14 97.9483 32.4002 97.7093Z" fill="#284B66"/>
<path d="M104.285 145.063C104.244 144.871 104.203 144.679 104.162 144.487C104.112 144.257 104.057 144.027 103.993 143.798C103.71 142.012 103.386 140.198 102.797 138.488C100.007 130.455 97.1029 121.827 94.7513 113.175C94.2993 111.521 93.6144 109.899 92.9477 108.329C92.7286 107.814 92.5139 107.303 92.2993 106.787C91.9934 106.042 91.6052 105.658 91.1395 105.639C91.039 105.639 90.9386 105.648 90.829 105.676C90.1898 105.855 90.2035 106.314 90.3039 107.059C90.3222 107.186 90.3359 107.307 90.3496 107.425C90.3861 107.837 90.4774 108.273 90.6464 108.849C91.6053 112.088 92.4865 115.411 93.3358 118.621C94.9477 124.709 96.6144 131.008 98.8974 136.997C99.8335 139.453 100.377 142.059 100.902 144.576L100.975 144.918C101.002 145.058 101.039 145.185 101.08 145.307C101.185 145.799 101.244 146.375 101.505 146.802C101.843 147.355 102.432 147.655 103.066 147.57C103.349 147.533 103.582 147.435 103.806 147.252C104.048 147.06 104.322 146.741 104.368 146.418C104.39 146.249 104.413 146.08 104.436 145.907C104.422 145.733 104.4 145.56 104.363 145.391C104.34 145.279 104.317 145.171 104.295 145.063H104.285Z" fill="#284B66"/>
<path d="M90.2991 104.927C90.4955 104.777 90.6508 104.571 90.7832 104.336C90.7877 104.313 90.7923 104.289 90.8014 104.266C90.9658 103.624 91.1302 102.982 91.3083 102.34C91.6645 101.023 92.0434 99.7152 92.4407 98.4076C93.0526 96.4111 93.7923 94.4474 94.4315 92.4556C95.3356 92.868 96.1484 93.2383 96.9611 93.5945C98.0844 94.0866 99.2031 94.5974 100.363 94.9911C100.984 95.202 101.783 95.3051 102.125 94.513C102.5 93.6413 101.801 93.2851 101.162 93.0368C98.9748 92.1791 96.9931 90.7497 94.7786 89.9623C94.5868 89.7373 94.2899 89.6061 93.9977 89.6249C94.3767 89.1421 94.7603 88.6641 95.153 88.1907C101.112 81.0201 102.249 72.5654 101.491 63.5858C101.422 62.7656 101.157 61.9548 100.906 61.1628C100.568 60.1036 99.9428 59.4428 98.7967 59.11C97.9611 58.8663 97.0342 59.1381 96.3128 58.6413C94.9795 57.7228 93.9841 58.2945 93.016 59.2553C92.7923 59.4803 92.5411 59.9021 92.3265 59.8833C89.8471 59.6912 89.3174 61.5752 88.7238 63.3983C88.5823 63.8248 88.4727 64.2232 87.8654 64.1763C85.8517 64.0263 85.0207 65.5354 84.3358 67.068C83.5458 68.8442 83.1212 70.747 82.8472 72.6873C82.692 73.7839 82.491 74.8197 81.5733 75.6445C76.0893 80.5702 72.8839 86.7098 72.2081 94.2553C72.0757 95.7081 71.9753 97.1563 71.9022 98.6092C64.0439 98.7029 54.7015 97.5641 47.0167 95.1879V90.5153C47.9619 90.9231 48.761 90.8668 49.455 90.2997C52.3774 87.9189 54.8248 85.1819 55.7152 81.3107C55.9435 80.3312 55.9663 79.3939 55.1581 78.6393H54.8248C54.4504 78.9814 54.076 79.3142 53.9207 79.8298C52.8157 83.5182 50.5144 86.3067 47.5784 88.6079C47.2222 88.8844 47.1263 89.3577 46.4368 89.3952C42.7565 89.5874 39.8616 91.9494 36.615 93.3508C36.2178 93.5242 36.0762 93.9178 36.1767 94.3537C36.2954 94.8927 36.7018 95.0333 37.1767 95.0801C37.9346 95.1551 38.5922 94.8224 39.2543 94.5365C41.1629 93.707 43.0624 92.8493 45.0487 91.9682C45.0944 92.3806 45.1537 92.554 45.1263 92.7087C43.7611 100.535 43.7245 108.465 43.414 116.376C43.3775 117.332 43.3044 118.363 44.4871 118.518C45.6377 118.668 45.9985 117.679 46.0989 116.747C46.2359 115.505 46.245 114.249 46.2679 112.993C46.3729 107.608 46.4779 102.218 46.866 97.1235C54.5143 99.8465 63.9936 101.14 71.8063 101.07C71.7789 102.185 71.7697 103.301 71.7926 104.421C71.8017 104.739 71.8017 105.011 71.7287 105.241C71.7561 105.344 71.7652 105.442 71.7789 105.541C71.7698 105.667 71.7652 105.794 71.7561 105.92C71.0848 105.995 70.6784 106.169 70.6008 106.755C70.4912 107.584 71.0985 107.908 71.6236 108.034C72.272 108.189 72.925 108.287 73.6145 108.395C73.9022 108.442 74.1944 108.484 74.4912 108.536C75.2172 108.479 75.9432 108.432 76.6738 108.386C78.313 108.278 80.0071 108.17 81.66 107.95C84.5139 107.57 87.1668 106.75 89.5549 105.508C89.8745 105.344 90.1028 105.161 90.2626 104.95C90.2763 104.941 90.29 104.936 90.3083 104.922L90.2991 104.927ZM90.2489 97.6765C89.8197 98.9326 89.4133 100.193 89.0389 101.468C88.8836 101.988 88.7375 102.513 88.596 103.033C88.4042 103.099 88.2124 103.179 88.0252 103.268C87.9202 102.94 87.8243 102.607 87.7147 102.279C87.5549 101.098 87.4133 100.001 87.217 98.9185C87.1028 98.2811 87.3038 97.8687 87.7102 97.4422C89.5184 95.516 91.1028 93.4023 92.7101 91.3027C91.7329 93.3461 90.9795 95.5488 90.2535 97.6765H90.2489ZM78.3404 105.62C77.3268 105.7 76.2948 105.728 75.2948 105.747C75.0163 105.752 74.7378 105.761 74.4547 105.766C74.3725 104.983 74.2766 104.205 74.1487 103.432C73.998 98.7264 74.3222 94.11 75.4638 89.6577C76.7788 84.5398 79.587 80.1203 83.4865 76.5772C84.2856 75.8508 84.6736 75.0587 84.8654 74.0464C85.2079 72.2467 85.5549 70.447 85.9659 68.6614C86.1988 67.6444 86.5823 66.6743 87.806 65.9385C87.596 67.9537 87.4133 69.73 87.2216 71.5015C87.1211 72.4436 86.975 73.3809 87.1439 74.3276C87.2626 74.9884 87.5504 75.5086 88.2764 75.5133C88.9156 75.5133 89.2581 75.0587 89.3677 74.4729C89.491 73.8214 89.5595 73.1559 89.5823 72.4904C89.6873 69.6456 89.9795 66.8289 90.7101 64.0779C90.8973 63.3702 90.9293 62.5313 91.7056 62.086C92.1804 62.5407 91.8927 63.0562 91.8425 63.5061C91.5183 66.5524 91.185 69.5894 91.4042 72.6638C91.4316 73.0528 91.4361 73.4418 91.4772 73.8308C91.564 74.5947 91.7786 75.3352 92.6918 75.2884C93.5776 75.2462 93.7922 74.5104 93.847 73.7418C93.8836 73.245 93.9019 72.7388 93.8608 72.242C93.5685 68.7224 94.0571 65.2448 94.395 61.758C94.4315 61.383 94.5868 61.0175 94.6963 60.6191C95.9201 60.5863 95.7511 61.3924 95.742 62.1845C95.7009 65.5167 95.4041 68.8489 95.6324 72.1858C95.6553 72.5186 95.6827 72.856 95.7466 73.1794C95.8927 73.8871 96.2032 74.4916 97.0114 74.4166C97.9018 74.337 98.194 73.6387 98.089 72.856C97.6963 69.969 98.1438 67.0727 97.9657 64.1857C97.8972 63.089 97.8653 61.9829 98.3127 60.5722C99.4634 61.8002 99.4862 63.1265 99.4497 64.3169C99.3401 68.1506 99.2123 71.9983 98.8287 75.8086C98.6141 77.9176 97.4041 79.7454 96.3539 81.5685C93.4133 86.6629 89.7512 91.1902 85.9385 95.5863C85.1394 96.5096 84.7148 97.3297 84.9431 98.5998C84.902 98.7217 84.8837 98.8529 84.8837 98.9841C84.8883 99.8465 84.8563 100.723 85.007 101.566C85.1668 102.462 85.3312 103.361 85.4956 104.257C83.4043 104.946 81.0756 105.386 78.3404 105.606V105.62Z" fill="#284B66"/>
<path d="M72.2443 120.262C72.2169 118.931 72.1895 117.6 72.1621 116.273C72.153 115.866 72.1438 115.463 72.1393 115.055C72.1256 114.333 72.1119 113.611 72.0891 112.89C72.0799 112.604 72.0754 112.313 72.0708 112.018C72.0571 111.141 72.0434 110.232 71.8927 109.356C71.806 108.864 71.3859 108.531 70.8517 108.531C70.4042 108.531 69.8973 108.784 69.7878 109.351C69.6325 110.139 69.6051 110.959 69.5777 111.755C69.5685 111.98 69.564 112.201 69.5549 112.421C69.5092 113.457 69.4818 114.516 69.4635 115.458C69.4544 115.819 69.4499 116.184 69.4407 116.559C69.3768 116.559 69.3311 116.559 69.3174 116.559C69.3174 116.55 69.3174 116.545 69.3174 116.536C68.3722 116.536 67.427 116.536 66.4818 116.536C60.3678 116.545 54.2583 116.555 48.1442 116.573C47.4319 116.573 46.5141 116.498 46.4684 117.511C46.4228 118.589 47.336 118.664 48.1397 118.71C48.3634 118.724 48.5826 118.72 48.8063 118.72C54.5094 118.72 62.7056 118.72 69.4087 118.72C69.3996 119.577 69.3951 120.496 69.3905 121.518C69.3722 128.946 69.6279 136.356 69.8882 143.779C69.9065 144.234 69.9201 144.698 70.0799 145.124C70.3676 145.907 71.3722 146.366 72.1256 146.001C72.8699 145.64 72.9931 144.698 72.9931 143.897C72.9931 143.761 72.9932 143.625 72.9841 143.503C72.701 135.756 72.3996 128.013 72.2443 120.262Z" fill="#284B66"/>
<path d="M97.1538 60.277C97.825 60.6003 98.3364 61.308 98.6926 62.072C99.6195 61.8611 100.537 61.5658 101.314 61.0549C103.692 59.5083 104.907 57.3478 104.934 54.6342C104.994 52.7361 104.04 51.1708 102.24 50.2194C101.067 49.6007 100.213 49.3102 99.3821 49.2446C98.099 49.1461 96.857 49.6195 95.3684 50.7818L95.309 50.8286C94.8753 51.1661 94.3821 51.5457 94.8524 52.1034C95.0579 52.3471 95.3364 52.4877 95.6561 52.5112C95.9666 52.5346 96.2999 52.4502 96.6104 52.2628C96.7383 52.1878 96.8479 52.0987 96.9575 52.0144C97.0534 51.9394 97.1446 51.8644 97.2496 51.7988C97.7428 51.4942 98.5556 51.3489 99.4186 51.4145C100.332 51.4848 101.135 51.7754 101.51 52.1784C102.761 53.5141 102.775 56.1949 101.537 57.6899C100.546 58.885 99.1766 59.6911 97.1538 60.2676V60.277Z" fill="#284B66"/>
<path d="M66.4594 82.5058C60.4869 79.9047 54.7381 76.9615 50.0715 72.2467C48.8067 70.9673 47.8433 69.5613 47.067 67.9584C45.8342 65.4183 45.1447 62.7047 44.341 60.0333C43.9849 58.8569 43.3685 58.1821 42.2772 57.943C42.3913 57.8306 42.478 57.6946 42.5191 57.5259C42.5876 57.2635 42.5328 56.9776 42.3685 56.7479C42.195 56.5042 41.9164 56.3402 41.5785 56.284C40.953 56.1809 40.4735 55.8715 39.9667 55.5482C39.7475 55.4076 39.5192 55.2623 39.2772 55.131C37.4188 54.1468 36.0032 51.7238 36.2407 49.9476C36.5192 47.8995 37.9028 46.7232 39.8525 46.8685C40.1676 46.8919 40.5009 46.9528 40.8388 47.0419C41.5694 47.2387 42.058 47.5387 42.4141 48.012C42.6424 48.312 42.994 48.4947 43.3959 48.5275C43.6972 48.551 44.0077 48.49 44.2954 48.3541C44.4917 48.2604 44.6104 48.1292 44.6515 47.9698C44.7018 47.7636 44.6196 47.5199 44.4049 47.2481C43.3045 45.8233 41.6699 44.9329 39.9256 44.797C39.4005 44.7548 38.8754 44.7876 38.3594 44.8907C36.6882 45.2188 35.2909 46.4092 34.5375 47.9136C33.6471 49.6851 33.743 51.6863 34.6928 53.4204C35.8663 55.5669 38.1904 57.3432 40.9118 58.1633C41.0443 58.2055 41.1812 58.2289 41.3137 58.2383C41.4872 58.2523 41.6516 58.2383 41.7977 58.2008C41.9438 59.3537 42.1082 60.5066 42.2635 61.6596C42.2772 61.7064 42.2908 61.7533 42.3045 61.8002C42.542 62.8875 42.9073 63.956 43.268 65.0152C44.1949 67.7475 45.1127 70.5361 47.1127 72.6826C49.4825 75.2321 52.0852 77.5426 55.0532 79.4314C58.5828 81.681 62.4367 83.2651 66.1261 85.1866C66.7106 85.4912 67.359 85.4678 67.9937 85.2522C68.6375 85.0366 69.2813 84.8351 69.9434 84.6757C73.1945 83.8884 76.3725 82.937 79.4181 81.681C80.377 80.3125 81.3861 79.0236 82.2537 77.6036C77.7835 79.9891 72.9433 81.4326 67.9845 82.6042C67.4685 82.7261 66.9754 82.7355 66.464 82.5105L66.4594 82.5058Z" fill="#284B66"/>
<path d="M68.8154 55.276C69.2629 54.7089 69.4318 54.1184 69.272 53.6591C69.1396 53.2748 68.8017 52.9936 68.3679 52.9139C68.3451 52.9139 68.3223 52.9092 68.2994 52.9045C68.2857 52.9045 68.272 52.9045 68.2629 52.9045C67.8291 52.8811 67.5826 53.1436 67.4456 53.2842L66.925 53.8184C66.788 53.959 66.6328 54.1184 66.4866 54.2871C66.3679 54.4183 66.2583 54.5589 66.1579 54.6808L66.1442 54.6948C66.062 54.7979 65.9752 54.9057 65.8656 55.0323C65.651 55.2807 65.4319 55.5338 65.304 55.8946C65.1077 56.4383 65.2218 57.0476 65.61 57.5584C66.0072 58.0786 66.6236 58.3645 67.0711 58.5051C67.3542 58.5941 67.6328 58.6504 67.9022 58.6973L67.9843 58.7113C68.0574 58.7254 68.1259 58.7394 68.1989 58.7488C68.2948 58.7629 68.3816 58.7722 68.4684 58.7816C68.514 58.7816 68.5551 58.791 68.5962 58.791C68.7925 58.8004 68.9661 58.791 69.135 58.7629C70.1076 58.6035 70.0939 58.013 70.062 57.8302V57.8115C70.0026 57.5537 69.7971 57.3803 69.6145 57.2397L69.5871 57.2163C69.4272 57.0944 69.2629 56.9913 69.135 56.9163C69.0254 56.8507 68.9067 56.7992 68.82 56.757C68.7104 56.7054 68.6099 56.6586 68.5277 56.6023C68.3999 56.5133 68.2949 56.4055 68.2309 56.2836C68.1853 56.1993 68.1853 56.1571 68.1853 56.1571C68.1944 56.0915 68.3177 55.9321 68.3862 55.8478C68.5323 55.6697 68.6693 55.4728 68.8017 55.2666L68.8154 55.276Z" fill="#284B66"/>
<path d="M53.2583 48.9919C54.9843 49.5356 56.7606 49.723 58.546 49.2872C59.3131 49.0997 59.7742 48.5467 59.7697 47.7031C59.7697 46.8314 59.2263 46.3486 58.4729 46.1893C57.7788 46.0393 57.0528 46.044 56.3405 45.9784C56.3405 45.9596 56.3405 45.9409 56.3405 45.9221C55.4455 45.9315 54.5506 45.894 53.6647 45.9596C52.8748 46.0159 52.3086 46.447 52.2036 47.3C52.0986 48.1436 52.5141 48.7669 53.2583 49.0013V48.9919Z" fill="#284B66"/>
<path d="M85.7427 48.7949C84.9436 48.6215 84.1308 48.509 83.3226 48.3684C83.2906 48.3637 83.2587 48.359 83.2221 48.3543C82.7016 48.3075 82.1856 48.2419 81.6651 48.2184C80.761 48.1809 79.9528 48.4059 79.7199 49.4229C79.4688 50.5243 80.1126 51.1148 81.0486 51.471C82.4778 52.0146 83.9756 52.0615 85.4596 52.0287C86.3454 52.0099 87.1079 51.5741 87.2084 50.5383C87.3043 49.4885 86.6467 48.9917 85.7427 48.7949Z" fill="#284B66"/>
<path d="M64.4142 68.9196C64.3868 69.2383 64.3594 69.5523 64.332 69.871C64.9804 72.0268 66.9759 73.2454 69.1585 72.772C70.3091 72.5236 71.0625 71.7644 71.4872 70.6536C71.8936 69.5851 71.3456 68.8118 70.7155 68.0854C69.3822 66.5528 67.1585 66.2857 65.4599 67.4058C64.9028 67.7713 64.67 68.3431 64.4188 68.9196H64.4142ZM66.4188 69.6694C66.5375 68.7883 67.2909 68.704 68.0032 68.704C68.1813 68.704 68.373 68.7649 68.5374 68.8446C69.0991 69.1164 69.6608 69.5382 69.5055 70.1897C69.3457 70.8692 68.6607 70.9348 67.8754 70.8224C67.9119 70.827 67.7795 70.8271 67.6699 70.7802C67.1311 70.5505 66.3001 70.5505 66.4188 69.6648V69.6694Z" fill="#284B66"/>
<path d="M46.3091 85.3462C45.7931 85.1634 45.2315 85.0884 44.7064 84.9337C44.1584 84.7744 43.615 84.601 43.0808 84.4088C42.8297 84.3198 42.5831 84.2307 42.332 84.1464C42.0489 83.9214 41.6699 83.748 41.3092 83.584C37.4371 81.8499 34.5832 79.0285 32.8161 75.2136C29.5696 68.207 29.7933 60.9943 32.0262 53.819C32.8664 51.1148 33.8664 48.4528 34.67 45.7345C36.049 41.076 37.5421 36.4784 38.3366 31.6324C39.2179 26.2614 41.1676 21.2186 43.9484 16.4148C49.8615 6.19785 58.9071 2.30793 70.2128 2.42978C70.6055 2.42978 71.0576 2.51414 71.4183 2.42978C71.5142 2.43447 71.6146 2.43915 71.7105 2.44384C72.0393 2.46258 72.3635 2.48602 72.6923 2.50477C73.0165 2.52351 73.3497 2.48134 73.6739 2.46259C74.1169 2.43447 74.4822 2.13921 74.5415 1.67523C74.5963 1.24406 74.3406 0.784766 73.9068 0.676972C73.5278 0.583239 73.1534 0.48481 72.7653 0.433257C72.4365 0.391077 72.1124 0.348898 71.7836 0.302031C71.6329 0.283284 71.4823 0.259849 71.3316 0.241102C71.6832 0.292655 71.2082 0.222361 71.1717 0.217675C71.0484 0.198928 70.9252 0.184865 70.8019 0.170805C70.4731 0.133312 70.1489 0.0770747 69.8201 0.100508C69.8064 0.100508 69.7973 0.100508 69.7882 0.100508C68.496 -0.0682118 67.1946 -0.00260481 65.8933 0.137995C57.213 1.08939 49.6743 4.11229 44.2498 11.4047C39.6197 17.6286 36.6974 24.5602 35.4874 32.162C34.4691 38.5733 32.1267 44.5629 30.1724 50.6649C28.9989 54.3392 27.9167 57.962 27.8299 62.3065C27.2957 66.6136 28.0719 71.2018 29.9806 75.612C32.0262 80.3361 35.3595 83.8324 40.0444 85.9836C40.3822 86.1382 40.7521 86.2929 41.1128 86.3585C41.5101 86.5835 41.9119 86.7897 42.3366 86.9678C42.8799 87.1974 43.4324 87.4083 43.9986 87.577C44.6333 87.7692 45.2954 87.9707 45.9575 88.0223C46.615 88.0738 47.1812 87.4645 47.2588 86.8412C47.3501 86.1476 46.9392 85.5711 46.3091 85.3462Z" fill="#284B66"/>
<path d="M110.669 59.0068C110.007 56.1714 109.491 53.3172 109.176 50.4349C108.806 47.0324 107.669 43.7423 107.678 40.2883C107.701 32.7849 106.472 25.5768 103.422 18.6078C98.8332 8.10967 90.5046 2.87468 79.7422 0.751624C79.0116 0.606337 78.2354 0.60165 77.4911 0.648517C76.7286 0.695383 75.8656 0.88753 75.8701 1.85767C75.8701 2.80906 76.724 2.81375 77.4226 2.84656C81.0892 3.01528 84.4408 4.3416 87.7467 5.76634C93.2991 8.15654 97.3173 12.1543 100.075 17.5486C103.262 23.7772 104.934 30.3947 104.934 37.3169C104.934 43.822 106.267 50.1303 107.399 56.4432C108.299 61.4439 108.71 66.3227 107.733 71.2812C106.322 78.4236 103.007 84.0148 96.3447 86.8081C96.3447 86.8268 96.3356 86.8409 96.331 86.8549C96.1347 86.9018 95.9338 86.9487 95.7374 87.0002C95.3584 87.094 94.9794 87.1924 94.6005 87.2908C94.1119 87.4173 93.6644 87.497 93.2032 87.7173C92.8927 87.8672 92.6233 88.2844 92.5366 88.6077C92.4407 88.9639 92.4817 89.442 92.6826 89.7607C93.0708 90.3793 93.742 90.6183 94.3904 90.4168C94.3904 90.4168 94.3859 90.4168 94.3813 90.4168C94.3813 90.4168 94.3859 90.4168 94.3904 90.4168C94.4087 90.4121 94.4224 90.4027 94.4407 90.3981C94.7009 90.2996 94.952 90.1965 95.2077 90.0887C95.2077 90.0887 95.2123 90.0887 95.2169 90.0887C95.194 90.0981 95.1712 90.1075 95.1484 90.1215C95.1895 90.1075 95.2306 90.0887 95.2717 90.0747C97.7876 89.2639 100.244 88.3406 102.299 86.5409C107.851 81.6808 110.454 75.4476 110.906 68.3098C111.276 65.1276 111.376 62.0391 110.673 59.0162L110.669 59.0068Z" fill="#284B66"/>
<path d="M52.6424 24.8832L52.5328 24.8176L52.4096 24.8598C51.5785 25.1598 51.4461 25.7737 51.3411 26.2705C51.3228 26.3595 51.3 26.4533 51.2772 26.5376C50.2543 30.3807 49.0078 33.7035 47.4644 36.6889C46.5055 38.5402 45.2087 40.5882 42.8207 41.7271C42.5513 41.8536 41.9942 42.1208 41.8161 42.6223C41.7248 42.88 41.7522 43.1565 41.8983 43.4471C42.1129 43.8876 42.4508 44.1314 42.9029 44.1642C43.2864 44.1923 43.6882 44.0657 44.0307 43.9439C45.4005 43.4565 46.5649 42.5801 47.5968 41.2584C50.6333 37.3591 52.5329 32.6772 53.4004 26.936C53.4872 26.3549 53.6241 25.4738 52.6424 24.8786V24.8832Z" fill="#284B66"/>
<path d="M60.9348 38.241C61.3366 38.1707 61.6288 37.9973 61.8069 37.7302C62.0398 37.3787 62.049 36.8819 61.8481 36.2117C60.0673 30.33 60.8344 24.3498 61.5102 19.0679C61.5239 18.9695 61.5421 18.8664 61.5604 18.7633C61.6654 18.2243 61.7887 17.5494 61.0353 16.9542L60.9257 16.8699L60.7932 16.9074C59.8663 17.1605 59.67 17.8728 59.5238 18.393L59.4965 18.4915C59.1494 19.7287 58.8938 20.8254 58.7157 21.833C57.9988 25.9198 57.4006 31.3095 59.1632 36.7507C59.3367 37.2897 59.6289 38.1942 60.5284 38.2645C60.6517 38.2738 60.7887 38.2645 60.9303 38.241H60.9348Z" fill="#284B66"/>
<path d="M82.0483 22.5869C82.0072 23.8288 81.9661 25.113 81.8885 26.369C81.6237 30.8213 80.8383 34.2941 79.4137 37.303C79.1945 37.7669 78.8931 38.4043 79.0986 38.9527C79.2081 39.2432 79.4502 39.4776 79.82 39.6369C80.0027 39.7166 80.1808 39.7635 80.3497 39.7775C81.1853 39.8431 81.5826 39.0698 81.8748 38.5027L81.9159 38.4231C82.0026 38.259 82.0757 38.0903 82.1488 37.9216L82.1944 37.8138C84.3314 33.0053 84.9524 27.6578 84.2035 20.4685L84.1898 20.3419C84.135 19.7608 84.0574 18.9641 83.0757 18.6126L82.9616 18.5751L82.8565 18.6266C82.094 19.0203 82.1031 19.6858 82.1123 20.2482C82.1123 20.3466 82.1123 20.4404 82.1123 20.5388C82.0849 21.2184 82.062 21.8979 82.0392 22.5869H82.0483Z" fill="#284B66"/>
<path d="M96.7197 47.9981C96.8019 48.0262 96.884 48.059 97.0073 48.1059C97.2904 48.2184 97.5826 48.3355 97.884 48.359C98.3269 48.3918 98.674 48.1996 98.8931 47.7966C99.0393 47.5294 99.0758 47.2764 99.0073 47.042C98.8703 46.5734 98.3498 46.2922 97.9662 46.0859L97.7927 45.9875C95.4914 44.6846 93.7745 42.6787 92.5416 39.8574C91.5599 37.6125 90.7745 35.2785 90.1992 32.9118C90.1809 32.8274 90.1627 32.743 90.1444 32.6305C90.0668 32.1478 89.9572 31.487 89.0074 31.2246L88.8613 31.1824L88.7517 31.2808C87.8796 32.0635 88.0029 33.0805 88.0942 33.821C88.5874 37.8374 89.8156 41.2259 91.8476 44.1879C93.1124 46.0344 94.7517 47.3139 96.7197 47.9934V47.9981Z" fill="#284B66"/>
<path d="M71.852 36.6608L72.0757 33.6613C72.3634 29.8604 72.6603 25.933 72.8657 22.0618L72.884 21.7759C72.9525 20.534 73.0256 19.2498 72.4137 17.9235L72.3086 17.6938L72.0667 17.7923C71.0347 18.2187 70.9525 18.8983 70.8886 19.3951C70.8794 19.4795 70.8703 19.5638 70.8566 19.6435C70.1763 23.4678 69.9434 27.3859 69.7197 31.1867C69.6146 32.9255 69.5096 34.7252 69.3635 36.4874L69.3498 36.6233C69.3041 37.1107 69.2539 37.659 69.6009 38.0433C69.7927 38.2589 70.0849 38.3808 70.4639 38.4089H70.4867C71.0347 38.4464 71.4182 38.2683 71.6283 37.884C71.8018 37.5653 71.8292 37.1575 71.8474 36.8295L71.8566 36.6608H71.852Z" fill="#284B66"/>
<path d="M13.081 96.2566C12.6655 96.2566 12.218 96.4346 11.7066 96.8049L11.6198 96.8658C11.2226 97.1517 10.8482 97.4235 10.4418 97.6344C9.75231 97.9953 9.12216 98.1781 8.56509 98.1781C7.41899 98.1781 6.59711 97.3954 6.13136 95.8488C5.82086 94.8224 5.20443 94.1991 4.19075 93.8851C3.61542 93.707 3.22271 93.4305 3.0355 93.0649C2.83916 92.69 2.8346 92.1932 3.01725 91.5793L3.04464 91.4855C3.25469 90.7872 3.54236 89.8265 2.36429 89.1047L2.0538 88.9172L1.80264 89.1797C0.469324 90.5716 -0.110563 91.823 0.0172887 92.9993C0.149707 94.1663 0.976168 95.2302 2.54692 96.2566C2.96701 96.5331 3.28664 96.8986 3.52408 97.3813C4.73868 99.8512 6.70669 101.267 8.92584 101.267C10.4783 101.267 12.0628 100.578 13.5194 99.256C13.9943 98.8248 14.9805 97.9297 14.2043 96.8564C13.9166 96.4581 13.5285 96.2519 13.0856 96.2519L13.081 96.2566Z" fill="#284B66"/>
<path d="M23.4142 84.404C23.1037 83.8931 22.6243 83.6541 22.0718 83.7291C21.6883 83.7806 21.3366 83.9728 21.0764 84.1322C17.5193 86.3115 13.734 87.6987 10.1724 88.8704L10.0902 88.8985C9.46467 89.1047 8.15875 89.5312 8.46468 90.8903C8.71126 91.9823 9.64274 91.9776 10.1952 91.9729C10.3825 91.9729 10.5651 91.9729 10.693 92.001L10.7706 92.0198L10.8665 92.0057C13.5605 91.6308 20.4828 88.4251 22.6243 86.5598C22.6928 86.4989 22.7704 86.438 22.8435 86.3817C23.2635 86.0537 24.0444 85.435 23.4097 84.3993L23.4142 84.404Z" fill="#284B66"/>
<path d="M2.48302 88.7439C2.54238 88.7439 2.59717 88.7486 2.6474 88.7486C3.77067 88.7486 3.86198 87.7175 3.89851 87.3238C4.0081 86.0959 4.60171 85.6226 6.25009 85.4492C6.28205 85.4492 6.30942 85.4492 6.34139 85.4492C6.56969 85.4492 6.82084 85.5335 7.08567 85.6273C7.39617 85.7351 7.74321 85.8569 8.12676 85.8569C8.52859 85.8569 8.89843 85.7257 9.25002 85.4539L9.39157 85.3461L9.42353 85.168C9.64727 83.9447 8.98975 83.3964 8.39158 83.0543C7.75232 82.6887 6.97608 82.4966 6.14505 82.4966C3.96243 82.4966 1.88484 83.7573 1.21362 85.496C1.00358 86.0397 0.935078 86.7192 1.03553 87.3098C1.17252 88.144 1.71591 88.683 2.48302 88.7439Z" fill="#284B66"/>
</svg>
