<svg width="166" height="139" viewBox="0 0 166 139" fill="none" xmlns="http://www.w3.org/2000/svg">
<path d="M160.834 88.0592C158.657 83.1692 134.374 42.5551 134.374 42.5551C134.374 42.5551 132.668 39.4162 130.789 39.3586C128.906 39.2965 128.024 40.0236 127.554 38.5739C127.083 37.1242 126.612 35.8562 125.614 33.0809C124.616 30.3056 124.202 22.3389 121.735 17.5686C119.265 12.8027 121.619 12.5588 117.857 11.1091C114.095 9.65941 107.862 7.97029 105.214 7.66882C102.566 7.36735 102.981 8.81707 101.335 7.90823C99.6896 7.00382 98.3377 5.37234 95.8066 4.52999C93.2798 3.68322 89.3967 2.29557 86.6323 1.7547C83.868 1.20939 81.5744 0.486751 77.7518 1.7547C73.9292 3.02264 71.2253 4.34822 70.2837 5.49647C69.3421 6.64471 69.8129 6.76442 68.8713 7.91266C67.9297 9.06091 67.2256 9.42001 66.0508 9.42001C64.8759 9.42001 63.8738 9.78354 63.7572 8.8747C63.6406 7.97029 63.4635 7.36735 62.9927 7.24322C62.5219 7.12352 62.1029 7.29642 62.1029 7.29642C62.1029 7.29642 47.0371 10.4441 45.4476 12.1111C43.8624 13.7736 44.2641 13.011 43.2577 15.773C42.2513 18.5306 40.2342 28.2663 39.7547 30.6337C39.2796 33.0011 39.7547 34.4287 38.0443 36.5478C36.3338 38.667 36.8133 38.9152 35.1417 39.4428C33.4744 39.9748 31.643 40.8305 30.8872 42.0541C30.1313 43.2777 8.16321 80.5491 8.16321 80.5491C8.16321 80.5491 2.91092 89.2917 2.19391 93.1133C1.48122 96.9349 0.764216 100.654 1.32573 103.377C1.88724 106.099 2.59993 108.142 5.66233 110.288C8.72472 112.434 11.528 114.478 15.5579 115.316C19.5878 116.154 23.1081 117.147 27.138 115.892C31.1679 114.637 33.2585 112.385 34.3297 113.378C35.4008 114.371 35.5045 113.848 36.2172 116.415C36.9299 118.982 39.2278 133.116 39.3789 134.113C39.5301 135.106 39.4826 137.704 39.4826 137.704H125.67C125.67 137.704 125.195 124.688 127.428 119.86C129.661 115.032 130.957 112.979 130.957 112.979C130.957 112.979 134.542 115.395 139.6 115.573C144.658 115.755 146.597 115.755 150.537 114.305C154.476 112.855 157.063 112.496 159.534 109.357C162.004 106.218 163.356 106.764 163.413 102.96C163.473 99.156 163.002 92.9404 160.825 88.0548L160.834 88.0592ZM63.2993 72.9503C62.2411 74.7103 60.7596 76.0093 59.2435 77.3482C57.8959 78.5363 56.7944 80.1324 55.2611 81.0811C53.2526 82.3224 50.8986 81.9899 48.6828 82.4333C46.4842 82.8722 44.4412 83.852 42.3938 84.7431C40.692 85.4835 38.7699 84.2776 39.2234 82.2382C41.1758 73.4291 43.8365 64.8062 45.7975 55.9971C46.3374 53.5809 49.538 54.1528 49.9742 56.1611C50.1772 56.2099 50.3846 56.2941 50.5919 56.4182C53.2137 57.9876 55.8744 58.7679 57.3991 61.6673C58.8764 64.4781 59.913 67.9494 62.5219 69.9134C63.4462 70.6095 63.9559 71.8508 63.295 72.9458L63.2993 72.9503ZM122.949 85.2529C121.818 85.049 120.824 84.4682 119.701 84.2199C118.6 83.9805 117.468 83.8874 116.384 83.5727C114.349 82.9875 112.108 82.2692 110.168 81.4136C108.406 80.6378 106.821 79.157 105.547 77.7117C104.437 76.4526 102.998 75.1759 102.454 73.5222C101.789 71.505 102.8 70.073 104.095 68.6499C105.542 67.0628 106.147 64.9835 106.994 63.0195C107.78 61.193 108.752 59.2379 110.354 58.0275C111.978 56.8039 114.047 56.5202 115.688 55.3365C117.196 54.2459 118.651 55.5626 118.807 57.0522C119.71 58.032 120.012 59.3398 120.245 60.7142C120.595 62.7846 121.113 64.8062 121.537 66.8677C122.09 69.5543 122.336 72.3074 122.936 74.9808C123.524 77.6053 124.69 80.0215 125.61 82.5264C126.245 84.2598 124.405 85.5145 122.953 85.2529H122.949Z" fill="white"/>
<path d="M55.5623 137.375C54.8712 137.375 54.5818 136.918 54.5213 135.747C54.4695 134.723 54.4393 133.713 54.4349 132.751C54.3615 119.038 54.3183 102.856 54.5688 86.8252C54.5818 86.036 54.7071 85.2336 54.8237 84.4533L54.8842 84.072C54.9705 83.4868 55.2081 83.1942 55.5839 83.1942C56.1972 83.2252 56.3182 83.8504 56.3441 84.1208L56.3743 84.4444C56.4866 85.6459 56.5989 86.8828 56.6032 88.102C56.6205 93.6836 56.6205 99.3628 56.6162 104.851V110.739H56.6723V115.438C56.6723 121.636 56.6723 127.829 56.6723 134.027V134.165C56.6723 134.71 56.6723 135.269 56.6248 135.814C56.5428 136.732 56.3398 137.348 55.6141 137.37H55.5623V137.375Z" fill="#BDE3F2"/>
<path d="M109.71 137.33C109.374 137.33 109.123 137.242 108.955 137.06C108.583 136.665 108.6 135.867 108.618 135.158C108.618 134.998 108.626 134.839 108.626 134.692C108.605 128.543 108.609 122.292 108.609 116.245V110.597L108.635 110.42V104.847C108.635 99.62 108.631 94.3886 108.644 89.1616C108.644 87.8139 108.734 86.444 108.821 85.1184L108.847 84.6972C108.898 83.877 108.985 83.2874 109.607 83.2165C109.646 83.2165 109.685 83.212 109.719 83.212C110.259 83.212 110.358 83.6997 110.453 84.4489L110.471 84.5997C110.587 85.4819 110.713 86.5238 110.721 87.5656C110.877 103.499 110.998 119.091 110.756 134.697C110.756 134.874 110.756 135.069 110.764 135.264C110.786 135.934 110.812 136.692 110.458 137.064C110.289 137.242 110.043 137.33 109.702 137.33H109.697H109.71Z" fill="#BDE3F2"/>
<path d="M45.1228 137.05C44.5095 137.033 44.1726 136.594 44.1164 135.738C44.0862 135.308 44.0732 134.856 44.0732 134.35L44.0862 127.266C44.1035 116.112 44.1251 104.58 44.1639 93.2398C44.1683 92.0295 44.2676 90.797 44.3583 89.6C44.3886 89.2187 44.4188 88.8375 44.4447 88.4518C44.4533 88.3542 44.4577 88.2478 44.462 88.1414C44.4922 87.3833 44.5527 86.9222 45.1185 86.9222C45.8096 86.9222 45.9003 87.5518 45.9478 88.4384L45.9824 89.0281C46.086 90.7793 46.194 92.5881 46.207 94.3659C46.2286 98.5997 46.2243 102.905 46.2199 107.068C46.2199 108.717 46.2199 112.192 46.2199 112.192H46.2934V134.098C46.2934 134.616 46.2934 135.149 46.2588 135.672C46.1983 136.594 45.8269 137.059 45.1617 137.059H45.1228V137.05Z" fill="#BDE3F2"/>
<path d="M120.038 136.985C119.684 136.976 119.429 136.878 119.26 136.688C118.897 136.284 118.941 135.486 118.98 134.781C118.993 134.551 119.005 134.329 119.001 134.125C118.975 128.597 118.98 122.988 118.984 117.052V110.673C119.023 108.509 119.018 106.226 119.01 103.805C118.993 99.1414 118.98 94.3223 119.278 89.419C119.286 89.2682 119.291 89.1175 119.295 88.9623C119.304 88.7185 119.312 88.4658 119.338 88.2264C119.424 87.5126 119.537 86.9185 120.107 86.8964C120.694 86.8964 120.768 87.4018 120.811 88.1776C120.845 88.7584 120.884 89.3303 120.928 89.9022C121.023 91.2366 121.118 92.6198 121.126 93.972C121.178 108.181 121.2 121.304 121.187 134.085C121.187 134.294 121.2 134.529 121.217 134.768C121.264 135.482 121.312 136.289 120.945 136.692C120.763 136.892 120.491 136.985 120.107 136.985H120.038Z" fill="#BDE3F2"/>
<path d="M98.7861 137.53C98.1728 137.517 97.8272 137.078 97.7581 136.222C97.6717 135.163 97.581 134.09 97.5854 133.039C97.6242 126.451 97.6674 119.863 97.7149 113.271C97.7538 107.693 97.7927 102.121 97.8272 96.5434C97.8359 95.3553 98.1166 94.8942 98.8293 94.8942C99.5938 94.903 99.6889 95.5237 99.745 96.468C100.008 100.941 100.004 105.375 100.004 109.666C100.004 111.657 100.004 113.541 100.026 115.381V119.907C100.026 124.806 100.026 129.377 100.026 133.948C100.026 134.688 100.017 135.411 99.9523 136.133C99.8703 137.056 99.4902 137.526 98.8207 137.526H98.7904L98.7861 137.53Z" fill="#BDE3F2"/>
<path d="M66.4136 137.53C65.5498 137.49 65.3468 136.706 65.3295 136.054C65.282 134.378 65.2561 132.547 65.2517 130.446C65.2431 127.134 65.2474 123.822 65.2474 120.51V116.006C65.2863 113.749 65.2863 111.453 65.282 109.236C65.282 105.087 65.2777 100.791 65.5368 96.5746V96.5036C65.6016 95.5061 65.6923 94.9032 66.4352 94.9032H66.5087C67.2861 94.9431 67.4373 95.546 67.446 96.6499C67.4805 102.409 67.5237 108.168 67.5669 113.927C67.6101 120.063 67.6576 126.203 67.6921 132.343C67.7008 133.576 67.623 134.786 67.5323 136.134C67.4675 137.065 67.1134 137.539 66.4784 137.539H66.4136V137.53Z" fill="#BDE3F2"/>
<path d="M87.198 130.468C87.9323 130.392 88.6623 130.282 89.3879 130.166C89.3404 118.103 89.2842 106.04 89.2281 93.9767C89.2281 93.4358 89.2022 93.0013 89.1503 92.5979L89.1374 92.4826C89.038 91.6713 88.9257 91.1393 88.2908 91.1349C87.6731 91.1349 87.5176 91.6536 87.4615 92.5491C87.4485 92.7265 87.4442 92.9082 87.4399 93.0856C87.4356 93.2407 87.4312 93.3959 87.4226 93.5511C87.1764 98.0554 87.1764 102.489 87.1764 106.776C87.1764 109.01 87.1764 111.125 87.1418 113.124V117.846C87.1418 122.284 87.1418 126.42 87.1418 130.477C87.1591 130.477 87.1764 130.468 87.198 130.463V130.468Z" fill="#BDE3F2"/>
<path d="M78.1397 130.375C78.1397 126.518 78.1397 122.66 78.1397 118.803V114.574H78.036C78.036 114.574 78.036 111.311 78.036 109.764C78.036 105.889 78.0447 101.881 78.0231 97.9444C78.0144 96.4947 77.9367 95.0228 77.8589 93.5952C77.8373 93.1785 77.8157 92.7573 77.7941 92.3406C77.738 91.2589 77.2888 91.1303 76.9476 91.1259C76.5113 91.1259 76.2737 91.4628 76.183 92.212C76.0967 92.9347 76.0491 93.6706 76.0448 94.3888C75.9844 106.319 75.9368 118.254 75.885 130.184C76.6366 130.246 77.3881 130.308 78.1397 130.37V130.375Z" fill="#BDE3F2"/>
<path d="M34.0315 66.192C32.3988 70.55 30.9389 74.9656 29.656 79.4433C27.8592 85.7077 25.9544 91.941 23.6522 98.0369C22.175 101.952 20.728 105.875 19.2638 109.794C19.0219 110.441 18.9312 111.08 19.5791 111.51C20.3306 112.006 20.9137 111.545 21.3327 110.965C21.6955 110.455 21.9633 109.856 22.175 109.262C25.1467 100.941 28.3646 92.7124 30.7791 84.1915C32.3167 78.7606 33.9667 73.3607 35.5174 67.9343C35.8543 66.7594 36.3294 65.5048 35.4396 64.3033C34.3943 64.5649 34.2993 65.4826 34.0315 66.192Z" fill="#BDE3F2"/>
<path d="M138.308 91.0542C135.535 83.0253 133.6 74.7083 130.581 66.7593C130.244 65.877 130.11 64.8263 129.1 64.2411C128.296 64.7598 128.339 65.5357 128.503 66.2583C128.84 67.7346 129.225 69.1976 129.648 70.6518C133.307 83.1716 136.935 95.7004 141.682 107.852C142.019 108.717 142.291 109.621 142.71 110.441C143.107 111.226 143.686 112.068 144.71 111.55C145.681 111.058 145.249 110.229 144.956 109.426C142.714 103.308 140.433 97.2077 138.308 91.0497V91.0542Z" fill="#BDE3F2"/>
<path d="M154.839 97.984C152.61 88.9665 148.334 80.8357 144.515 72.5009C142.606 68.3336 139.734 64.8489 137.034 61.2357C136.615 60.6727 136.071 59.7062 135.285 60.2648C134.43 60.8766 135.285 61.6303 135.661 62.2066C137.328 64.7824 139.354 67.172 140.688 69.9119C146.217 81.279 152.126 92.5265 153.789 105.397C153.888 106.181 154.122 106.993 155.093 106.913C156.078 106.829 156.117 105.986 156.126 105.06C155.759 102.781 155.43 100.369 154.843 97.984H154.839Z" fill="#BDE3F2"/>
<path d="M29.0942 60.1845C28.1742 59.9761 27.7595 60.6988 27.3103 61.2618C23.5828 65.9302 20.313 70.8955 17.946 76.4461C16.7626 79.2259 15.5272 81.9834 14.2401 84.7099C11.3461 90.8457 9.44131 97.2874 8.42195 104.008C8.26645 105.041 7.6747 106.544 9.13895 106.824C10.8753 107.152 10.5946 105.343 10.7285 104.341C11.4196 99.1007 12.8104 94.0067 14.8621 89.2276C18.8877 79.8554 22.4684 70.2039 28.8178 62.0598C29.2281 61.5367 29.7119 60.9249 29.0899 60.1801L29.0942 60.1845Z" fill="#BDE3F2"/>
<path d="M55.9698 31.0282C55.7668 31.8572 55.4947 32.6863 55.1059 33.5242C54.674 34.4596 54.1514 35.3374 53.5683 36.1665C53.4171 36.1798 53.2616 36.2197 53.1104 36.2906C52.4798 36.5876 51.9312 37.0443 51.4172 37.5142C50.9076 37.9842 50.4065 38.4674 49.9184 38.9595C48.8775 40.0058 47.8495 41.1186 47.7199 42.6791C47.7156 42.7368 47.7199 42.7944 47.7285 42.852C47.6076 43.3308 47.6206 43.8273 47.8754 44.2928C48.2771 45.0288 49.0589 45.1707 49.7975 45.1086C49.8105 45.1086 49.8234 45.113 49.8364 45.113C51.0415 45.2017 52.2465 45.2505 53.4516 45.2593C53.6374 45.2593 53.8188 45.2017 53.9786 45.1042C54.9764 45.2904 55.8791 45.3303 55.8791 45.3303L55.5206 40.1787L55.9698 31.0149V31.0282Z" fill="#82C7E9"/>
<path d="M114.474 38.4803C114.427 38.4626 114.405 38.4537 114.392 38.4493C114.383 38.4404 114.366 38.4316 114.332 38.4138C114.206 38.3385 114.077 38.272 113.956 38.1922C113.947 38.1833 113.818 38.0902 113.792 38.068C113.697 37.9838 113.602 37.8951 113.511 37.802C113.118 37.3986 112.695 36.9863 112.133 36.8799C111.775 36.472 111.451 36.0242 111.166 35.5499C110.621 34.6454 110.099 33.5105 109.852 32.3667C109.706 32.0209 109.567 31.6618 109.451 31.2894C108.449 28.0264 108.466 24.6748 108.051 21.3276C107.676 18.2774 105.594 16.3666 103.322 14.6775C101.581 13.3874 100.907 11.6407 101.654 9.7343C101.11 9.25106 100.588 8.80329 100.104 8.40872C96.5706 5.52703 90.4803 2.59214 85.3619 1.7631C80.2435 0.934056 79.1162 0.934054 75.9415 2.03796C72.7668 3.14631 71.2853 3.64285 70.2616 4.91966C69.2379 6.19204 67.346 8.51956 67.346 8.51956C67.346 8.51956 64.6076 9.62347 63.5062 9.92051C63.6357 12.9485 61.6791 14.2209 59.5497 15.9455C57.2475 17.8119 56.9408 21.7842 56.7162 24.5418C56.5348 26.7186 56.4916 28.718 56.051 30.7042C56.6125 29.6313 60.6209 22.0236 61.718 21.199C62.8971 20.3123 65.8645 18.539 67.3979 18.7607C68.9312 18.9823 72.3133 17.3774 72.5163 17.3198C72.7193 17.2622 77.9932 17.5947 78.965 17.3198C79.9369 17.0449 84.9041 17.8164 87.0033 16.9873C88.1781 16.5218 90.0484 16.5262 91.9532 16.8144C92.113 16.7568 92.2901 16.7169 92.4931 16.7213C95.4519 16.7701 98.5056 17.3109 100.959 19.1198C102.734 20.4276 104.306 22.5113 105.494 24.626C107.585 27.7294 108.725 31.2717 109.183 35.0267C109.498 37.6335 109.744 40.5108 109.503 43.2639C109.343 43.592 109.183 43.9156 109.032 44.2437C108.552 45.2722 109.511 46.2387 110.509 45.7599C110.976 45.5382 111.433 45.3521 111.982 45.1747C112.535 44.993 113.096 44.8466 113.666 44.7358C114.327 44.6072 114.958 44.4122 115.282 43.7383C115.55 43.1753 115.601 42.5058 115.679 41.894C115.757 41.3044 115.861 40.6748 115.835 40.0808C115.796 39.2029 115.208 38.7685 114.478 38.4803H114.474Z" fill="#82C7E9"/>
<path d="M64.5989 73.7923C67.7736 77.9863 71.5703 81.3335 75.7427 84.2506C76.5116 84.7871 76.7707 85.5762 77.0515 86.4053C78.1486 89.6195 78.8483 92.9888 80.5717 95.9592C81.0555 96.7927 81.4486 97.8789 82.5846 97.9055C83.8285 97.9365 84.2259 96.7749 84.7399 95.8883C86.4201 92.9711 87.1026 89.6594 88.191 86.5072C88.4502 85.7536 88.5884 84.9423 89.3054 84.4369C93.5513 81.4355 97.4776 78.0705 100.704 73.748C102.643 76.2218 104.449 78.536 106.535 80.5931C106.743 80.797 106.967 81.0187 107.2 81.2005C106.889 82.6103 108.138 82.9162 108.967 83.1201L110.47 83.4881C114.988 84.5965 119.657 85.7447 124.266 86.8043C125.104 86.9993 125.445 87.3407 125.665 88.223C126.4 91.1401 127.199 94.0972 127.972 96.9523C128.214 97.8478 128.456 98.7434 128.698 99.6345C129.294 101.851 130.248 103.904 131.194 105.788C131.544 106.488 132.032 106.856 132.602 106.856C132.784 106.856 132.969 106.821 133.164 106.746C133.963 106.44 134.252 105.708 133.98 104.68C133.82 104.077 133.565 103.509 133.311 102.986C132.563 101.443 131.967 99.8251 131.527 98.1759C129.838 91.8184 128.14 85.4654 126.447 79.1079L124.206 70.6978L124.041 70.0816C123.614 68.4545 123.173 66.7743 122.374 65.2403C122.322 65.1428 122.279 65.0275 122.232 64.9078C122.076 64.5088 121.86 63.9591 121.281 63.9591C121.195 63.9591 121.104 63.9724 121.014 63.9945C120.102 64.2339 120.189 65.0807 120.249 65.697L120.266 65.8876C120.297 66.2378 120.357 66.6058 120.448 66.9827C120.862 68.6939 121.277 70.4052 121.687 72.1165C122.495 75.446 123.303 78.7754 124.093 82.1093C124.132 82.2778 124.188 82.4418 124.24 82.6103C124.383 83.0581 124.521 83.4837 124.426 83.9935C119.463 82.4152 114.591 81.2891 109.623 80.1764C109.567 80.1631 109.511 80.1542 109.455 80.1409C109.399 79.5823 108.881 79.0858 108.449 78.6203C106.907 76.9578 105.321 75.3307 103.814 73.6327C101.43 70.955 100.523 70.9062 97.957 73.4997C95.7153 75.7696 93.5686 78.2079 90.8647 79.8705C87.6425 81.8522 85.8024 84.663 84.7442 88.2496C84.2173 90.0362 83.7033 91.8805 82.7055 93.5652C81.9669 92.9622 81.8978 92.182 81.6429 91.5125C80.7359 89.1451 79.8504 86.7688 78.9866 84.3837C78.5892 83.2886 77.911 82.4862 76.9694 81.8345C73.393 79.3562 70.132 76.4922 67.1343 73.3135C66.4562 72.5953 65.7262 71.9525 64.7328 71.7131C63.9812 71.5313 63.2772 71.518 62.7114 72.1387C60.5603 74.4928 58.4136 76.8513 56.2842 79.2232C56.038 79.4936 55.8782 79.7995 55.835 80.1054C55.1223 80.2207 54.4269 80.3759 53.7704 80.5266L52.9065 80.7305C48.8852 81.6748 44.7343 82.6502 40.4755 84.0334L40.5792 83.5812C40.7001 83.0669 40.7951 82.6502 40.8945 82.229L41.8836 78.1104C42.782 74.3775 43.6804 70.6491 44.5702 66.9161C44.6955 66.3886 44.7775 65.8389 44.8164 65.2935C44.8639 64.5709 44.5616 64.0832 43.9828 63.9547C43.9137 63.9369 43.8489 63.9325 43.7841 63.9325C43.3003 63.9325 43.08 64.3536 42.9202 64.6595L42.8641 64.766C42.0564 66.2556 41.5856 67.8915 41.132 69.4742L41.0284 69.8378C39.9226 73.6859 38.9378 77.6449 37.9876 81.4665C36.1 89.0697 34.1477 96.9301 31.1242 104.321C30.865 104.955 30.8218 105.495 30.9989 105.925C31.1458 106.285 31.4395 106.551 31.8714 106.723C32.0701 106.803 32.2601 106.843 32.4372 106.843C33.1845 106.843 33.6164 106.174 33.9101 105.588C35.1411 103.132 35.9143 101.177 36.4283 99.2488C36.7047 98.2158 36.9812 97.1828 37.2576 96.1498C37.9444 93.5962 38.6527 90.9584 39.3006 88.3471C39.5468 87.3585 39.9485 86.9683 40.9506 86.7422C44.7387 85.8821 48.5785 84.9378 52.2888 84.0201C53.5544 83.7098 54.8156 83.395 56.0812 83.0891C56.336 83.027 56.5693 82.9517 56.7766 82.863C57.5498 82.5394 57.9083 81.9941 57.8219 81.3157C57.9126 81.2581 57.999 81.196 58.0854 81.1207C58.906 80.3936 59.6922 79.6089 60.4135 78.7799C61.8043 77.175 63.1433 75.5169 64.5859 73.779L64.5989 73.7923Z" fill="#284B66"/>
<path d="M105.667 82.7918C105.857 82.0825 105.814 81.3731 105.015 81.0983C104.307 80.8544 103.866 81.3643 103.594 81.9495C103.123 82.9514 102.73 83.9933 102.268 84.9996C100.968 87.8326 99.6547 90.6566 98.225 93.7378C97.292 92.4388 96.5923 91.4369 95.8667 90.4571C94.6961 88.8744 93.5299 87.2784 91.6812 86.4405C91.0377 86.1479 90.3509 86.0636 89.8844 86.7419C89.3661 87.4956 89.8455 88.0276 90.42 88.4444C92.3896 89.8852 93.7545 91.8137 94.9898 93.8398C94.8905 93.9639 94.7998 94.1058 94.7177 94.2831C94.4802 94.7885 94.2944 95.3072 94.1087 95.8348C92.0311 101.784 90.2731 107.849 88.9687 112.469C88.675 113.515 88.3942 114.57 88.1135 115.621C86.9991 119.797 85.8502 124.115 83.7596 128.003C83.6862 128.145 83.6257 128.296 83.5696 128.447C83.3838 128.939 83.2456 129.24 82.7662 129.24H82.7186C82.2219 129.218 82.0837 128.908 81.898 128.398C81.8418 128.243 81.7814 128.079 81.7036 127.932C79.6001 123.969 78.4296 119.576 77.3022 115.324C76.9999 114.185 76.6889 113.01 76.3606 111.861C74.9309 106.807 73.1773 100.845 71.0435 94.9038L71.0176 94.8329C70.8794 94.4472 70.7066 93.9684 70.387 93.6846C71.6137 91.6807 73.0131 89.8054 74.9655 88.3735C75.4838 87.9922 75.8596 87.4779 75.4406 86.7907C75.0519 86.1612 74.4299 86.1257 73.8295 86.3518C72.5466 86.8351 71.5402 87.7395 70.7023 88.8124C69.5361 90.3064 68.4217 91.8403 67.0957 93.6048C66.6983 92.8246 66.4262 92.2881 66.1497 91.7517C64.5689 88.6838 63.2083 85.5139 61.8779 82.3219C61.5713 81.5815 61.148 80.717 60.1545 81.1426C59.3079 81.5062 59.4721 82.3529 59.6794 83.0933C61.0443 88.0099 63.299 92.532 65.6832 96.9831C66.4607 98.4372 67.7824 98.2687 68.5988 96.8057C68.7154 96.5973 68.832 96.3846 68.9487 96.1762C69.251 97.4397 69.562 98.7387 69.9594 99.9889C71.0954 103.575 72.0715 107.295 73.0175 110.886C74.6242 117 76.2829 123.313 78.8269 129.422C78.2913 129.422 77.7687 129.431 77.2504 129.435C76.6586 129.44 76.0799 129.449 75.5097 129.449C74.5897 129.449 73.8381 129.431 73.1427 129.4C73.0736 129.4 73.0045 129.395 72.9397 129.395C71.7692 129.395 71.2206 129.95 71.212 131.142C71.199 133.057 71.2033 134.738 71.2206 136.281C71.2293 137.047 71.2465 138.475 72.7021 138.475H72.7626C74.0455 138.44 74.0886 137.287 74.1232 136.445V136.334C74.1534 135.757 74.1232 135.177 74.1016 134.614C74.0584 133.683 74.0152 132.725 74.2009 131.767C76.9394 131.883 79.7772 131.945 82.6366 131.945C85.496 131.945 88.3165 131.891 91.3573 131.776V133.049C91.353 134.197 91.3486 135.301 91.3616 136.4C91.3702 137.127 91.3875 138.479 92.7697 138.479H92.7999C94.2426 138.457 94.2599 136.959 94.2642 136.391C94.2858 134.494 94.3031 132.787 94.2685 131.067C94.2469 129.932 93.694 129.404 92.5278 129.404C92.4414 129.404 92.355 129.404 92.2643 129.413C91.5776 129.453 90.8303 129.471 89.9146 129.471C89.3488 129.471 88.7743 129.462 88.1869 129.458C87.6686 129.453 87.1373 129.444 86.5888 129.444C86.7961 128.948 86.9991 128.469 87.1978 128.003C87.958 126.221 88.6145 124.678 89.0767 123.02L91.4912 114.397C93.1239 108.567 94.7566 102.738 96.3807 96.9077C96.4238 96.7481 96.4584 96.5796 96.4973 96.42C96.9163 97.1294 97.1711 97.9229 98.1084 97.9584C99.0327 97.9939 99.4603 97.3067 99.8447 96.5619C101.702 92.9487 103.538 89.3222 104.851 85.4474C105.149 84.5696 105.421 83.6829 105.659 82.7918H105.667Z" fill="#284B66"/>
<path d="M121.506 122.91C120.948 122.803 120.374 122.781 119.691 122.715C119.549 120.6 119.402 118.53 119.281 116.459C119.234 115.648 119.121 114.899 118.352 114.442C116.119 113.116 113.528 114.509 113.42 117.155C113.346 118.964 113.407 120.782 113.407 122.795C109.515 122.795 105.826 122.768 102.133 122.817C101.339 122.826 100.229 122.843 100.19 123.943C100.146 125.109 101.27 125.025 102.06 125.109C105.8 125.494 109.558 125.348 113.506 125.304C113.506 126.709 113.493 128.066 113.51 129.422C113.519 130.203 113.761 130.912 114.638 130.97C115.64 131.036 115.955 130.282 115.99 129.431C116.037 128.154 116.003 126.873 116.003 125.561C116.573 125.494 116.884 125.419 117.195 125.423C118.599 125.459 119.998 125.565 121.402 125.552C122.149 125.543 122.827 125.18 122.862 124.302C122.896 123.433 122.257 123.056 121.514 122.914L121.506 122.91ZM116.335 122.489C115.886 120.604 115.536 118.72 116.366 116.863C117.087 118.756 116.957 120.627 116.335 122.489Z" fill="#284B66"/>
<path d="M84.3419 102.844C84.1778 102.041 83.6119 101.563 82.8302 101.563C82.2557 101.563 81.7028 101.833 81.3918 102.272C81.1154 102.662 81.0549 103.145 81.219 103.673C81.435 104.369 82.0095 104.786 82.7524 104.786C83.3053 104.786 83.8322 104.537 84.1346 104.143C84.3981 103.793 84.4715 103.349 84.3419 102.848V102.844Z" fill="#284B66"/>
<path d="M82.8302 118.078C82.2557 118.078 81.7028 118.348 81.3918 118.787C81.1154 119.177 81.0549 119.66 81.219 120.188C81.435 120.884 82.0095 121.301 82.7524 121.301C83.3053 121.301 83.8322 121.052 84.1346 120.658C84.3981 120.307 84.4715 119.864 84.3419 119.363C84.1778 118.561 83.6119 118.082 82.8302 118.082V118.078Z" fill="#284B66"/>
<path d="M101.404 14.8509L101.628 15.0326C102.553 15.7907 103.507 16.5754 104.561 17.1474C106.323 18.1005 107.161 19.4438 107.209 21.3679L107.226 22.0728C107.256 23.5447 107.291 25.0698 107.386 26.5683C107.688 31.3209 108.738 37.2438 114.232 40.9235C114.604 41.1718 115.014 42.0585 115.208 43.0338C115.372 43.8585 115.308 44.3373 115.2 44.5013L115.156 44.5678C114.737 45.2151 114.159 46.0973 115.079 46.8465C115.346 47.0638 115.627 47.179 115.904 47.179C116.53 47.179 117.005 46.6515 117.441 46.1638C117.627 45.9599 117.8 45.7515 117.977 45.5387C118.521 44.887 119.039 44.2752 119.752 43.8407C122.206 42.3511 125.501 40.6442 129.255 40.6442C129.838 40.6442 130.43 40.6842 131.013 40.764C131.138 40.7817 131.263 40.7906 131.38 40.7906C131.911 40.7906 132.265 40.5689 132.425 40.13C132.727 39.3142 131.959 38.9064 131.669 38.7512C131.285 38.5472 130.87 38.3522 130.447 38.3167C129.492 38.2369 129.125 37.9088 129.043 37.0621C128.996 36.5567 128.559 36.069 128.235 35.7498C127.104 34.6193 126.775 33.2272 126.59 31.8928C125.786 26.1382 124.97 20.9689 123.095 15.9725C121.99 13.0287 120.465 9.85001 116.409 9.44658C116.12 9.41554 115.83 9.27367 115.524 9.12294C115.351 9.0387 115.178 8.95448 115.001 8.88354C111.99 7.7353 108.911 7.12792 105.935 6.53828C105.269 6.40528 104.613 6.27672 103.935 6.13928H103.788C102.341 6.13928 100.885 6.73779 100.475 7.50033C100.333 7.76633 100.333 8.0412 100.475 8.27617C100.989 9.10965 100.76 9.70814 100.492 10.3998C100.389 10.6702 100.285 10.9451 100.22 11.2421C99.9135 12.6874 100.337 13.9686 101.408 14.842L101.404 14.8509ZM103.093 9.06088C103.153 9.06088 103.213 9.06531 103.274 9.07418C103.291 9.09191 103.343 9.14511 103.356 9.15841C103.041 10.2845 103.447 11.118 104.574 11.6411L105.745 12.1864C108.906 13.6538 112.068 15.1213 115.234 16.5755C115.515 16.704 115.843 16.8414 116.167 16.8414C116.556 16.8414 116.854 16.6419 117.048 16.2518C117.523 15.3075 116.634 14.7267 116.297 14.5095C114.146 13.1086 111.787 11.681 109.14 10.7012L108.967 10.6392C108.41 10.4352 107.835 10.2224 107.187 9.77908C109.792 10.1205 111.947 10.7855 113.899 11.4549C114.098 11.5214 114.288 11.6189 114.491 11.7209C114.832 11.8938 115.187 12.0667 115.571 12.1066C118.115 12.3504 119.286 14.0041 120.348 16.5888C121.519 19.435 122.149 22.4807 122.758 25.4289C122.944 26.3333 123.13 27.2333 123.333 28.1333C123.497 28.8648 123.64 29.6229 123.773 30.3544C124.262 33.0011 124.767 35.7321 126.538 38.1882C124.715 38.534 123.307 39.0527 121.942 39.5625C120.56 40.0768 119.329 40.795 117.916 41.6285C117.195 40.1389 116.076 38.9773 114.997 37.8512C113.787 36.5921 112.535 35.2887 111.874 33.5375C110.764 30.6026 110.254 28.2751 110.211 25.9875C110.189 24.7417 110.111 23.4826 110.034 22.2635C109.999 21.7137 109.965 21.164 109.934 20.6187C109.8 18.1582 108.639 16.3183 106.371 14.9927C105.779 14.6469 105.192 14.2657 104.626 13.8933L104.449 13.778C103.3 13.0287 102.285 12.0933 102.661 10.351C102.725 10.054 102.604 9.74361 102.496 9.47318C102.475 9.41998 102.453 9.36234 102.432 9.30914C102.639 9.14068 102.851 9.06088 103.084 9.06088H103.093Z" fill="#284B66"/>
<path d="M33.5817 40.7993C33.7069 40.7993 33.8408 40.7815 33.9791 40.7505C34.4628 40.6352 34.9768 40.5776 35.4995 40.5776C35.9271 40.5776 36.3806 40.6175 36.8471 40.6928C40.5401 41.3002 44.7169 42.4352 47.667 46.2346C47.9823 46.6424 48.479 47.1833 49.1183 47.1833C49.3861 47.1833 49.6496 47.0858 49.9044 46.8952C50.9324 46.1282 50.2931 45.1839 49.8698 44.5588C49.7403 44.3637 49.615 44.1686 49.4768 43.9514L49.3602 43.7696C49.7143 43.3573 49.8655 42.8386 50.0167 42.3376C50.2024 41.7125 50.3622 41.1672 50.8676 40.9057C53.3685 39.6023 54.5606 37.257 55.7139 34.9871L55.7743 34.8718C57.6921 31.099 57.7915 27.1267 57.7224 22.6978C57.6748 19.6299 58.7288 17.7989 61.1389 16.7704C61.64 16.5575 62.0676 16.1852 62.4823 15.8261C62.6162 15.7108 62.7501 15.5955 62.884 15.4847C65.1602 13.636 65.4799 11.9912 64.0286 9.45528C64.5253 8.73707 64.6981 8.16961 64.5685 7.68637C64.4346 7.18096 63.9897 6.77753 63.1604 6.41399C62.7241 6.22336 62.2533 6.13025 61.7177 6.13025C61.4024 6.13025 61.0569 6.16129 60.6379 6.23222C56.1544 6.9593 51.4939 8.25828 45.9652 10.3109C44.9631 10.6833 44.2418 11.304 43.7623 12.2128C42.1253 15.3162 41.1362 17.8344 40.5531 20.3791C39.5726 24.6618 38.8081 28.8735 38.2725 32.8946C38.1515 33.799 37.8448 34.495 37.2747 35.1644C36.9292 35.5679 36.6441 36.0334 36.3633 36.4856C35.6506 37.6471 34.9768 38.7422 33.37 38.8131C33.1368 38.822 32.9079 38.9594 32.7481 39.1811C32.5666 39.4338 32.5105 39.753 32.5926 40.0589C32.7221 40.5421 33.0763 40.8126 33.5817 40.8126V40.7993ZM42.0216 26.8164C42.3456 24.981 42.6782 23.0835 43.149 21.2658C45.0192 14.0261 46.4446 12.5542 53.308 10.772C53.6233 10.6878 53.943 10.6035 54.2583 10.5149C55.3813 10.2001 56.5432 9.88089 57.8433 9.78336C57.3423 10.1824 56.8153 10.3686 56.3013 10.5503C56.189 10.5902 56.081 10.6301 55.9687 10.67C53.3512 11.6454 50.9583 13.0818 48.9585 14.363C48.6475 14.5625 48.2976 14.7842 48.0816 15.0901C47.8052 15.4758 47.8052 15.897 48.0816 16.3492C48.2846 16.6861 48.5654 16.8546 48.9066 16.8546C49.2479 16.8546 49.5848 16.6906 49.8828 16.5443C49.9476 16.5132 50.0124 16.4822 50.0728 16.4556C53.1741 15.0413 56.4525 13.5296 60.0894 11.836C60.7761 11.5168 61.4456 11.1267 61.6745 10.4661C61.8128 10.0715 61.7825 9.63262 61.5795 9.12722C61.7264 9.09175 61.856 9.07845 61.9683 9.07845C62.2188 9.07845 62.4088 9.15825 62.5989 9.34445C62.5859 9.36661 62.573 9.39322 62.5557 9.41538C62.4347 9.61488 62.3008 9.84542 62.344 10.0848C62.8278 12.7138 60.9662 13.7069 59.165 14.6689C56.3963 16.1497 55.0185 18.4151 54.9494 21.6027C54.9105 23.416 54.8673 25.1849 54.7377 26.9538C54.3749 31.8837 52.6947 35.5945 49.5891 38.29C48.6691 39.0924 47.9045 40.1298 47.1357 41.6327C44.4361 39.9702 41.6545 38.8486 38.6569 38.2102C40.6438 34.6058 41.3392 30.6468 42.013 26.8164H42.0216Z" fill="#284B66"/>
<path d="M165.075 100.862C164.72 94.6114 163.407 89.6327 160.941 85.1949C160.025 83.5501 159.118 81.9009 158.211 80.2473C156.151 76.5011 154.021 72.6307 151.84 68.8712C151.361 68.0377 150.942 67.1466 150.536 66.2821C149.918 64.9654 149.279 63.5999 148.402 62.4207C146.052 59.2685 143.936 55.877 141.889 52.5919C139.897 49.4043 137.841 46.1058 135.569 43.0246C135.496 42.9227 135.427 42.8163 135.358 42.7054C135.055 42.2311 134.675 41.637 133.803 41.6193H133.69L133.626 41.7124C133.12 42.4394 133.349 43.0734 133.535 43.5832C133.57 43.6852 133.608 43.7827 133.639 43.8847C134.148 45.5605 134.965 47.1831 136.062 48.7082C139.02 52.8091 141.668 57.2336 144.23 61.5074C144.882 62.5936 145.53 63.6753 146.182 64.7571C148.674 68.8668 151.011 73.1938 153.27 77.3789C154.726 80.0744 156.229 82.863 157.762 85.5718C160.742 90.8297 162.172 96.4823 162.017 102.374C161.986 103.549 161.835 104.493 161.209 105.274C157.326 110.119 152.708 112.886 147.089 113.733C145.603 113.954 144.13 114.069 142.701 114.069C139.072 114.069 135.539 113.334 132.187 111.884C131.747 111.693 131.38 111.6 131.06 111.6C130.473 111.6 130.041 111.919 129.812 112.527C129.652 112.948 129.652 113.338 129.816 113.684C130.023 114.118 130.49 114.469 131.138 114.668C131.907 114.907 132.68 115.173 133.427 115.431C136.032 116.326 138.722 117.253 141.686 117.253C141.785 117.253 141.889 117.253 141.988 117.253C150.017 117.08 156.103 114.774 161.14 109.991C164.06 107.22 165.269 104.405 165.07 100.867L165.075 100.862Z" fill="#284B66"/>
<path d="M35.2621 112.478C35.0893 112.039 34.6704 111.742 34.1391 111.689C34.0743 111.68 34.0095 111.68 33.9447 111.68C33.5128 111.68 33.0808 111.813 32.6662 111.942L32.5366 111.982C32.0831 112.119 31.6339 112.261 31.1847 112.403C28.3512 113.294 25.6775 114.136 22.6756 114.136C22.4856 114.136 22.2955 114.136 22.1055 114.127C15.458 113.884 10.1064 111.733 5.74387 107.557C3.68355 105.584 2.81537 103.501 2.92767 100.792C3.15659 95.3343 4.74178 90.0542 7.77395 84.6499C8.51255 83.3332 9.28571 82.0032 10.0373 80.7175C11.5793 78.0708 13.1731 75.3354 14.5596 72.529C14.754 72.1389 14.944 71.7488 15.1341 71.3586C16.4644 68.641 17.8423 65.8302 19.6175 63.4052C21.7426 60.5057 23.5999 57.3669 25.3925 54.3345C26.9215 51.7498 28.498 49.0765 30.2344 46.5716C31.2797 45.0598 31.7635 43.4638 31.6727 41.8279L31.6598 41.6151H31.4525C30.3165 41.6417 29.9148 42.2978 29.5908 42.8299C29.5476 42.9008 29.5044 42.9673 29.4613 43.0382C28.2087 44.9535 26.9215 46.8864 25.6732 48.7617C21.8247 54.534 17.8466 60.5013 14.4387 66.7169C12.7239 69.838 10.94 72.9857 9.21228 76.0314C7.74803 78.6161 6.23195 81.2894 4.7677 83.9317C2.21066 88.5513 0.69458 93.1487 0.146026 97.9811C-0.51483 103.789 1.04876 107.863 5.21691 111.197C10.0373 115.05 15.7042 116.974 23.0427 117.244C23.2112 117.249 23.3753 117.253 23.5395 117.253C26.3513 117.253 28.917 116.366 31.3963 115.506C32.2127 115.222 33.0592 114.93 33.9015 114.673C34.273 114.557 34.679 114.265 34.99 113.888C35.3442 113.454 35.4478 112.926 35.2707 112.469L35.2621 112.478Z" fill="#284B66"/>
<path d="M129.173 114.047C129.052 114.012 128.931 113.998 128.823 113.998C128.132 113.998 127.816 114.624 127.639 115.093C127.548 115.333 127.479 115.577 127.41 115.812C127.38 115.918 127.35 116.024 127.315 116.131C125.298 122.652 124.27 128.895 124.166 135.203C124.166 135.372 124.149 135.545 124.132 135.726C124.058 136.626 123.955 137.859 125.406 137.996C125.488 138.005 125.562 138.01 125.635 138.01C126.957 138.01 127.104 136.835 127.225 135.895C127.246 135.722 127.268 135.549 127.298 135.385C127.315 135.292 127.32 135.199 127.32 135.101V134.999C127.622 129.981 128.132 124.067 129.682 118.241C129.903 117.421 129.98 116.556 130.058 115.719L130.075 115.55C130.149 114.779 129.812 114.216 129.177 114.043L129.173 114.047Z" fill="#284B66"/>
<path d="M37.8412 116.658C37.7764 116.454 37.7332 116.202 37.6857 115.936C37.5388 115.107 37.3574 114.074 36.3424 114.074C36.2042 114.074 36.053 114.096 35.8932 114.136C35.4915 114.238 35.1978 114.446 35.0293 114.747C34.6708 115.377 34.917 116.277 35.1157 117C35.1502 117.128 35.1848 117.252 35.215 117.368C36.5238 122.652 37.3531 128.487 37.8153 135.726C37.8671 136.529 37.9621 138.027 39.4134 138.027C39.4825 138.027 39.5603 138.027 39.638 138.018C41.1023 137.876 41.0029 136.48 40.9381 135.567C40.7049 128.588 39.6899 122.408 37.8412 116.667V116.658Z" fill="#284B66"/>
<path d="M26.8273 54.7999H26.8014C26.6718 54.8177 26.5422 54.8265 26.4083 54.8354C25.6957 54.8842 24.8059 54.9462 24.7065 55.9748C24.6245 56.8482 25.3587 56.9679 25.8425 57.0477C26.0066 57.0743 26.1578 57.1009 26.2874 57.1408C30.1834 58.4619 34.6885 60.0579 38.8307 62.279C39.2497 62.5007 39.7334 62.7401 40.1956 62.7401C40.7053 62.7401 41.1027 62.4519 41.3661 61.8889C41.919 60.7096 40.9342 60.1155 40.2129 59.6766C38.2303 58.4752 36.062 57.6639 33.9628 56.8792C33.2026 56.5954 32.4467 56.3117 31.6952 56.0103C30.3389 55.465 28.8444 55.0925 26.8532 54.7999H26.8273Z" fill="#284B66"/>
<path d="M124.845 62.7315C125.191 62.7315 125.575 62.6118 126.063 62.3547C130.145 60.2001 134.477 58.4578 139.315 57.0347C139.721 56.915 140.226 56.7642 140.313 56.1568C140.334 55.8509 140.235 55.5672 140.028 55.3411C139.708 54.9909 139.155 54.7958 138.468 54.7958C138.196 54.7958 137.902 54.8268 137.604 54.8889C133.289 55.78 129.056 57.3804 124.672 59.7878C124.271 60.0094 123.053 60.6745 123.662 61.9114C123.929 62.4567 124.327 62.7315 124.849 62.7315H124.845Z" fill="#284B66"/>
<path d="M43.7801 62.2751C43.9486 62.3328 44.1127 62.3638 44.2682 62.3638C44.8643 62.3638 45.3523 61.9559 45.6806 61.1801C47.2485 57.4605 48.7128 53.7941 49.4341 49.7907C49.4471 49.7154 49.4643 49.6356 49.4816 49.5558C49.5982 48.9972 49.7408 48.3011 49.0929 47.7603L49.0497 47.7204L48.9935 47.7115C48.9028 47.6982 48.8208 47.6893 48.7387 47.6893C47.8489 47.6893 47.512 48.5317 47.3522 48.9351C45.8016 52.7966 44.2768 56.729 42.9897 60.0629C42.7651 60.6481 42.7392 61.1491 42.9206 61.5481C43.0717 61.885 43.3611 62.1288 43.7844 62.2751H43.7801Z" fill="#284B66"/>
<path d="M117.93 49.4315L117.878 49.3029C117.593 48.5803 117.234 47.6803 116.021 47.6803H115.921L115.856 47.7557C115.286 48.434 115.45 49.1877 115.593 49.8527C115.61 49.9413 115.632 50.0255 115.649 50.1142C116.405 53.9003 117.77 57.4204 119.135 60.6524L119.165 60.7277C119.472 61.4504 119.847 62.3548 120.724 62.3548C120.932 62.3548 121.161 62.3016 121.398 62.1952C122.685 61.6321 122.21 60.3908 121.895 59.5662C120.478 55.8599 119.182 52.5437 117.93 49.427V49.4315Z" fill="#284B66"/>
<path d="M36.7823 56.2501C36.994 56.3477 37.2013 56.3964 37.3913 56.3964C38.1904 56.3964 38.5575 55.5851 38.8513 54.929C40.0909 52.1847 41.5552 48.9395 42.9849 45.6677C43.0151 45.5967 43.0496 45.5258 43.0842 45.4504C43.3304 44.9317 43.6371 44.2889 43.1015 43.4288L43.0151 43.2914L42.8639 43.3313C42.0432 43.5574 41.6329 44.147 41.2658 44.6657L41.1535 44.8253C39.2314 47.5164 37.8449 50.469 36.359 53.7719C36.1085 54.326 35.8623 54.96 36.0653 55.5186C36.1776 55.8289 36.4195 56.0728 36.7823 56.2413V56.2501Z" fill="#284B66"/>
<path d="M126.18 54.9415C126.456 55.5577 126.836 56.4 127.644 56.4C127.834 56.4 128.037 56.3513 128.245 56.2537C128.612 56.0853 128.854 55.8459 128.97 55.5311C129.165 54.9991 128.944 54.3784 128.677 53.7888L128.638 53.709C127.273 50.6987 125.86 47.5865 123.878 44.8511C123.817 44.7668 123.757 44.6782 123.696 44.5851C123.355 44.0708 122.971 43.49 122.029 43.4235L121.878 43.4147L121.817 43.5565C121.446 44.4299 121.77 45.1171 122.055 45.7245C122.098 45.8176 122.146 45.9151 122.185 46.0082C123.273 48.4909 124.405 51.0046 125.502 53.4341L126.176 54.9326L126.18 54.9415Z" fill="#284B66"/>
<path d="M36.8386 47.2053C36.8645 46.2832 36.3419 45.7334 35.3744 45.6581H35.3485H35.3225C34.2989 45.8265 33.733 46.4517 33.7201 47.4181C33.7158 47.8792 33.8497 48.2649 34.1088 48.5309C34.3637 48.7925 34.7265 48.9344 35.1541 48.9344C35.1886 48.9344 35.2275 48.9344 35.2621 48.9344C36.221 48.8856 36.8127 48.2383 36.8386 47.2053Z" fill="#284B66"/>
<path d="M129.894 48.9391C130.711 48.9391 131.216 48.4293 131.32 47.4761C131.289 46.452 130.732 45.8003 129.791 45.6894C129.713 45.6806 129.639 45.6761 129.566 45.6761C128.737 45.6761 128.188 46.248 128.175 47.1303C128.158 48.1455 128.737 48.8371 129.691 48.9302C129.76 48.9391 129.829 48.9391 129.894 48.9391Z" fill="#284B66"/>
<path d="M117.143 53.0313C117.001 52.6367 116.837 52.1889 116.694 51.719C116.262 53.3062 115.247 54.5919 113.696 55.5938C112.37 56.4539 110.859 56.8307 109.364 57.2297C108.405 57.4869 107.857 58.0277 107.49 59.0075C106.591 61.3926 105.796 63.831 104.423 66.0078C100.544 72.1569 95.1666 76.3287 88.4155 78.6429C86.2558 79.3833 84.0357 80.2877 81.7076 79.8399C71.0475 77.7917 62.9833 72.1835 58.8195 61.6587C57.7526 58.9587 56.5907 57.008 53.5024 56.4494C50.9497 55.9884 49.1701 54.1263 48.4704 51.4752C48.4359 51.3466 48.4143 51.218 48.384 51.0895C47.8225 52.322 47.6584 53.7362 47.248 55.044C47.883 55.944 48.7253 56.7952 49.7964 57.5223C51.2434 58.5021 52.8632 59.0607 54.5261 59.4464C55.4375 59.6592 55.8349 60.0892 56.1027 60.9892C56.8326 63.4364 57.6619 65.8349 59.0873 68.0073C63.2252 74.3115 68.8447 78.6296 75.8333 81.0236C78.9778 82.101 82.1266 83.1206 85.6382 82.1719C89.4521 81.1433 93.0631 79.6803 96.389 77.6365C102.073 74.143 106.341 69.2708 108.505 62.7626C109.166 60.7764 109.818 59.1893 112.154 58.9986C112.867 58.941 113.567 58.5243 114.236 58.1962C115.796 57.4248 117.035 56.3475 117.925 55.0529C117.597 54.379 117.364 53.6387 117.143 53.0313Z" fill="#284B66"/>
<path d="M53.0533 46.1014C53.7443 46.3408 54.5866 46.8196 55.0185 45.8709C55.0704 45.7556 55.1049 45.6448 55.1265 45.5428C55.3123 46.9172 55.4937 48.296 55.7356 49.6615C55.8911 50.5526 56.3143 51.4969 57.459 51.222C58.6252 50.9427 58.4395 49.9718 58.2408 49.0585C57.8002 47.0502 57.4331 45.0241 56.9709 43.0247C56.9018 42.7188 56.8456 42.3375 56.7031 42.0405C56.8111 41.8543 56.8759 41.6371 56.8802 41.4065C56.932 39.0923 56.8888 36.7692 57.2473 34.4771C57.8434 30.6245 59.2515 26.9094 61.8604 24.0587C64.1669 21.5405 67.3804 19.6785 70.7884 19.479C71.9244 19.4125 71.9114 17.7633 70.7884 17.6791C68.5251 17.5106 66.3395 18.0071 64.3008 19.0047C60.5862 20.8179 57.8088 24.2405 56.2236 28.0798C54.4786 32.3004 53.8653 37.2081 54.5045 41.7434C54.5477 42.0671 54.7637 42.3109 55.0358 42.4617C54.9926 42.7543 55.0013 43.0779 54.9883 43.3705C54.9797 43.5478 54.9883 43.7252 54.9883 43.8981C54.9624 43.8981 54.9408 43.9069 54.9149 43.9114C54.9581 44.2217 55.0013 44.532 55.0401 44.8424C54.8155 44.4212 54.3102 44.133 53.8696 43.8715C53.4679 43.6365 52.9798 43.4902 52.5177 43.437C50.8979 43.2508 49.5373 43.4813 48.4705 44.1463C48.8894 44.8911 49.2868 45.6448 49.6324 46.4339C50.6172 45.6226 51.8223 45.6758 53.0619 46.1059L53.0533 46.1014Z" fill="#284B66"/>
<path d="M82.2643 52.7027C82.5969 52.0111 82.6876 51.3771 82.5105 50.9648C82.3766 50.6589 82.1088 50.4683 81.7849 50.455C81.4523 50.455 81.3141 50.6944 81.1932 50.9027L80.6964 51.7451C80.5582 51.98 80.42 52.2194 80.2904 52.4589C80.1867 52.6539 80.0874 52.8578 79.9924 53.0573C79.9103 53.2258 79.8282 53.3987 79.7419 53.5628L79.7203 53.6026C79.5432 53.9396 79.3618 54.2898 79.297 54.6933C79.2019 55.2785 79.3747 55.8637 79.7807 56.3425C80.2256 56.8701 80.8778 57.0873 81.3443 57.1759C81.651 57.2336 81.962 57.2469 82.2643 57.2602H82.3594C82.4371 57.269 82.5149 57.2691 82.5969 57.2691C82.9727 57.2691 83.2664 57.2203 83.5169 57.1227C83.9532 56.9498 84.1692 56.7016 84.1001 56.4356C84.0525 56.2848 83.897 56.1696 83.7243 56.0588L83.6854 56.0322C83.5126 55.9169 83.3355 55.8238 83.18 55.7528C83.0677 55.6996 82.9511 55.6553 82.8345 55.6154C82.6833 55.5622 82.5408 55.509 82.4069 55.4336C82.1736 55.3006 81.9749 55.11 81.8367 54.8839C81.7244 54.7066 81.6683 54.5337 81.6596 54.3696C81.651 54.0903 81.7849 53.8066 81.9058 53.5583C82.0354 53.2968 82.152 53.013 82.2643 52.7027Z" fill="#284B66"/>
<path d="M69.4583 44.1469C68.4347 44.1469 67.5449 44.5991 67.1302 45.3262C66.8451 45.8316 66.6508 46.6961 67.3678 47.9463L67.4023 48.0039L67.4585 48.0438C68.0891 48.4827 68.8104 48.7266 69.4843 48.7266C70.8232 48.7266 71.7735 47.8089 72.0283 46.2705L72.0413 46.1951L71.713 45.2331L71.6914 45.1976C71.2422 44.537 70.4086 44.1425 69.4627 44.1425L69.4583 44.1469Z" fill="#284B66"/>
<path d="M95.771 44.1464C94.8251 44.1464 93.9958 44.5409 93.5422 45.2015L93.5206 45.237L93.1924 46.199L93.2053 46.2744C93.4602 47.8128 94.4104 48.7305 95.7494 48.7305C96.4276 48.7305 97.1446 48.4866 97.7752 48.0477L97.8313 48.0078L97.8659 47.9502C98.5829 46.6955 98.3885 45.831 98.1034 45.3301C97.6888 44.603 96.7947 44.1508 95.7753 44.1508L95.771 44.1464Z" fill="#284B66"/>
<path d="M72.5987 36.4014C71.9378 35.8029 71.2899 36.2905 70.7587 36.7472C70.128 37.2925 69.3765 37.687 68.5817 37.9043C67.5969 38.1747 66.5646 37.8378 65.623 38.1126C65.0788 38.2722 64.8282 39.119 65.204 39.5535C65.7094 40.1387 66.5301 40.3249 67.2687 40.3737C67.9122 40.4136 68.5472 40.3737 69.1735 40.2274C70.5729 39.9037 71.778 39.2032 72.7715 38.1437C73.238 37.6427 73.0479 36.8137 72.5901 36.4014H72.5987Z" fill="#284B66"/>
<path d="M99.5382 38.1831C98.6009 37.8905 97.5686 38.2097 96.5838 37.9215C95.7934 37.6865 95.0461 37.2787 94.4285 36.7245C93.9058 36.2546 93.2666 35.758 92.5971 36.3432C92.1349 36.7467 91.9276 37.5757 92.3854 38.0855C93.3616 39.1673 94.5537 39.89 95.9445 40.2402C96.5708 40.3954 97.2058 40.453 97.8494 40.4219C98.588 40.3865 99.4129 40.2136 99.9313 39.6417C100.32 39.2116 100.078 38.3604 99.5382 38.192V38.1831Z" fill="#284B66"/>
<path d="M78.9391 72.1826C80.1788 72.3378 81.4271 72.3954 82.5242 72.4841C83.699 72.4087 84.7227 72.3556 85.7421 72.2669C86.8867 72.1693 88.0831 72.1029 88.541 70.7507C89.0463 69.2611 88.7094 67.931 87.7073 66.7429C86.4375 65.2355 84.619 64.9252 82.8999 64.9208C79.6777 64.9208 77.4144 65.7587 76.5937 68.5074C76.002 70.498 76.9047 71.9255 78.9348 72.1826H78.9391ZM81.3493 67.2793C84.9084 66.9779 86.0833 67.5054 86.8953 69.9438C84.0014 70.3517 81.2586 70.2985 78.3085 69.9837C78.7361 68.166 79.7814 67.4123 81.3493 67.2793Z" fill="#284B66"/>
<path d="M69.415 8.95428C71.8208 3.55443 78.4942 2.59238 83.6428 2.73868C88.9642 2.88942 94.0481 4.57854 98.5661 7.43806C99.6329 8.11194 100.713 8.82127 101.775 9.56608C101.84 9.13161 101.974 8.71045 102.216 8.32918C102.497 7.88584 102.851 7.54003 103.261 7.28733C101.387 5.92185 99.4472 4.63173 97.3999 3.56772C92.2987 0.912129 86.4849 -0.33808 80.7748 0.0786569C77.9197 0.287026 75.0301 0.867798 72.5465 2.39288C70.3566 3.73619 68.5857 5.73565 67.7736 8.2405C67.454 9.23358 69.0003 9.90746 69.4236 8.95428H69.415Z" fill="#284B66"/>
<path d="M63.5401 10.9007C64.2139 10.6923 64.9137 10.5372 65.6436 10.4662C66.758 10.3554 66.6371 8.71063 65.54 8.70176C64.8402 8.69733 64.1535 8.75939 63.4753 8.87909C63.4753 8.93229 63.484 8.9855 63.484 9.03426C63.484 9.65494 63.5229 10.2756 63.5445 10.8963L63.5401 10.9007Z" fill="#284B66"/>
<path d="M88.2551 16.3795C87.3653 16.8051 88.0132 18.2061 88.903 17.9578C91.3736 17.2662 93.9998 17.3682 96.4316 18.175C100.686 19.5893 103.874 23.0119 105.848 27.0418C106.919 29.2319 107.601 31.617 108.033 34.0288C108.267 35.3278 108.418 36.6401 108.513 37.9568C108.56 38.6439 108.586 39.3311 108.629 40.0183C108.677 40.7542 108.789 41.4192 109.001 42.1197C108.94 42.2572 108.897 42.4123 108.863 42.5586C108.327 44.9659 107.796 47.3777 107.321 49.7939C107.182 50.4988 107.506 51.1062 108.271 51.248C109.126 51.4076 109.601 50.8535 109.817 50.1264C110.197 48.854 110.366 47.5462 110.487 46.2959C111.005 46.757 111.882 46.1541 112.534 45.99C113.726 45.6886 114.75 45.8393 115.51 46.3713C115.989 45.6176 116.564 44.9704 117.199 44.3896C116.732 44.0261 116.201 43.7512 115.635 43.5606C115.894 43.0995 116.106 42.6207 116.283 42.1286C116.102 41.8981 115.959 41.6409 115.864 41.3616C115.856 41.3394 115.851 41.3217 115.847 41.304C115.838 41.2907 115.834 41.2818 115.825 41.2685C115.748 41.1399 115.683 41.0069 115.605 40.8784C115.562 40.8074 115.514 40.7409 115.488 40.7055C115.415 40.6168 115.342 40.5326 115.264 40.4483C115.156 40.3375 115.044 40.2355 114.931 40.1291C115.259 40.4439 114.871 40.1114 114.789 40.0537C114.771 40.0404 114.758 40.0316 114.741 40.0227C114.616 39.9828 114.491 39.9474 114.357 39.9208C114.283 39.9075 114.214 39.8897 114.145 39.8631C113.899 40.803 113.605 41.7252 113.411 42.6828C113.368 42.9044 113.381 43.1128 113.432 43.299C113.018 43.33 112.59 43.4009 112.158 43.5207C111.67 43.6581 111.104 43.8532 110.69 44.1679C110.69 44.1458 110.694 44.1192 110.698 44.097C110.698 43.5029 110.716 43.1482 110.698 42.798C110.698 42.7404 110.69 42.6828 110.681 42.6251C110.806 42.5054 110.906 42.3503 110.966 42.1552C111.45 40.5237 111.273 38.8169 111.122 37.1366C110.97 35.4431 110.733 33.7539 110.37 32.0958C109.256 27.0152 106.815 22.001 102.768 18.7292C98.7035 15.4485 93.0841 14.0697 88.2508 16.384L88.2551 16.3795Z" fill="#284B66"/>
<path d="M87.2147 14.332C88.1045 14.1059 88.9209 14.1192 89.7286 13.7911C90.1691 13.6137 90.5104 13.2547 90.5104 12.7359C90.5104 12.2571 90.1778 11.8094 89.7286 11.6808C88.7179 11.3971 87.5689 11.6719 86.5798 11.9645C85.6339 12.2438 84.7138 12.634 83.8457 13.1128C82.105 14.066 80.6364 15.4625 79.5177 17.1294C78.9476 17.9762 80.2261 18.9471 80.8869 18.2156C82.0402 16.9388 83.4051 15.928 84.9255 15.1654C85.6425 14.8063 86.407 14.5315 87.2104 14.332H87.2147Z" fill="#284B66"/>
<path d="M73.415 18.4549C73.8901 18.7387 74.43 18.5347 74.7281 18.1002C74.8533 17.9185 74.9829 17.7367 75.1125 17.5594C75.1773 17.4707 75.3025 17.3111 75.4451 17.116C75.471 17.0806 75.4882 17.054 75.5012 17.0407C75.5142 17.0274 75.5228 17.0141 75.5444 16.9875C75.6006 16.9165 75.6567 16.8456 75.7129 16.7747C75.8381 16.6195 75.9677 16.4643 76.0973 16.3136C76.5983 15.7328 77.1382 15.1787 77.6954 14.6511C77.9891 14.3762 78.2915 14.1102 78.6025 13.8531C78.6241 13.8353 78.637 13.822 78.65 13.8132C78.65 13.8132 78.65 13.8132 78.6543 13.8087C78.7277 13.7511 78.7968 13.6979 78.8703 13.6403C79.0301 13.5206 79.1899 13.4009 79.354 13.2856C80.0451 12.8024 80.8053 12.4034 81.3798 11.7738C81.721 11.4014 81.7772 10.8783 81.5483 10.4305C81.3107 9.96944 80.7881 9.84088 80.3302 9.92068C79.4447 10.0714 78.6716 10.6433 77.9719 11.1886C77.2808 11.7251 76.6199 12.2881 76.0022 12.9132C74.8058 14.128 73.7994 15.5555 73.0651 17.1116C72.8405 17.5904 72.9312 18.1712 73.4107 18.4594L73.415 18.4549Z" fill="#284B66"/>
<path d="M28.512 27.3084C28.3521 27.1976 25.9808 25.0962 23.1258 25.5395C20.2707 25.9828 19.139 26.0937 18.5473 27.2552C17.9555 28.4168 17.0917 29.2458 18.4393 30.1325C19.7869 31.0191 19.463 30.9083 21.5665 31.0191C23.67 31.13 27.7086 31.294 27.7086 31.294L28.5163 27.3128L28.512 27.3084Z" fill="white"/>
<path d="M23.4021 24.001C22.0026 24.0055 20.4995 24.4311 19.0612 25.2335C17.355 26.1867 16.4696 27.8492 16.8151 29.4541C17.1348 30.9304 18.5861 32.0077 20.5557 32.1274C22.0717 32.2161 23.5965 32.1407 25.1082 32.2604C25.9721 32.3269 26.8187 32.6594 27.7085 32.4821C28.2397 32.3757 28.771 32.1939 28.8747 31.5688C28.987 30.9126 28.4946 30.62 27.9979 30.4028C26.6459 29.8132 25.2594 29.3787 23.7649 29.4097C22.7153 29.4319 21.6614 29.4097 20.6118 29.3831C20.1928 29.3743 19.7523 29.2634 19.6011 28.8201C19.411 28.2615 19.8214 27.9379 20.2274 27.6852C20.5254 27.499 20.8537 27.3659 21.169 27.2108C23.6613 25.9739 25.8166 27.1044 27.9849 28.1994C28.4859 28.4521 29.069 28.9309 29.5614 28.3102C30.0754 27.663 29.6522 27.0379 29.1857 26.5812C27.5746 25.0118 25.6913 24.0232 23.4064 23.9966L23.4021 24.001Z" fill="#284B66"/>
<path d="M36.5418 12.3236C36.5418 12.3236 33.7947 7.67748 32.1793 6.84843C30.5639 6.01939 29.3242 5.52285 28.7843 6.90163C28.2444 8.28041 27.3848 8.61734 29.1082 10.2178C30.8317 11.8227 32.3952 12.5941 32.7192 13.2591C33.0431 13.9241 33.5269 14.199 33.5269 14.199L36.5461 12.3192L36.5418 12.3236Z" fill="white"/>
<path d="M33.1504 5.68212C32.4378 5.09248 31.6041 4.86637 30.6971 4.86194C29.1551 4.86637 27.9241 5.51808 27.3107 6.95893C26.6153 8.59041 26.9911 10.0889 28.2351 11.3746C29.3106 12.4873 30.8612 12.9395 31.8546 14.172C32.4032 14.8503 33.172 15.3646 33.9668 14.6375C34.6881 13.977 34.1914 13.2233 33.7983 12.545C33.0381 11.2416 31.656 10.745 30.5373 9.90269C29.9066 9.42831 29.2544 8.80764 29.8375 7.97416C30.4811 7.06089 31.2888 7.50423 31.9756 8.0451C33.483 9.23324 34.5024 10.8337 35.5693 12.3987C35.945 12.9484 36.1265 14.1454 37.1501 13.5558C38.0356 13.0459 37.69 12.0839 37.3747 11.3036C36.4634 9.05148 34.9948 7.22049 33.1548 5.69098L33.1504 5.68212Z" fill="#284B66"/>
<path d="M128.405 11.0062C128.435 10.8156 128.56 9.06885 130.387 7.73441C132.214 6.39996 132.802 5.66845 134.594 5.82805C136.391 5.98765 138.153 5.95661 138.369 7.54376C138.585 9.13091 138.43 9.95996 137.501 10.5319C136.573 11.1038 135.519 11.6446 133.942 11.8973C132.366 12.15 132.331 12.5623 131.001 12.3717C129.67 12.1811 128.4 11.0062 128.4 11.0062H128.405Z" fill="white"/>
<path d="M136.72 11.7828C138.491 11.1622 139.26 9.89866 139.039 8.26717C138.733 5.98842 136.456 4.3392 134.124 4.87121C131.342 5.50518 129.351 7.31844 127.9 9.73906C127.528 10.3597 127.079 11.2907 127.969 11.7917C128.785 12.2528 128.954 11.2198 129.351 10.7898C130.798 9.21149 132.288 7.67754 134.461 7.20317C135.476 6.9815 136.452 7.34503 136.664 8.44451C136.867 9.49078 135.839 9.53069 135.139 9.77896C133.986 10.1913 132.746 10.4041 131.77 11.2375C131.247 11.6853 130.841 12.2484 131.2 12.9444C131.55 13.6271 132.223 13.4587 132.755 13.2104C134.038 12.603 135.394 12.2483 136.72 11.7828Z" fill="#284B66"/>
<path d="M133.553 24.0229C133.553 24.0229 135.673 22.9943 137.682 23.1849C139.69 23.3756 141.772 23.3357 142.481 25.2465C143.189 27.1528 144.005 27.7646 142.779 28.5671C141.552 29.3695 139.988 29.0237 138.243 28.6823C136.494 28.341 134.784 27.9952 133.967 27.4587C133.151 26.9223 133.557 24.0229 133.557 24.0229H133.553Z" fill="white"/>
<path d="M143.155 24.2626C142.05 23.1453 140.788 22.3562 139.518 21.9749C137.432 21.3853 135.467 21.7799 133.601 22.7774C133.061 23.0655 132.517 23.5266 132.819 24.2493C133.109 24.9453 133.761 24.666 134.283 24.5685C136.534 24.1517 138.784 23.6995 140.736 25.495C140.983 25.7211 141.25 25.9295 141.471 26.1778C141.777 26.5191 142.067 26.9181 141.752 27.3792C141.501 27.7428 141.073 27.725 140.689 27.623C139.726 27.3615 138.763 27.1043 137.812 26.8029C136.456 26.3728 135.087 26.3994 133.705 26.5723C133.199 26.6344 132.677 26.7718 132.612 27.3969C132.547 27.991 132.988 28.3014 133.441 28.5408C134.201 28.9398 135.057 28.8644 135.864 29.0329C137.272 29.3299 138.642 29.8087 140.041 30.1323C141.864 30.5535 143.458 29.9639 144.127 28.7048C144.853 27.3349 144.468 25.5881 143.16 24.2626H143.155Z" fill="#284B66"/>
</svg>
