<svg width="100" height="101" viewBox="0 0 100 101" fill="none" xmlns="http://www.w3.org/2000/svg">
<path d="M62.0905 100.014C82.7562 100.014 99.5091 83.2616 99.5091 62.5959C99.5091 41.9301 82.7562 25.1772 62.0905 25.1772C41.4248 25.1772 24.6719 41.9301 24.6719 62.5959C24.6719 83.2616 41.4248 100.014 62.0905 100.014Z" fill="#F7EF90"/>
<path d="M68.7269 20.772C73.3568 22.5959 77.6922 25.3809 81.4312 29.1199C96.0437 43.7324 96.0437 67.4295 81.4312 82.0419C66.8188 96.6544 43.1217 96.6544 28.5092 82.0419C22.1956 75.7283 18.6109 67.7171 17.748 59.4814" stroke="#7A7173" stroke-width="2.10453" stroke-linecap="round" stroke-linejoin="round"/>
<path d="M59.2567 42.8413L53.8378 71.3931H50.4696L55.119 46.9546L55.2509 46.2583L54.6171 46.5757L50.1796 48.7974L49.8094 46.0874L56.3309 42.8413H59.2567Z" fill="#7A7173" stroke="#7A7173" stroke-width="0.701511"/>
<mask id="path-4-outside-1_4_475" maskUnits="userSpaceOnUse" x="10.3582" y="35.4707" width="17.4369" height="17.9666" fill="black">
<rect fill="white" x="10.3582" y="35.4707" width="17.4369" height="17.9666"/>
<path d="M23.353 48.4557L11.6145 47.5059L12.9883 44.2694L18.255 45.0327C18.8176 45.115 19.3896 45.2085 19.9712 45.313C20.5578 45.4056 21.1505 45.5007 21.7492 45.5984L21.7876 45.5079C21.3014 45.1451 20.8188 44.7908 20.3396 44.4452C19.8655 44.0874 19.4009 43.7409 18.9458 43.4054L14.7459 40.1289L16.0583 37.0371L24.9341 44.7311L23.353 48.4557Z"/>
</mask>
<path d="M23.353 48.4557L11.6145 47.5059L12.9883 44.2694L18.255 45.0327C18.8176 45.115 19.3896 45.2085 19.9712 45.313C20.5578 45.4056 21.1505 45.5007 21.7492 45.5984L21.7876 45.5079C21.3014 45.1451 20.8188 44.7908 20.3396 44.4452C19.8655 44.0874 19.4009 43.7409 18.9458 43.4054L14.7459 40.1289L16.0583 37.0371L24.9341 44.7311L23.353 48.4557Z" fill="#7A7173"/>
<path d="M23.353 48.4557L23.2964 49.1549L23.801 49.1957L23.9987 48.7298L23.353 48.4557ZM11.6145 47.5059L10.9687 47.2317L10.5888 48.1267L11.5579 48.2051L11.6145 47.5059ZM12.9883 44.2694L13.0889 43.5751L12.5538 43.4976L12.3426 43.9953L12.9883 44.2694ZM18.255 45.0327L18.3566 44.3386L18.3556 44.3384L18.255 45.0327ZM19.9712 45.313L19.847 46.0035L19.8544 46.0048L19.8618 46.006L19.9712 45.313ZM21.7492 45.5984L21.6363 46.2907L22.1798 46.3794L22.3949 45.8725L21.7492 45.5984ZM21.7876 45.5079L22.4333 45.7821L22.6485 45.2752L22.2072 44.9458L21.7876 45.5079ZM20.3396 44.4452L19.917 45.0052L19.923 45.0097L19.9292 45.0141L20.3396 44.4452ZM18.9458 43.4054L18.5143 43.9585L18.5218 43.9644L18.5296 43.9701L18.9458 43.4054ZM14.7459 40.1289L14.1001 39.8548L13.8897 40.3507L14.3144 40.682L14.7459 40.1289ZM16.0583 37.0371L16.5178 36.507L15.7893 35.8755L15.4126 36.763L16.0583 37.0371ZM24.9341 44.7311L25.5798 45.0052L25.7792 44.5353L25.3936 44.201L24.9341 44.7311ZM23.353 48.4557L23.4096 47.7565L11.671 46.8066L11.6145 47.5059L11.5579 48.2051L23.2964 49.1549L23.353 48.4557ZM11.6145 47.5059L12.2602 47.78L13.634 44.5435L12.9883 44.2694L12.3426 43.9953L10.9687 47.2317L11.6145 47.5059ZM12.9883 44.2694L12.8877 44.9637L18.1544 45.7269L18.255 45.0327L18.3556 44.3384L13.0889 43.5751L12.9883 44.2694ZM18.255 45.0327L18.1535 45.7268C18.7082 45.808 19.2727 45.9002 19.847 46.0035L19.9712 45.313L20.0953 44.6226C19.5066 44.5167 18.927 44.422 18.3566 44.3386L18.255 45.0327ZM19.9712 45.313L19.8618 46.006C20.4473 46.0983 21.0387 46.1932 21.6363 46.2907L21.7492 45.5984L21.8621 44.906C21.2622 44.8081 20.6684 44.7128 20.0805 44.6201L19.9712 45.313ZM21.7492 45.5984L22.3949 45.8725L22.4333 45.7821L21.7876 45.5079L21.1418 45.2338L21.1035 45.3242L21.7492 45.5984ZM21.7876 45.5079L22.2072 44.9458C21.7181 44.5807 21.2323 44.2242 20.75 43.8762L20.3396 44.4452L19.9292 45.0141C20.4052 45.3575 20.8848 45.7095 21.368 46.0701L21.7876 45.5079ZM20.3396 44.4452L20.7621 43.8852C20.286 43.526 19.8193 43.1778 19.362 42.8407L18.9458 43.4054L18.5296 43.9701C18.9824 44.3039 19.4449 44.6489 19.917 45.0052L20.3396 44.4452ZM18.9458 43.4054L19.3773 42.8523L15.1774 39.5758L14.7459 40.1289L14.3144 40.682L18.5143 43.9585L18.9458 43.4054ZM14.7459 40.1289L15.3916 40.403L16.7041 37.3112L16.0583 37.0371L15.4126 36.763L14.1001 39.8548L14.7459 40.1289ZM16.0583 37.0371L15.5988 37.5672L24.4746 45.2611L24.9341 44.7311L25.3936 44.201L16.5178 36.507L16.0583 37.0371ZM24.9341 44.7311L24.2883 44.457L22.7073 48.1816L23.353 48.4557L23.9987 48.7298L25.5798 45.0052L24.9341 44.7311Z" fill="#7A7173" mask="url(#path-4-outside-1_4_475)"/>
<mask id="path-6-outside-2_4_475" maskUnits="userSpaceOnUse" x="16.3032" y="23.5814" width="19.1048" height="19.0585" fill="black">
<rect fill="white" x="16.3032" y="23.5814" width="19.1048" height="19.0585"/>
<path d="M30.2755 37.571C29.631 38.2591 28.8551 38.7524 27.9477 39.0508C27.0307 39.3402 26.073 39.3762 25.0746 39.1588C24.0851 38.9318 23.1412 38.3976 22.2428 37.5561C21.3444 36.7147 20.7543 35.8122 20.4726 34.8487C20.1903 33.8666 20.1684 32.9131 20.4067 31.9881C20.6356 31.0542 21.0722 30.2431 21.7167 29.555C22.2001 29.0389 22.7611 28.6314 23.3999 28.3325C24.0386 28.0337 24.7189 27.8724 25.4407 27.8488C26.153 27.8162 26.875 27.9362 27.6065 28.2087C28.3381 28.4812 29.0431 28.9352 29.7217 29.5708C30.6201 30.4122 31.2105 31.3239 31.4928 32.306C31.784 33.2785 31.8153 34.2317 31.5864 35.1656C31.357 36.0811 30.92 36.8828 30.2755 37.571ZM28.2111 35.6375C28.5065 35.3221 28.6574 34.979 28.6638 34.6082C28.6791 34.2279 28.5643 33.8332 28.3193 33.4244C28.0743 33.0155 27.7272 32.6007 27.278 32.18C26.8288 31.7593 26.3969 31.4445 25.9825 31.2357C25.5584 31.018 25.1571 30.9292 24.7786 30.9694C24.409 31.0001 24.0766 31.1731 23.7812 31.4885C23.4858 31.8039 23.3304 32.1518 23.3151 32.5321C23.3087 32.9029 23.4235 33.2975 23.6596 33.7159C23.895 34.1159 24.2373 34.5262 24.6865 34.9469C25.1357 35.3676 25.5724 35.6868 25.9964 35.9046C26.4294 36.1127 26.8306 36.2015 27.2002 36.1709C27.5787 36.1307 27.9157 35.9529 28.2111 35.6375Z"/>
</mask>
<path d="M30.2755 37.571C29.631 38.2591 28.8551 38.7524 27.9477 39.0508C27.0307 39.3402 26.073 39.3762 25.0746 39.1588C24.0851 38.9318 23.1412 38.3976 22.2428 37.5561C21.3444 36.7147 20.7543 35.8122 20.4726 34.8487C20.1903 33.8666 20.1684 32.9131 20.4067 31.9881C20.6356 31.0542 21.0722 30.2431 21.7167 29.555C22.2001 29.0389 22.7611 28.6314 23.3999 28.3325C24.0386 28.0337 24.7189 27.8724 25.4407 27.8488C26.153 27.8162 26.875 27.9362 27.6065 28.2087C28.3381 28.4812 29.0431 28.9352 29.7217 29.5708C30.6201 30.4122 31.2105 31.3239 31.4928 32.306C31.784 33.2785 31.8153 34.2317 31.5864 35.1656C31.357 36.0811 30.92 36.8828 30.2755 37.571ZM28.2111 35.6375C28.5065 35.3221 28.6574 34.979 28.6638 34.6082C28.6791 34.2279 28.5643 33.8332 28.3193 33.4244C28.0743 33.0155 27.7272 32.6007 27.278 32.18C26.8288 31.7593 26.3969 31.4445 25.9825 31.2357C25.5584 31.018 25.1571 30.9292 24.7786 30.9694C24.409 31.0001 24.0766 31.1731 23.7812 31.4885C23.4858 31.8039 23.3304 32.1518 23.3151 32.5321C23.3087 32.9029 23.4235 33.2975 23.6596 33.7159C23.895 34.1159 24.2373 34.5262 24.6865 34.9469C25.1357 35.3676 25.5724 35.6868 25.9964 35.9046C26.4294 36.1127 26.8306 36.2015 27.2002 36.1709C27.5787 36.1307 27.9157 35.9529 28.2111 35.6375Z" fill="#7A7173"/>
<path d="M27.9477 39.0508L28.1588 39.7198L28.1668 39.7172L27.9477 39.0508ZM25.0746 39.1588L24.9177 39.8426L24.9253 39.8442L25.0746 39.1588ZM20.4726 34.8487L19.7984 35.0425L19.7993 35.0455L20.4726 34.8487ZM20.4067 31.9881L21.0861 32.1632L21.0881 32.155L20.4067 31.9881ZM23.3999 28.3325L23.6972 28.9679V28.9679L23.3999 28.3325ZM25.4407 27.8488L25.4637 28.55L25.4728 28.5496L25.4407 27.8488ZM31.4928 32.306L30.8185 32.4998L30.8208 32.5072L31.4928 32.306ZM31.5864 35.1656L32.2669 35.3362L32.2678 35.3326L31.5864 35.1656ZM28.6638 34.6082L27.9628 34.5799L27.9625 34.588L27.9624 34.5961L28.6638 34.6082ZM28.3193 33.4244L28.921 33.0638V33.0638L28.3193 33.4244ZM25.9825 31.2357L25.662 31.8598L25.6669 31.8623L25.9825 31.2357ZM24.7786 30.9694L24.8366 31.6686L24.8446 31.6679L24.8527 31.667L24.7786 30.9694ZM23.3151 32.5321L22.6141 32.5038L22.6138 32.5119L22.6137 32.52L23.3151 32.5321ZM23.6596 33.7159L23.0485 34.0607L23.055 34.0718L23.6596 33.7159ZM25.9964 35.9046L25.676 36.5286L25.6841 36.5328L25.6924 36.5368L25.9964 35.9046ZM27.2002 36.1709L27.2582 36.87L27.2662 36.8693L27.2743 36.8685L27.2002 36.1709ZM30.2755 37.571L29.7635 37.0914C29.2005 37.6926 28.5257 38.1222 27.7285 38.3844L27.9477 39.0508L28.1668 39.7172C29.1844 39.3826 30.0615 38.8257 30.7876 38.0505L30.2755 37.571ZM27.9477 39.0508L27.7365 38.3818C26.9436 38.6321 26.1105 38.6664 25.2239 38.4733L25.0746 39.1588L24.9253 39.8442C26.0355 40.086 27.1179 40.0483 28.1588 39.7198L27.9477 39.0508ZM25.0746 39.1588L25.2315 38.475C24.3861 38.2811 23.5494 37.8188 22.7223 37.0441L22.2428 37.5561L21.7632 38.0681C22.7329 38.9763 23.7841 39.5825 24.9177 39.8425L25.0746 39.1588ZM22.2428 37.5561L22.7223 37.0441C21.8949 36.2692 21.3852 35.4703 21.1459 34.6518L20.4726 34.8487L19.7993 35.0455C20.1234 36.1541 20.7938 37.1602 21.7632 38.0681L22.2428 37.5561ZM20.4726 34.8487L21.1468 34.6548C20.8966 33.7844 20.8811 32.9585 21.0861 32.1632L20.4067 31.9881L19.7274 31.813C19.4556 32.8677 19.484 33.9488 19.7984 35.0425L20.4726 34.8487ZM20.4067 31.9881L21.0881 32.155C21.2888 31.3357 21.6683 30.6329 22.2287 30.0345L21.7167 29.555L21.2047 29.0754C20.4762 29.8533 19.9823 30.7726 19.7254 31.8212L20.4067 31.9881ZM21.7167 29.555L22.2287 30.0345C22.6513 29.5834 23.1395 29.2289 23.6972 28.9679L23.3999 28.3325L23.1026 27.6971C22.3828 28.0339 21.7489 28.4944 21.2047 29.0754L21.7167 29.555ZM23.3999 28.3325L23.6972 28.9679C24.2477 28.7103 24.8344 28.5705 25.4637 28.5499L25.4407 27.8488L25.4178 27.1477C24.6033 27.1743 23.8295 27.357 23.1026 27.6971L23.3999 28.3325ZM25.4407 27.8488L25.4728 28.5496C26.0822 28.5217 26.7101 28.6234 27.3616 28.8661L27.6065 28.2087L27.8514 27.5513C27.0398 27.249 26.2239 27.1107 25.4087 27.148L25.4407 27.8488ZM27.6065 28.2087L27.3616 28.8661C27.9911 29.1006 28.6187 29.4988 29.2422 30.0828L29.7217 29.5708L30.2013 29.0587C29.4676 28.3716 28.685 27.8618 27.8514 27.5513L27.6065 28.2087ZM29.7217 29.5708L29.2422 30.0828C30.0671 30.8554 30.5778 31.6622 30.8186 32.4998L31.4928 32.306L32.167 32.1122C31.8432 30.9857 31.1731 29.969 30.2013 29.0587L29.7217 29.5708ZM31.4928 32.306L30.8208 32.5072C31.0782 33.367 31.1025 34.193 30.9051 34.9987L31.5864 35.1656L32.2678 35.3326C32.528 34.2704 32.4898 33.19 32.1648 32.1047L31.4928 32.306ZM31.5864 35.1656L30.906 34.9951C30.7055 35.795 30.3265 36.4904 29.7635 37.0914L30.2755 37.571L30.7876 38.0505C31.5136 37.2753 32.0085 36.3671 32.2669 35.3362L31.5864 35.1656ZM28.2111 35.6375L28.7231 36.117C29.1165 35.697 29.3553 35.1933 29.3652 34.6203L28.6638 34.6082L27.9624 34.5961C27.9595 34.7647 27.8965 34.9472 27.6991 35.1579L28.2111 35.6375ZM28.6638 34.6082L29.3647 34.6365C29.3868 34.0889 29.2186 33.5603 28.921 33.0638L28.3193 33.4244L27.7175 33.7849C27.91 34.1062 27.9714 34.3669 27.9628 34.5799L28.6638 34.6082ZM28.3193 33.4244L28.921 33.0638C28.6344 32.5855 28.2412 32.121 27.7575 31.668L27.278 32.18L26.7984 32.692C27.2131 33.0804 27.5141 33.4455 27.7175 33.7849L28.3193 33.4244ZM27.278 32.18L27.7575 31.668C27.2743 31.2154 26.7882 30.8561 26.298 30.6092L25.9825 31.2357L25.6669 31.8623C26.0057 32.0329 26.3832 32.3031 26.7984 32.692L27.278 32.18ZM25.9825 31.2357L26.3029 30.6117C25.788 30.3473 25.2495 30.214 24.7046 30.2718L24.7786 30.9694L24.8527 31.667C25.0647 31.6445 25.3289 31.6887 25.662 31.8598L25.9825 31.2357ZM24.7786 30.9694L24.7207 30.2703C24.1495 30.3177 23.6625 30.5889 23.2691 31.0089L23.7812 31.4885L24.2932 31.968C24.4906 31.7573 24.6686 31.6825 24.8366 31.6686L24.7786 30.9694ZM23.7812 31.4885L23.2691 31.0089C22.8752 31.4295 22.6372 31.9325 22.6141 32.5038L23.3151 32.5321L24.016 32.5604C24.0236 32.371 24.0963 32.1782 24.2932 31.968L23.7812 31.4885ZM23.3151 32.5321L22.6137 32.52C22.6046 33.0474 22.7689 33.5648 23.0486 34.0606L23.6596 33.7159L24.2705 33.3713C24.0781 33.0302 24.0128 32.7584 24.0165 32.5442L23.3151 32.5321ZM23.6596 33.7159L23.055 34.0718C23.3335 34.5448 23.7238 35.0063 24.207 35.4589L24.6865 34.9469L25.1661 34.4349C24.7509 34.046 24.4565 33.6869 24.2641 33.36L23.6596 33.7159ZM24.6865 34.9469L24.207 35.4589C24.6907 35.912 25.1799 36.2739 25.676 36.5286L25.9964 35.9046L26.3168 35.2805C25.9648 35.0997 25.5808 34.8233 25.1661 34.4349L24.6865 34.9469ZM25.9964 35.9046L25.6924 36.5368C26.2054 36.7834 26.7325 36.9135 27.2582 36.87L27.2002 36.1709L27.1423 35.4718C26.9287 35.4894 26.6533 35.442 26.3003 35.2723L25.9964 35.9046ZM27.2002 36.1709L27.2743 36.8685C27.8429 36.8081 28.3292 36.5376 28.7231 36.117L28.2111 35.6375L27.6991 35.1579C27.5022 35.3682 27.3146 35.4533 27.1262 35.4733L27.2002 36.1709Z" fill="#7A7173" mask="url(#path-6-outside-2_4_475)"/>
<mask id="path-8-outside-3_4_475" maskUnits="userSpaceOnUse" x="24.3976" y="14.7055" width="15.6159" height="19.0991" fill="black">
<rect fill="white" x="24.3976" y="14.7055" width="15.6159" height="19.0991"/>
<path d="M35.655 32.1838L29.3924 22.9267L32.2883 20.9676L38.5509 30.2247L35.655 32.1838ZM29.9709 20.6619C29.4828 20.9921 29.0006 21.1207 28.5243 21.0476C28.048 20.9746 27.6558 20.7103 27.3476 20.2548C27.0468 19.8101 26.9511 19.3531 27.0605 18.8838C27.1699 18.4146 27.4686 18.0148 27.9567 17.6847C28.4339 17.3618 28.9107 17.2369 29.387 17.3099C29.8741 17.3756 30.2681 17.6308 30.5689 18.0755C30.8771 18.5311 30.9711 18.9971 30.8508 19.4737C30.7414 19.943 30.4481 20.3391 29.9709 20.6619Z"/>
</mask>
<path d="M35.655 32.1838L29.3924 22.9267L32.2883 20.9676L38.5509 30.2247L35.655 32.1838ZM29.9709 20.6619C29.4828 20.9921 29.0006 21.1207 28.5243 21.0476C28.048 20.9746 27.6558 20.7103 27.3476 20.2548C27.0468 19.8101 26.9511 19.3531 27.0605 18.8838C27.1699 18.4146 27.4686 18.0148 27.9567 17.6847C28.4339 17.3618 28.9107 17.2369 29.387 17.3099C29.8741 17.3756 30.2681 17.6308 30.5689 18.0755C30.8771 18.5311 30.9711 18.9971 30.8508 19.4737C30.7414 19.943 30.4481 20.3391 29.9709 20.6619Z" fill="#7A7173"/>
<path d="M35.655 32.1838L35.0739 32.5769L35.467 33.1579L36.048 32.7649L35.655 32.1838ZM29.3924 22.9267L28.9993 22.3457L28.4183 22.7388L28.8114 23.3198L29.3924 22.9267ZM32.2883 20.9676L32.8693 20.5745L32.4763 19.9935L31.8952 20.3866L32.2883 20.9676ZM38.5509 30.2247L38.9439 30.8058L39.525 30.4127L39.1319 29.8316L38.5509 30.2247ZM28.5243 21.0476L28.6307 20.3542L28.6307 20.3542L28.5243 21.0476ZM27.0605 18.8838L26.3773 18.7246L26.3773 18.7246L27.0605 18.8838ZM29.387 17.3099L29.2806 18.0035L29.2932 18.0052L29.387 17.3099ZM30.8508 19.4737L30.1705 19.3021L30.1676 19.3145L30.8508 19.4737ZM35.655 32.1838L36.236 31.7907L29.9734 22.5336L29.3924 22.9267L28.8114 23.3198L35.0739 32.5769L35.655 32.1838ZM29.3924 22.9267L29.7855 23.5078L32.6814 21.5486L32.2883 20.9676L31.8952 20.3866L28.9993 22.3457L29.3924 22.9267ZM32.2883 20.9676L31.7073 21.3607L37.9698 30.6178L38.5509 30.2247L39.1319 29.8316L32.8693 20.5745L32.2883 20.9676ZM38.5509 30.2247L38.1578 29.6437L35.2619 31.6028L35.655 32.1838L36.048 32.7649L38.9439 30.8058L38.5509 30.2247ZM29.9709 20.6619L29.5778 20.0809C29.2018 20.3352 28.8952 20.3948 28.6307 20.3542L28.5243 21.0476L28.418 21.741C29.106 21.8465 29.7638 21.6489 30.3639 21.2429L29.9709 20.6619ZM28.5243 21.0476L28.6307 20.3542C28.3757 20.3151 28.1444 20.1805 27.9287 19.8617L27.3476 20.2548L26.7666 20.6478C27.1672 21.24 27.7204 21.6341 28.418 21.741L28.5243 21.0476ZM27.3476 20.2548L27.9287 19.8617C27.7235 19.5584 27.684 19.2992 27.7437 19.0431L27.0605 18.8838L26.3773 18.7246C26.2182 19.407 26.3701 20.0618 26.7666 20.6478L27.3476 20.2548ZM27.0605 18.8838L27.7437 19.0431C27.8045 18.7825 27.9738 18.5201 28.3498 18.2657L27.9567 17.6847L27.5636 17.1036C26.9635 17.5096 26.5354 18.0467 26.3773 18.7246L27.0605 18.8838ZM27.9567 17.6847L28.3498 18.2657C28.711 18.0213 29.0122 17.9622 29.2806 18.0033L29.387 17.3099L29.4933 16.6165C28.8092 16.5116 28.1569 16.7023 27.5636 17.1036L27.9567 17.6847ZM29.387 17.3099L29.2932 18.0052C29.5627 18.0415 29.7874 18.1723 29.9879 18.4686L30.5689 18.0755L31.15 17.6824C30.7487 17.0894 30.1855 16.7098 29.4807 16.6147L29.387 17.3099ZM30.5689 18.0755L29.9879 18.4686C30.1989 18.7805 30.2359 19.0435 30.1706 19.3021L30.8508 19.4737L31.531 19.6454C31.7063 18.9507 31.5553 18.2816 31.15 17.6824L30.5689 18.0755ZM30.8508 19.4737L30.1676 19.3145C30.1059 19.579 29.939 19.8365 29.5778 20.0809L29.9709 20.6619L30.3639 21.2429C30.9572 20.8416 31.3769 20.307 31.534 19.633L30.8508 19.4737Z" fill="#7A7173" mask="url(#path-8-outside-3_4_475)"/>
<mask id="path-10-outside-4_4_475" maskUnits="userSpaceOnUse" x="34.8756" y="13.3779" width="14.9233" height="16.7971" fill="black">
<rect fill="white" x="34.8756" y="13.3779" width="14.9233" height="16.7971"/>
<path d="M45.158 27.445C44.1662 27.7824 43.1998 27.8692 42.2588 27.7053C41.3135 27.5289 40.4641 27.1056 39.7104 26.4353C38.9691 25.7608 38.4002 24.8408 38.0037 23.6755C37.6072 22.5102 37.5239 21.432 37.7538 20.4409C37.9918 19.4331 38.4585 18.5689 39.1539 17.8481C39.8574 17.1108 40.6989 16.5755 41.6782 16.2423C42.3229 16.023 42.9352 15.9322 43.5152 15.97C44.0909 15.9954 44.6362 16.1142 45.151 16.3263L44.3226 18.9528C44.0195 18.8346 43.7417 18.77 43.489 18.7592C43.2487 18.7441 43.017 18.7745 42.7939 18.8504C42.3104 19.015 41.929 19.2761 41.6496 19.634C41.3702 19.9919 41.2052 20.4215 41.1545 20.9229C41.1119 21.4076 41.1898 21.9413 41.388 22.524C41.5863 23.1067 41.8584 23.5812 42.2044 23.9476C42.5504 24.314 42.9308 24.558 43.3456 24.6797C43.7729 24.7971 44.1973 24.7841 44.6188 24.6407C44.9535 24.5268 45.2526 24.349 45.5161 24.1072C45.7754 23.8529 46.0056 23.5741 46.2066 23.2705L48.23 25.0096C47.8654 25.6455 47.3986 26.1639 46.8296 26.565C46.273 26.9618 45.7158 27.2552 45.158 27.445Z"/>
</mask>
<path d="M45.158 27.445C44.1662 27.7824 43.1998 27.8692 42.2588 27.7053C41.3135 27.5289 40.4641 27.1056 39.7104 26.4353C38.9691 25.7608 38.4002 24.8408 38.0037 23.6755C37.6072 22.5102 37.5239 21.432 37.7538 20.4409C37.9918 19.4331 38.4585 18.5689 39.1539 17.8481C39.8574 17.1108 40.6989 16.5755 41.6782 16.2423C42.3229 16.023 42.9352 15.9322 43.5152 15.97C44.0909 15.9954 44.6362 16.1142 45.151 16.3263L44.3226 18.9528C44.0195 18.8346 43.7417 18.77 43.489 18.7592C43.2487 18.7441 43.017 18.7745 42.7939 18.8504C42.3104 19.015 41.929 19.2761 41.6496 19.634C41.3702 19.9919 41.2052 20.4215 41.1545 20.9229C41.1119 21.4076 41.1898 21.9413 41.388 22.524C41.5863 23.1067 41.8584 23.5812 42.2044 23.9476C42.5504 24.314 42.9308 24.558 43.3456 24.6797C43.7729 24.7971 44.1973 24.7841 44.6188 24.6407C44.9535 24.5268 45.2526 24.349 45.5161 24.1072C45.7754 23.8529 46.0056 23.5741 46.2066 23.2705L48.23 25.0096C47.8654 25.6455 47.3986 26.1639 46.8296 26.565C46.273 26.9618 45.7158 27.2552 45.158 27.445Z" fill="#7A7173"/>
<path d="M42.2588 27.7053L42.1301 28.3949L42.1384 28.3964L42.2588 27.7053ZM39.7104 26.4353L39.2382 26.9542L39.2442 26.9595L39.7104 26.4353ZM37.7538 20.4409L37.071 20.2796L37.0704 20.2824L37.7538 20.4409ZM39.1539 17.8481L39.6587 18.3352L39.6614 18.3324L39.1539 17.8481ZM43.5152 15.97L43.4695 16.67L43.4769 16.6705L43.4842 16.6708L43.5152 15.97ZM45.151 16.3263L45.82 16.5374L46.0138 15.9231L45.4183 15.6777L45.151 16.3263ZM44.3226 18.9528L44.0676 19.6063L44.7661 19.8788L44.9916 19.1638L44.3226 18.9528ZM43.489 18.7592L43.4451 19.4594L43.4589 19.46L43.489 18.7592ZM41.6496 19.634L41.0966 19.2023V19.2023L41.6496 19.634ZM41.1545 20.9229L40.4565 20.8523L40.4556 20.8615L41.1545 20.9229ZM42.2044 23.9476L41.6943 24.4292L41.6943 24.4292L42.2044 23.9476ZM43.3456 24.6797L43.1482 25.3529L43.1597 25.3561L43.3456 24.6797ZM45.5161 24.1072L45.9904 24.624L45.999 24.6162L46.0072 24.6081L45.5161 24.1072ZM46.2066 23.2705L46.6639 22.7385L46.0608 22.2202L45.6218 22.8832L46.2066 23.2705ZM48.23 25.0096L48.8385 25.3586L49.127 24.8556L48.6872 24.4776L48.23 25.0096ZM46.8296 26.565L46.4254 25.9916L46.4223 25.9938L46.8296 26.565ZM45.158 27.445L44.932 26.7809C44.0406 27.0842 43.1934 27.156 42.3792 27.0141L42.2588 27.7053L42.1384 28.3964C43.2063 28.5824 44.2918 28.4807 45.3839 28.1091L45.158 27.445ZM42.2588 27.7053L42.3874 27.0156C41.5739 26.8639 40.8398 26.5009 40.1766 25.9111L39.7104 26.4353L39.2442 26.9595C40.0883 27.7103 41.0531 28.194 42.1301 28.3949L42.2588 27.7053ZM39.7104 26.4353L40.1825 25.9164C39.5468 25.338 39.0347 24.5279 38.6678 23.4496L38.0037 23.6755L37.3396 23.9015C37.7656 25.1537 38.3913 26.1835 39.2382 26.9541L39.7104 26.4353ZM38.0037 23.6755L38.6678 23.4496C38.3046 22.382 38.2425 21.4386 38.4371 20.5994L37.7538 20.4409L37.0704 20.2824C36.8053 21.4254 36.9098 22.6384 37.3396 23.9015L38.0037 23.6755ZM37.7538 20.4409L38.4365 20.6021C38.6466 19.7126 39.0539 18.9621 39.6587 18.3352L39.1539 17.8481L38.649 17.3611C37.8632 18.1756 37.337 19.1536 37.071 20.2796L37.7538 20.4409ZM39.1539 17.8481L39.6614 18.3324C40.2857 17.6781 41.0301 17.2038 41.9042 16.9064L41.6782 16.2423L41.4523 15.5782C40.3676 15.9472 39.4291 16.5435 38.6463 17.3639L39.1539 17.8481ZM41.6782 16.2423L41.9042 16.9064C42.4763 16.7118 42.9959 16.6392 43.4695 16.67L43.5152 15.97L43.5608 15.27C42.8744 15.2252 42.1694 15.3342 41.4523 15.5782L41.6782 16.2423ZM43.5152 15.97L43.4842 16.6708C43.9817 16.6928 44.4467 16.7949 44.8837 16.9749L45.151 16.3263L45.4183 15.6777C44.8257 15.4335 44.2002 15.2981 43.5461 15.2692L43.5152 15.97ZM45.151 16.3263L44.482 16.1153L43.6535 18.7417L44.3226 18.9528L44.9916 19.1638L45.82 16.5374L45.151 16.3263ZM44.3226 18.9528L44.5775 18.2992C44.2221 18.1606 43.8673 18.0733 43.5191 18.0583L43.489 18.7592L43.4589 19.46C43.6161 19.4668 43.8169 19.5085 44.0676 19.6063L44.3226 18.9528ZM43.489 18.7592L43.5329 18.059C43.2032 18.0384 42.8797 18.0802 42.5679 18.1863L42.7939 18.8504L43.0198 19.5146C43.1544 19.4688 43.2943 19.4498 43.4451 19.4593L43.489 18.7592ZM42.7939 18.8504L42.5679 18.1863C41.9718 18.3891 41.4703 18.7237 41.0966 19.2023L41.6496 19.634L42.2026 20.0657C42.3877 19.8286 42.649 19.6408 43.0198 19.5146L42.7939 18.8504ZM41.6496 19.634L41.0966 19.2023C40.7271 19.6757 40.519 20.2342 40.4565 20.8523L41.1545 20.9229L41.8524 20.9935C41.8913 20.6088 42.0134 20.308 42.2026 20.0657L41.6496 19.634ZM41.1545 20.9229L40.4556 20.8615C40.4026 21.4655 40.5023 22.0986 40.7239 22.75L41.388 22.524L42.0522 22.298C41.8773 21.7841 41.8212 21.3497 41.8533 20.9842L41.1545 20.9229ZM41.388 22.524L40.7239 22.75C40.9476 23.4073 41.2657 23.9753 41.6943 24.4292L42.2044 23.9476L42.7144 23.466C42.4511 23.1871 42.225 22.806 42.0522 22.298L41.388 22.524ZM42.2044 23.9476L41.6943 24.4292C42.1114 24.8709 42.5955 25.1908 43.1482 25.3528L43.3456 24.6797L43.543 24.0065C43.2661 23.9253 42.9893 23.7571 42.7144 23.466L42.2044 23.9476ZM43.3456 24.6797L43.1597 25.3561C43.7231 25.511 44.291 25.4933 44.8447 25.3048L44.6188 24.6407L44.3928 23.9766C44.1036 24.075 43.8227 24.0833 43.5316 24.0033L43.3456 24.6797ZM44.6188 24.6407L44.8447 25.3048C45.2726 25.1592 45.6561 24.9308 45.9904 24.624L45.5161 24.1072L45.0418 23.5903C44.8491 23.7671 44.6343 23.8944 44.3928 23.9766L44.6188 24.6407ZM45.5161 24.1072L46.0072 24.6081C46.3018 24.3193 46.5634 24.0023 46.7915 23.6579L46.2066 23.2705L45.6218 22.8832C45.4478 23.1458 45.2491 23.3866 45.025 23.6062L45.5161 24.1072ZM46.2066 23.2705L45.7494 23.8025L47.7727 25.5416L48.23 25.0096L48.6872 24.4776L46.6639 22.7385L46.2066 23.2705ZM48.23 25.0096L47.6214 24.6607C47.305 25.2125 46.9063 25.6526 46.4254 25.9916L46.8296 26.565L47.2338 27.1384C47.8909 26.6752 48.4258 26.0784 48.8385 25.3586L48.23 25.0096ZM46.8296 26.565L46.4223 25.9938C45.9127 26.3572 45.4159 26.6162 44.932 26.7809L45.158 27.445L45.3839 28.1091C46.0158 27.8941 46.6334 27.5665 47.2369 27.1362L46.8296 26.565Z" fill="#7A7173" mask="url(#path-10-outside-4_4_475)"/>
<mask id="path-12-outside-5_4_475" maskUnits="userSpaceOnUse" x="46.0661" y="8.94516" width="15.1256" height="16.5606" fill="black">
<rect fill="white" x="46.0661" y="8.94516" width="15.1256" height="16.5606"/>
<path d="M55.6681 23.1794C54.6286 23.4485 53.633 23.4695 52.6815 23.2424C51.7394 22.9994 50.9111 22.5171 50.1969 21.7958C49.4953 21.0711 48.9902 20.113 48.6817 18.9213C48.4553 18.0466 48.3913 17.2246 48.4897 16.4551C48.6007 15.6824 48.8331 14.9865 49.1869 14.3674C49.5533 13.745 50.0079 13.2283 50.5508 12.8172C51.103 12.3902 51.7024 12.093 52.349 11.9256C53.3885 11.6565 54.3096 11.6615 55.1123 11.9407C55.915 12.2199 56.5892 12.7081 57.1349 13.4055C57.6807 14.1028 58.0816 14.9459 58.3375 15.9347C58.4163 16.239 58.4711 16.5291 58.502 16.8052C58.5456 17.078 58.5664 17.289 58.5645 17.4383L52.2133 19.0825C52.4427 19.5506 52.7235 19.904 53.0558 20.1426C53.3882 20.3812 53.7578 20.529 54.1648 20.586C54.5686 20.6302 54.9986 20.5933 55.455 20.4752C55.848 20.3734 56.2135 20.2179 56.5516 20.0087C56.8897 19.7994 57.2257 19.5298 57.5596 19.1999L59.2083 20.9441C58.7522 21.4815 58.2035 21.9482 57.562 22.3442C56.9332 22.7369 56.3019 23.0153 55.6681 23.1794ZM51.5803 16.8724L55.2693 15.9174C55.1315 15.385 54.8835 14.9758 54.5254 14.6897C54.18 14.4004 53.6967 14.3361 53.0755 14.497C52.7712 14.5757 52.4977 14.7209 52.2549 14.9326C52.0215 15.1283 51.8395 15.3918 51.7089 15.7232C51.5876 16.0386 51.5448 16.4217 51.5803 16.8724Z"/>
</mask>
<path d="M55.6681 23.1794C54.6286 23.4485 53.633 23.4695 52.6815 23.2424C51.7394 22.9994 50.9111 22.5171 50.1969 21.7958C49.4953 21.0711 48.9902 20.113 48.6817 18.9213C48.4553 18.0466 48.3913 17.2246 48.4897 16.4551C48.6007 15.6824 48.8331 14.9865 49.1869 14.3674C49.5533 13.745 50.0079 13.2283 50.5508 12.8172C51.103 12.3902 51.7024 12.093 52.349 11.9256C53.3885 11.6565 54.3096 11.6615 55.1123 11.9407C55.915 12.2199 56.5892 12.7081 57.1349 13.4055C57.6807 14.1028 58.0816 14.9459 58.3375 15.9347C58.4163 16.239 58.4711 16.5291 58.502 16.8052C58.5456 17.078 58.5664 17.289 58.5645 17.4383L52.2133 19.0825C52.4427 19.5506 52.7235 19.904 53.0558 20.1426C53.3882 20.3812 53.7578 20.529 54.1648 20.586C54.5686 20.6302 54.9986 20.5933 55.455 20.4752C55.848 20.3734 56.2135 20.2179 56.5516 20.0087C56.8897 19.7994 57.2257 19.5298 57.5596 19.1999L59.2083 20.9441C58.7522 21.4815 58.2035 21.9482 57.562 22.3442C56.9332 22.7369 56.3019 23.0153 55.6681 23.1794ZM51.5803 16.8724L55.2693 15.9174C55.1315 15.385 54.8835 14.9758 54.5254 14.6897C54.18 14.4004 53.6967 14.3361 53.0755 14.497C52.7712 14.5757 52.4977 14.7209 52.2549 14.9326C52.0215 15.1283 51.8395 15.3918 51.7089 15.7232C51.5876 16.0386 51.5448 16.4217 51.5803 16.8724Z" fill="#7A7173"/>
<path d="M52.6815 23.2424L52.5062 23.9218L52.5187 23.9248L52.6815 23.2424ZM50.1969 21.7958L49.6928 22.2838L49.6984 22.2894L50.1969 21.7958ZM48.4897 16.4551L47.7952 16.3553L47.7938 16.3661L48.4897 16.4551ZM49.1869 14.3674L48.5823 14.0115L48.5778 14.0194L49.1869 14.3674ZM50.5508 12.8172L50.9743 13.3765L50.9799 13.3722L50.5508 12.8172ZM55.1123 11.9407L55.3427 11.2781V11.2781L55.1123 11.9407ZM58.502 16.8052L57.8048 16.8832L57.8067 16.8996L57.8093 16.9158L58.502 16.8052ZM58.5645 17.4383L58.7403 18.1174L59.259 17.9831L59.2659 17.4474L58.5645 17.4383ZM52.2133 19.0825L52.0375 18.4033L51.2049 18.6189L51.5833 19.3912L52.2133 19.0825ZM53.0558 20.1426L52.6467 20.7124V20.7124L53.0558 20.1426ZM54.1648 20.586L54.0676 21.2807L54.078 21.2821L54.0883 21.2833L54.1648 20.586ZM56.5516 20.0087L56.1824 19.4122L56.1824 19.4122L56.5516 20.0087ZM57.5596 19.1999L58.0694 18.718L57.5768 18.1968L57.0666 18.7009L57.5596 19.1999ZM59.2083 20.9441L59.7431 21.398L60.1497 20.9189L59.7181 20.4622L59.2083 20.9441ZM57.562 22.3442L57.1935 21.7473L57.1904 21.7492L57.562 22.3442ZM51.5803 16.8724L50.881 16.9275L50.9466 17.7611L51.7561 17.5516L51.5803 16.8724ZM55.2693 15.9174L55.4451 16.5966L56.1242 16.4207L55.9484 15.7416L55.2693 15.9174ZM54.5254 14.6897L54.0749 15.2275L54.0812 15.2328L54.0876 15.2378L54.5254 14.6897ZM52.2549 14.9326L52.7057 15.4702L52.7159 15.4614L52.2549 14.9326ZM51.7089 15.7232L51.0562 15.4659L51.0541 15.4715L51.7089 15.7232ZM55.6681 23.1794L55.4923 22.5003C54.5526 22.7435 53.6738 22.758 52.8444 22.5601L52.6815 23.2424L52.5187 23.9248C53.5923 24.181 54.7045 24.1535 55.8439 23.8585L55.6681 23.1794ZM52.6815 23.2424L52.8567 22.5631C52.0426 22.3531 51.3246 21.9377 50.6953 21.3022L50.1969 21.7958L49.6984 22.2894C50.4977 23.0966 51.4362 23.6456 52.5063 23.9217L52.6815 23.2424ZM50.1969 21.7958L50.7009 21.3078C50.1004 20.6876 49.6456 19.8455 49.3609 18.7455L48.6817 18.9213L48.0026 19.0972C48.3348 20.3805 48.8901 21.4546 49.6929 22.2837L50.1969 21.7958ZM48.6817 18.9213L49.3609 18.7455C49.1531 17.9432 49.1001 17.2117 49.1855 16.5441L48.4897 16.4551L47.7938 16.3661C47.6824 17.2374 47.7574 18.1501 48.0026 19.0972L48.6817 18.9213ZM48.4897 16.4551L49.184 16.5549C49.2837 15.8613 49.49 15.2509 49.796 14.7154L49.1869 14.3674L48.5778 14.0194C48.1763 14.7221 47.9177 15.5035 47.7953 16.3553L48.4897 16.4551ZM49.1869 14.3674L49.7914 14.7233C50.1142 14.175 50.5088 13.7289 50.9743 13.3765L50.5508 12.8172L50.1273 12.2579C49.507 12.7276 48.9924 13.315 48.5823 14.0115L49.1869 14.3674ZM50.5508 12.8172L50.9799 13.3722C51.4605 13.0006 51.9744 12.7472 52.5248 12.6047L52.349 11.9256L52.1731 11.2465C51.4305 11.4388 50.7456 11.7798 50.1217 12.2623L50.5508 12.8172ZM52.349 11.9256L52.5248 12.6047C53.4655 12.3612 54.2406 12.3803 54.8818 12.6033L55.1123 11.9407L55.3427 11.2781C54.3786 10.9428 53.3115 10.9518 52.1731 11.2465L52.349 11.9256ZM55.1123 11.9407L54.8818 12.6033C55.5518 12.8363 56.1161 13.2418 56.5825 13.8378L57.1349 13.4055L57.6874 12.9731C57.0623 12.1744 56.2781 11.6034 55.3427 11.2781L55.1123 11.9407ZM57.1349 13.4055L56.5825 13.8378C57.0604 14.4485 57.4229 15.2008 57.6584 16.1105L58.3375 15.9347L59.0167 15.7589C58.7402 14.691 58.301 13.7572 57.6874 12.9731L57.1349 13.4055ZM58.3375 15.9347L57.6584 16.1105C57.7299 16.3868 57.7781 16.6441 57.8048 16.8832L58.502 16.8052L59.1992 16.7272C59.1642 16.4142 59.1027 16.0912 59.0167 15.7589L58.3375 15.9347ZM58.502 16.8052L57.8093 16.9158C57.8509 17.1763 57.8642 17.3405 57.863 17.4292L58.5645 17.4383L59.2659 17.4474C59.2686 17.2376 59.2403 16.9797 59.1947 16.6946L58.502 16.8052ZM58.5645 17.4383L58.3886 16.7592L52.0375 18.4033L52.2133 19.0825L52.3891 19.7616L58.7403 18.1174L58.5645 17.4383ZM52.2133 19.0825L51.5833 19.3912C51.85 19.9354 52.1981 20.3903 52.6467 20.7124L53.0558 20.1426L53.465 19.5728C53.249 19.4177 53.0353 19.1658 52.8432 18.7738L52.2133 19.0825ZM53.0558 20.1426L52.6467 20.7124C53.0718 21.0177 53.5486 21.2081 54.0676 21.2807L54.1648 20.586L54.262 19.8912C53.9671 19.8499 53.7045 19.7448 53.465 19.5728L53.0558 20.1426ZM54.1648 20.586L54.0883 21.2833C54.589 21.3382 55.1051 21.2904 55.6308 21.1543L55.455 20.4752L55.2792 19.796C54.8921 19.8962 54.5481 19.9223 54.2413 19.8886L54.1648 20.586ZM55.455 20.4752L55.6308 21.1543C56.0906 21.0353 56.5215 20.8523 56.9208 20.6052L56.5516 20.0087L56.1824 19.4122C55.9055 19.5835 55.6054 19.7116 55.2792 19.796L55.455 20.4752ZM56.5516 20.0087L56.9208 20.6052C57.3109 20.3637 57.6878 20.0594 58.0527 19.6989L57.5596 19.1999L57.0666 18.7009C56.7636 19.0002 56.4685 19.2351 56.1824 19.4122L56.5516 20.0087ZM57.5596 19.1999L57.0498 19.6818L58.6984 21.426L59.2083 20.9441L59.7181 20.4622L58.0694 18.718L57.5596 19.1999ZM59.2083 20.9441L58.6734 20.4902C58.2681 20.9677 57.7767 21.3872 57.1935 21.7473L57.562 22.3442L57.9305 22.9411C58.6302 22.5091 59.2363 21.9953 59.7431 21.398L59.2083 20.9441ZM57.562 22.3442L57.1904 21.7492C56.6143 22.109 56.0485 22.3563 55.4923 22.5003L55.6681 23.1794L55.8439 23.8585C56.5554 23.6743 57.2522 23.3648 57.9336 22.9392L57.562 22.3442ZM51.5803 16.8724L51.7561 17.5516L55.4451 16.5966L55.2693 15.9174L55.0935 15.2383L51.4045 16.1933L51.5803 16.8724ZM55.2693 15.9174L55.9484 15.7416C55.7804 15.0925 55.4622 14.5402 54.9632 14.1416L54.5254 14.6897L54.0876 15.2378C54.3048 15.4114 54.4826 15.6775 54.5902 16.0932L55.2693 15.9174ZM54.5254 14.6897L54.9758 14.1519C54.3907 13.6619 53.6409 13.6259 52.8997 13.8178L53.0755 14.497L53.2513 15.1761C53.7524 15.0464 53.9692 15.1389 54.0749 15.2275L54.5254 14.6897ZM53.0755 14.497L52.8997 13.8178C52.4873 13.9246 52.1167 14.1224 51.794 14.4038L52.2549 14.9326L52.7159 15.4614C52.8787 15.3194 53.0552 15.2269 53.2513 15.1761L53.0755 14.497ZM52.2549 14.9326L51.8042 14.395C51.4671 14.6777 51.2225 15.0443 51.0562 15.4659L51.7089 15.7232L52.3615 15.9805C52.4566 15.7393 52.576 15.5789 52.7056 15.4701L52.2549 14.9326ZM51.7089 15.7232L51.0541 15.4715C50.8848 15.9118 50.8399 16.4061 50.881 16.9275L51.5803 16.8724L52.2796 16.8173C52.2497 16.4374 52.2904 16.1655 52.3637 15.9749L51.7089 15.7232Z" fill="#7A7173" mask="url(#path-12-outside-5_4_475)"/>
</svg>
