<svg width="100" height="101" viewBox="0 0 100 101" fill="none" xmlns="http://www.w3.org/2000/svg">
<path d="M62.0583 100.016C82.724 100.016 99.4769 83.2635 99.4769 62.5978C99.4769 41.9321 82.724 25.1792 62.0583 25.1792C41.3925 25.1792 24.6396 41.9321 24.6396 62.5978C24.6396 83.2635 41.3925 100.016 62.0583 100.016Z" fill="#F7EF90"/>
<path d="M68.6946 20.7729C73.3246 22.5969 77.66 25.3819 81.399 29.1209C96.0115 43.7334 96.0115 67.4304 81.399 82.0429C66.7865 96.6554 43.0895 96.6554 28.477 82.0429C22.1634 75.7293 18.5787 67.7181 17.7158 59.4823" stroke="#7A7173" stroke-width="2.10453" stroke-linecap="round" stroke-linejoin="round"/>
<mask id="path-3-outside-1_4_462" maskUnits="userSpaceOnUse" x="10.3582" y="35.4712" width="17.4369" height="17.9666" fill="black">
<rect fill="white" x="10.3582" y="35.4712" width="17.4369" height="17.9666"/>
<path d="M23.353 48.4562L11.6145 47.5063L12.9883 44.2699L18.255 45.0332C18.8176 45.1155 19.3896 45.2089 19.9712 45.3135C20.5578 45.4061 21.1505 45.5012 21.7492 45.5988L21.7876 45.5084C21.3014 45.1456 20.8188 44.7913 20.3396 44.4457C19.8655 44.0879 19.4009 43.7413 18.9458 43.4059L14.7459 40.1294L16.0583 37.0376L24.9341 44.7315L23.353 48.4562Z"/>
</mask>
<path d="M23.353 48.4562L11.6145 47.5063L12.9883 44.2699L18.255 45.0332C18.8176 45.1155 19.3896 45.2089 19.9712 45.3135C20.5578 45.4061 21.1505 45.5012 21.7492 45.5988L21.7876 45.5084C21.3014 45.1456 20.8188 44.7913 20.3396 44.4457C19.8655 44.0879 19.4009 43.7413 18.9458 43.4059L14.7459 40.1294L16.0583 37.0376L24.9341 44.7315L23.353 48.4562Z" fill="#7A7173"/>
<path d="M23.353 48.4562L23.2964 49.1554L23.801 49.1962L23.9987 48.7303L23.353 48.4562ZM11.6145 47.5063L10.9687 47.2322L10.5888 48.1272L11.5579 48.2056L11.6145 47.5063ZM12.9883 44.2699L13.0889 43.5756L12.5538 43.4981L12.3426 43.9958L12.9883 44.2699ZM18.255 45.0332L18.3566 44.3391L18.3556 44.3389L18.255 45.0332ZM19.9712 45.3135L19.847 46.004L19.8544 46.0053L19.8618 46.0065L19.9712 45.3135ZM21.7492 45.5988L21.6363 46.2912L22.1798 46.3799L22.3949 45.8729L21.7492 45.5988ZM21.7876 45.5084L22.4333 45.7825L22.6485 45.2756L22.2072 44.9463L21.7876 45.5084ZM20.3396 44.4457L19.917 45.0056L19.923 45.0102L19.9292 45.0146L20.3396 44.4457ZM18.9458 43.4059L18.5143 43.959L18.5218 43.9649L18.5296 43.9706L18.9458 43.4059ZM14.7459 40.1294L14.1001 39.8553L13.8897 40.3511L14.3144 40.6825L14.7459 40.1294ZM16.0583 37.0376L16.5178 36.5075L15.7893 35.876L15.4126 36.7635L16.0583 37.0376ZM24.9341 44.7315L25.5798 45.0057L25.7792 44.5358L25.3936 44.2015L24.9341 44.7315ZM23.353 48.4562L23.4096 47.757L11.671 46.8071L11.6145 47.5063L11.5579 48.2056L23.2964 49.1554L23.353 48.4562ZM11.6145 47.5063L12.2602 47.7804L13.634 44.544L12.9883 44.2699L12.3426 43.9958L10.9687 47.2322L11.6145 47.5063ZM12.9883 44.2699L12.8877 44.9641L18.1544 45.7274L18.255 45.0332L18.3556 44.3389L13.0889 43.5756L12.9883 44.2699ZM18.255 45.0332L18.1535 45.7273C18.7082 45.8085 19.2727 45.9007 19.847 46.004L19.9712 45.3135L20.0953 44.6231C19.5066 44.5172 18.927 44.4225 18.3566 44.3391L18.255 45.0332ZM19.9712 45.3135L19.8618 46.0065C20.4473 46.0988 21.0387 46.1937 21.6363 46.2912L21.7492 45.5988L21.8621 44.9065C21.2622 44.8086 20.6684 44.7133 20.0805 44.6206L19.9712 45.3135ZM21.7492 45.5988L22.3949 45.8729L22.4333 45.7825L21.7876 45.5084L21.1418 45.2343L21.1035 45.3247L21.7492 45.5988ZM21.7876 45.5084L22.2072 44.9463C21.7181 44.5812 21.2323 44.2247 20.75 43.8767L20.3396 44.4457L19.9292 45.0146C20.4052 45.358 20.8848 45.71 21.368 46.0706L21.7876 45.5084ZM20.3396 44.4457L20.7621 43.8857C20.286 43.5264 19.8193 43.1783 19.362 42.8412L18.9458 43.4059L18.5296 43.9706C18.9824 44.3044 19.4449 44.6494 19.917 45.0056L20.3396 44.4457ZM18.9458 43.4059L19.3773 42.8528L15.1774 39.5763L14.7459 40.1294L14.3144 40.6825L18.5143 43.959L18.9458 43.4059ZM14.7459 40.1294L15.3916 40.4035L16.7041 37.3117L16.0583 37.0376L15.4126 36.7635L14.1001 39.8553L14.7459 40.1294ZM16.0583 37.0376L15.5988 37.5677L24.4746 45.2616L24.9341 44.7315L25.3936 44.2015L16.5178 36.5075L16.0583 37.0376ZM24.9341 44.7315L24.2883 44.4574L22.7073 48.1821L23.353 48.4562L23.9987 48.7303L25.5798 45.0057L24.9341 44.7315Z" fill="#7A7173" mask="url(#path-3-outside-1_4_462)"/>
<mask id="path-5-outside-2_4_462" maskUnits="userSpaceOnUse" x="16.3023" y="23.5819" width="19.1048" height="19.0585" fill="black">
<rect fill="white" x="16.3023" y="23.5819" width="19.1048" height="19.0585"/>
<path d="M30.2746 37.5715C29.6301 38.2596 28.8541 38.7529 27.9467 39.0513C27.0297 39.3407 26.072 39.3767 25.0736 39.1593C24.0842 38.9323 23.1402 38.398 22.2418 37.5566C21.3434 36.7152 20.7533 35.8127 20.4716 34.8491C20.1893 33.8671 20.1674 32.9136 20.4058 31.9886C20.6346 31.0547 21.0712 30.2436 21.7157 29.5555C22.1991 29.0394 22.7602 28.6319 23.3989 28.333C24.0376 28.0342 24.7179 27.8729 25.4398 27.8493C26.1521 27.8167 26.874 27.9367 27.6055 28.2092C28.3371 28.4817 29.0421 28.9357 29.7207 29.5712C30.6191 30.4127 31.2095 31.3244 31.4918 32.3065C31.7831 33.279 31.8143 34.2322 31.5855 35.1661C31.356 36.0815 30.9191 36.8833 30.2746 37.5715ZM28.2101 35.638C28.5055 35.3226 28.6564 34.9795 28.6628 34.6087C28.6781 34.2283 28.5633 33.8337 28.3183 33.4249C28.0733 33.016 27.7262 32.6012 27.277 32.1805C26.8278 31.7597 26.3959 31.445 25.9815 31.2362C25.5574 31.0185 25.1562 30.9297 24.7776 30.9699C24.4081 31.0006 24.0756 31.1736 23.7802 31.489C23.4848 31.8044 23.3294 32.1522 23.3141 32.5326C23.3077 32.9034 23.4225 33.298 23.6586 33.7164C23.894 34.1163 24.2363 34.5267 24.6856 34.9474C25.1348 35.3681 25.5714 35.6873 25.9954 35.9051C26.4284 36.1132 26.8297 36.202 27.1992 36.1714C27.5778 36.1312 27.9147 35.9534 28.2101 35.638Z"/>
</mask>
<path d="M30.2746 37.5715C29.6301 38.2596 28.8541 38.7529 27.9467 39.0513C27.0297 39.3407 26.072 39.3767 25.0736 39.1593C24.0842 38.9323 23.1402 38.398 22.2418 37.5566C21.3434 36.7152 20.7533 35.8127 20.4716 34.8491C20.1893 33.8671 20.1674 32.9136 20.4058 31.9886C20.6346 31.0547 21.0712 30.2436 21.7157 29.5555C22.1991 29.0394 22.7602 28.6319 23.3989 28.333C24.0376 28.0342 24.7179 27.8729 25.4398 27.8493C26.1521 27.8167 26.874 27.9367 27.6055 28.2092C28.3371 28.4817 29.0421 28.9357 29.7207 29.5712C30.6191 30.4127 31.2095 31.3244 31.4918 32.3065C31.7831 33.279 31.8143 34.2322 31.5855 35.1661C31.356 36.0815 30.9191 36.8833 30.2746 37.5715ZM28.2101 35.638C28.5055 35.3226 28.6564 34.9795 28.6628 34.6087C28.6781 34.2283 28.5633 33.8337 28.3183 33.4249C28.0733 33.016 27.7262 32.6012 27.277 32.1805C26.8278 31.7597 26.3959 31.445 25.9815 31.2362C25.5574 31.0185 25.1562 30.9297 24.7776 30.9699C24.4081 31.0006 24.0756 31.1736 23.7802 31.489C23.4848 31.8044 23.3294 32.1522 23.3141 32.5326C23.3077 32.9034 23.4225 33.298 23.6586 33.7164C23.894 34.1163 24.2363 34.5267 24.6856 34.9474C25.1348 35.3681 25.5714 35.6873 25.9954 35.9051C26.4284 36.1132 26.8297 36.202 27.1992 36.1714C27.5778 36.1312 27.9147 35.9534 28.2101 35.638Z" fill="#7A7173"/>
<path d="M27.9467 39.0513L28.1579 39.7203L28.1658 39.7177L27.9467 39.0513ZM25.0736 39.1593L24.9168 39.8431L24.9243 39.8447L25.0736 39.1593ZM20.4716 34.8491L19.7974 35.043L19.7983 35.046L20.4716 34.8491ZM20.4058 31.9886L21.0851 32.1637L21.0871 32.1555L20.4058 31.9886ZM23.3989 28.333L23.6962 28.9684V28.9684L23.3989 28.333ZM25.4398 27.8493L25.4627 28.5505L25.4718 28.5501L25.4398 27.8493ZM31.4918 32.3065L30.8176 32.5003L30.8198 32.5077L31.4918 32.3065ZM31.5855 35.1661L32.2659 35.3367L32.2668 35.3331L31.5855 35.1661ZM28.6628 34.6087L27.9619 34.5804L27.9615 34.5885L27.9614 34.5966L28.6628 34.6087ZM28.3183 33.4249L28.9201 33.0643V33.0643L28.3183 33.4249ZM25.9815 31.2362L25.661 31.8603L25.6659 31.8627L25.9815 31.2362ZM24.7776 30.9699L24.8356 31.669L24.8437 31.6684L24.8517 31.6675L24.7776 30.9699ZM23.3141 32.5326L22.6131 32.5043L22.6128 32.5124L22.6127 32.5205L23.3141 32.5326ZM23.6586 33.7164L23.0475 34.0612L23.054 34.0723L23.6586 33.7164ZM25.9954 35.905L25.675 36.5291L25.6832 36.5333L25.6914 36.5373L25.9954 35.905ZM27.1992 36.1714L27.2572 36.8705L27.2653 36.8698L27.2733 36.8689L27.1992 36.1714ZM30.2746 37.5715L29.7626 37.0919C29.1996 37.6931 28.5248 38.1227 27.7276 38.3849L27.9467 39.0513L28.1658 39.7177C29.1835 39.3831 30.0606 38.8262 30.7866 38.051L30.2746 37.5715ZM27.9467 39.0513L27.7355 38.3823C26.9426 38.6326 26.1096 38.6669 25.2229 38.4738L25.0736 39.1593L24.9243 39.8447C26.0345 40.0865 27.1169 40.0488 28.1579 39.7203L27.9467 39.0513ZM25.0736 39.1593L25.2305 38.4755C24.3852 38.2816 23.5485 37.8193 22.7213 37.0446L22.2418 37.5566L21.7623 38.0686C22.732 38.9768 23.7832 39.5829 24.9168 39.843L25.0736 39.1593ZM22.2418 37.5566L22.7213 37.0446C21.8939 36.2696 21.3843 35.4708 21.145 34.6523L20.4716 34.8491L19.7983 35.046C20.1224 36.1546 20.7929 37.1607 21.7623 38.0686L22.2418 37.5566ZM20.4716 34.8491L21.1459 34.6553C20.8956 33.7849 20.8801 32.959 21.0851 32.1637L20.4058 31.9886L19.7264 31.8135C19.4546 32.8682 19.4831 33.9493 19.7974 35.043L20.4716 34.8491ZM20.4058 31.9886L21.0871 32.1555C21.2879 31.3362 21.6673 30.6334 22.2278 30.035L21.7157 29.5555L21.2037 29.0759C20.4752 29.8538 19.9813 30.7731 19.7244 31.8217L20.4058 31.9886ZM21.7157 29.5555L22.2278 30.035C22.6503 29.5838 23.1385 29.2293 23.6962 28.9684L23.3989 28.333L23.1016 27.6976C22.3818 28.0344 21.7479 28.4949 21.2037 29.0759L21.7157 29.5555ZM23.3989 28.333L23.6962 28.9684C24.2468 28.7108 24.8335 28.571 25.4627 28.5504L25.4398 27.8493L25.4168 27.1482C24.6023 27.1748 23.8285 27.3575 23.1016 27.6976L23.3989 28.333ZM25.4398 27.8493L25.4718 28.5501C26.0812 28.5222 26.7091 28.6238 27.3607 28.8665L27.6055 28.2092L27.8504 27.5518C27.0388 27.2495 26.2229 27.1112 25.4077 27.1485L25.4398 27.8493ZM27.6055 28.2092L27.3607 28.8665C27.9902 29.101 28.6177 29.4993 29.2412 30.0833L29.7207 29.5712L30.2003 29.0592C29.4666 28.3721 28.684 27.8623 27.8504 27.5518L27.6055 28.2092ZM29.7207 29.5712L29.2412 30.0833C30.0662 30.8559 30.5768 31.6627 30.8176 32.5003L31.4918 32.3065L32.166 32.1127C31.8422 30.9862 31.1721 29.9695 30.2003 29.0592L29.7207 29.5712ZM31.4918 32.3065L30.8198 32.5077C31.0773 33.3675 31.1015 34.1935 30.9041 34.9992L31.5855 35.1661L32.2668 35.3331C32.5271 34.2709 32.4889 33.1905 32.1638 32.1052L31.4918 32.3065ZM31.5855 35.1661L30.905 34.9956C30.7045 35.7955 30.3255 36.4909 29.7626 37.0919L30.2746 37.5715L30.7866 38.051C31.5127 37.2758 32.0075 36.3676 32.2659 35.3367L31.5855 35.1661ZM28.2101 35.638L28.7221 36.1175C29.1155 35.6975 29.3543 35.1938 29.3642 34.6208L28.6628 34.6087L27.9614 34.5966C27.9585 34.7651 27.8955 34.9477 27.6981 35.1584L28.2101 35.638ZM28.6628 34.6087L29.3637 34.637C29.3858 34.0893 29.2176 33.5608 28.9201 33.0643L28.3183 33.4249L27.7166 33.7854C27.909 34.1067 27.9705 34.3673 27.9619 34.5804L28.6628 34.6087ZM28.3183 33.4249L28.9201 33.0643C28.6335 32.586 28.2403 32.1215 27.7565 31.6685L27.277 32.1805L26.7975 32.6925C27.2121 33.0809 27.5131 33.446 27.7166 33.7854L28.3183 33.4249ZM27.277 32.1805L27.7565 31.6685C27.2733 31.2159 26.7872 30.8566 26.2971 30.6097L25.9815 31.2362L25.6659 31.8627C26.0047 32.0334 26.3822 32.3036 26.7975 32.6925L27.277 32.1805ZM25.9815 31.2362L26.3019 30.6122C25.787 30.3478 25.2486 30.2145 24.7036 30.2723L24.7776 30.9699L24.8517 31.6675C25.0638 31.645 25.3279 31.6892 25.661 31.8603L25.9815 31.2362ZM24.7776 30.9699L24.7197 30.2708C24.1485 30.3182 23.6616 30.5894 23.2682 31.0094L23.7802 31.489L24.2922 31.9685C24.4896 31.7577 24.6676 31.683 24.8356 31.669L24.7776 30.9699ZM23.7802 31.489L23.2682 31.0094C22.8743 31.43 22.6362 31.933 22.6131 32.5043L23.3141 32.5326L24.015 32.5609C24.0227 32.3715 24.0953 32.1787 24.2922 31.9685L23.7802 31.489ZM23.3141 32.5326L22.6127 32.5205C22.6036 33.0479 22.7679 33.5653 23.0476 34.0611L23.6586 33.7164L24.2696 33.3717C24.0771 33.0306 24.0118 32.7589 24.0155 32.5447L23.3141 32.5326ZM23.6586 33.7164L23.054 34.0723C23.3325 34.5453 23.7228 35.0068 24.206 35.4594L24.6856 34.9474L25.1651 34.4354C24.7499 34.0465 24.4556 33.6874 24.2631 33.3605L23.6586 33.7164ZM24.6856 34.9474L24.206 35.4594C24.6897 35.9125 25.179 36.2744 25.675 36.5291L25.9954 35.905L26.3158 35.281C25.9638 35.1002 25.5798 34.8238 25.1651 34.4354L24.6856 34.9474ZM25.9954 35.905L25.6914 36.5373C26.2044 36.7839 26.7316 36.914 27.2572 36.8705L27.1992 36.1714L27.1413 35.4722C26.9278 35.4899 26.6523 35.4425 26.2994 35.2728L25.9954 35.905ZM27.1992 36.1714L27.2733 36.8689C27.8419 36.8086 28.3282 36.5381 28.7221 36.1175L28.2101 35.638L27.6981 35.1584C27.5012 35.3686 27.3136 35.4538 27.1252 35.4738L27.1992 36.1714Z" fill="#7A7173" mask="url(#path-5-outside-2_4_462)"/>
<mask id="path-7-outside-3_4_462" maskUnits="userSpaceOnUse" x="24.3966" y="14.706" width="15.6159" height="19.0991" fill="black">
<rect fill="white" x="24.3966" y="14.706" width="15.6159" height="19.0991"/>
<path d="M35.654 32.1843L29.3914 22.9272L32.2873 20.9681L38.5499 30.2252L35.654 32.1843ZM29.9699 20.6624C29.4818 20.9926 28.9996 21.1212 28.5234 21.0481C28.0471 20.9751 27.6548 20.7108 27.3467 20.2553C27.0458 19.8106 26.9501 19.3536 27.0595 18.8843C27.1689 18.4151 27.4677 18.0153 27.9557 17.6851C28.433 17.3623 28.9097 17.2374 29.386 17.3104C29.8731 17.3761 30.2671 17.6313 30.5679 18.076C30.8761 18.5316 30.9701 18.9976 30.8498 19.4742C30.7404 19.9435 30.4471 20.3395 29.9699 20.6624Z"/>
</mask>
<path d="M35.654 32.1843L29.3914 22.9272L32.2873 20.9681L38.5499 30.2252L35.654 32.1843ZM29.9699 20.6624C29.4818 20.9926 28.9996 21.1212 28.5234 21.0481C28.0471 20.9751 27.6548 20.7108 27.3467 20.2553C27.0458 19.8106 26.9501 19.3536 27.0595 18.8843C27.1689 18.4151 27.4677 18.0153 27.9557 17.6851C28.433 17.3623 28.9097 17.2374 29.386 17.3104C29.8731 17.3761 30.2671 17.6313 30.5679 18.076C30.8761 18.5316 30.9701 18.9976 30.8498 19.4742C30.7404 19.9435 30.4471 20.3395 29.9699 20.6624Z" fill="#7A7173"/>
<path d="M35.654 32.1843L35.0729 32.5774L35.466 33.1584L36.0471 32.7654L35.654 32.1843ZM29.3914 22.9272L28.9983 22.3462L28.4173 22.7392L28.8104 23.3203L29.3914 22.9272ZM32.2873 20.9681L32.8684 20.575L32.4753 19.994L31.8942 20.3871L32.2873 20.9681ZM38.5499 30.2252L38.943 30.8062L39.524 30.4132L39.1309 29.8321L38.5499 30.2252ZM28.5234 21.0481L28.6297 20.3547L28.6297 20.3547L28.5234 21.0481ZM27.0595 18.8843L26.3763 18.725L26.3763 18.725L27.0595 18.8843ZM29.386 17.3104L29.2796 18.004L29.2922 18.0056L29.386 17.3104ZM30.8498 19.4742L30.1695 19.3026L30.1666 19.3149L30.8498 19.4742ZM35.654 32.1843L36.235 31.7912L29.9725 22.5341L29.3914 22.9272L28.8104 23.3203L35.0729 32.5774L35.654 32.1843ZM29.3914 22.9272L29.7845 23.5082L32.6804 21.5491L32.2873 20.9681L31.8942 20.3871L28.9983 22.3462L29.3914 22.9272ZM32.2873 20.9681L31.7063 21.3612L37.9688 30.6183L38.5499 30.2252L39.1309 29.8321L32.8684 20.575L32.2873 20.9681ZM38.5499 30.2252L38.1568 29.6442L35.2609 31.6033L35.654 32.1843L36.0471 32.7654L38.943 30.8062L38.5499 30.2252ZM29.9699 20.6624L29.5768 20.0814C29.2008 20.3357 28.8942 20.3953 28.6297 20.3547L28.5234 21.0481L28.417 21.7415C29.105 21.847 29.7628 21.6494 30.363 21.2434L29.9699 20.6624ZM28.5234 21.0481L28.6297 20.3547C28.3747 20.3156 28.1434 20.181 27.9277 19.8622L27.3467 20.2553L26.7656 20.6483C27.1663 21.2405 27.7194 21.6345 28.417 21.7415L28.5234 21.0481ZM27.3467 20.2553L27.9277 19.8622C27.7225 19.5589 27.683 19.2997 27.7427 19.0436L27.0595 18.8843L26.3763 18.725C26.2172 19.4074 26.3692 20.0623 26.7656 20.6483L27.3467 20.2553ZM27.0595 18.8843L27.7427 19.0436C27.8035 18.7829 27.9728 18.5206 28.3488 18.2662L27.9557 17.6851L27.5627 17.1041C26.9625 17.5101 26.5344 18.0472 26.3763 18.725L27.0595 18.8843ZM27.9557 17.6851L28.3488 18.2662C28.71 18.0218 29.0112 17.9627 29.2797 18.0038L29.386 17.3104L29.4923 16.617C28.8082 16.5121 28.1559 16.7028 27.5627 17.1041L27.9557 17.6851ZM29.386 17.3104L29.2922 18.0056C29.5617 18.042 29.7865 18.1728 29.9869 18.4691L30.5679 18.076L31.149 17.6829C30.7478 17.0899 30.1845 16.7103 29.4798 16.6152L29.386 17.3104ZM30.5679 18.076L29.9869 18.4691C30.1979 18.781 30.2349 19.044 30.1696 19.3026L30.8498 19.4742L31.53 19.6458C31.7053 18.9512 31.5543 18.2821 31.149 17.6829L30.5679 18.076ZM30.8498 19.4742L30.1666 19.3149C30.105 19.5795 29.938 19.837 29.5768 20.0814L29.9699 20.6624L30.363 21.2434C30.9562 20.8421 31.3759 20.3075 31.533 19.6335L30.8498 19.4742Z" fill="#7A7173" mask="url(#path-7-outside-3_4_462)"/>
<mask id="path-9-outside-4_4_462" maskUnits="userSpaceOnUse" x="34.8746" y="13.3784" width="14.9233" height="16.7971" fill="black">
<rect fill="white" x="34.8746" y="13.3784" width="14.9233" height="16.7971"/>
<path d="M45.157 27.4455C44.1652 27.7829 43.1988 27.8697 42.2578 27.7057C41.3125 27.5294 40.4631 27.1061 39.7094 26.4358C38.9681 25.7612 38.3992 24.8413 38.0027 23.676C37.6062 22.5107 37.5229 21.4325 37.7528 20.4413C37.9908 19.4336 38.4576 18.5694 39.1529 17.8486C39.8564 17.1113 40.6979 16.576 41.6773 16.2428C42.3219 16.0235 42.9342 15.9327 43.5142 15.9705C44.0899 15.9959 44.6352 16.1147 45.15 16.3268L44.3216 18.9532C44.0186 18.835 43.7407 18.7705 43.488 18.7597C43.2478 18.7446 43.016 18.775 42.7929 18.8509C42.3094 19.0154 41.928 19.2766 41.6486 19.6345C41.3693 19.9924 41.2042 20.422 41.1535 20.9234C41.111 21.4081 41.1888 21.9418 41.3871 22.5245C41.5853 23.1071 41.8574 23.5817 42.2034 23.9481C42.5494 24.3145 42.9298 24.5585 43.3447 24.6802C43.7719 24.7976 44.1963 24.7846 44.6178 24.6412C44.9525 24.5273 45.2516 24.3495 45.5152 24.1076C45.7745 23.8534 46.0046 23.5746 46.2057 23.271L48.229 25.0101C47.8644 25.6459 47.3976 26.1644 46.8286 26.5655C46.2721 26.9623 45.7148 27.2557 45.157 27.4455Z"/>
</mask>
<path d="M45.157 27.4455C44.1652 27.7829 43.1988 27.8697 42.2578 27.7057C41.3125 27.5294 40.4631 27.1061 39.7094 26.4358C38.9681 25.7612 38.3992 24.8413 38.0027 23.676C37.6062 22.5107 37.5229 21.4325 37.7528 20.4413C37.9908 19.4336 38.4576 18.5694 39.1529 17.8486C39.8564 17.1113 40.6979 16.576 41.6773 16.2428C42.3219 16.0235 42.9342 15.9327 43.5142 15.9705C44.0899 15.9959 44.6352 16.1147 45.15 16.3268L44.3216 18.9532C44.0186 18.835 43.7407 18.7705 43.488 18.7597C43.2478 18.7446 43.016 18.775 42.7929 18.8509C42.3094 19.0154 41.928 19.2766 41.6486 19.6345C41.3693 19.9924 41.2042 20.422 41.1535 20.9234C41.111 21.4081 41.1888 21.9418 41.3871 22.5245C41.5853 23.1071 41.8574 23.5817 42.2034 23.9481C42.5494 24.3145 42.9298 24.5585 43.3447 24.6802C43.7719 24.7976 44.1963 24.7846 44.6178 24.6412C44.9525 24.5273 45.2516 24.3495 45.5152 24.1076C45.7745 23.8534 46.0046 23.5746 46.2057 23.271L48.229 25.0101C47.8644 25.6459 47.3976 26.1644 46.8286 26.5655C46.2721 26.9623 45.7148 27.2557 45.157 27.4455Z" fill="#7A7173"/>
<path d="M42.2578 27.7057L42.1291 28.3954L42.1374 28.3968L42.2578 27.7057ZM39.7094 26.4358L39.2372 26.9547L39.2432 26.96L39.7094 26.4358ZM37.7528 20.4413L37.0701 20.2801L37.0694 20.2828L37.7528 20.4413ZM39.1529 17.8486L39.6578 18.3357L39.6604 18.3329L39.1529 17.8486ZM43.5142 15.9705L43.4686 16.6705L43.4759 16.671L43.4833 16.6713L43.5142 15.9705ZM45.15 16.3268L45.8191 16.5379L46.0128 15.9236L45.4173 15.6782L45.15 16.3268ZM44.3216 18.9532L44.0666 19.6068L44.7651 19.8792L44.9906 19.1643L44.3216 18.9532ZM43.488 18.7597L43.4441 19.4599L43.4579 19.4605L43.488 18.7597ZM41.6486 19.6345L41.0957 19.2028V19.2028L41.6486 19.6345ZM41.1535 20.9234L40.4555 20.8527L40.4547 20.862L41.1535 20.9234ZM42.2034 23.9481L41.6933 24.4297L41.6933 24.4297L42.2034 23.9481ZM43.3447 24.6802L43.1472 25.3534L43.1587 25.3566L43.3447 24.6802ZM45.5152 24.1076L45.9895 24.6245L45.998 24.6167L46.0063 24.6086L45.5152 24.1076ZM46.2057 23.271L46.6629 22.739L46.0599 22.2207L45.6208 22.8837L46.2057 23.271ZM48.229 25.0101L48.8376 25.3591L49.126 24.8561L48.6863 24.4781L48.229 25.0101ZM46.8286 26.5655L46.4245 25.9921L46.4214 25.9943L46.8286 26.5655ZM45.157 27.4455L44.931 26.7814C44.0396 27.0847 43.1924 27.1565 42.3782 27.0146L42.2578 27.7057L42.1374 28.3968C43.2053 28.5829 44.2909 28.4812 45.383 28.1096L45.157 27.4455ZM42.2578 27.7057L42.3864 27.0161C41.5729 26.8644 40.8388 26.5014 40.1756 25.9116L39.7094 26.4358L39.2432 26.96C40.0874 27.7108 41.0522 28.1944 42.1292 28.3954L42.2578 27.7057ZM39.7094 26.4358L40.1815 25.9169C39.5458 25.3385 39.0337 24.5284 38.6668 23.45L38.0027 23.676L37.3386 23.902C37.7646 25.1542 38.3903 26.184 39.2373 26.9546L39.7094 26.4358ZM38.0027 23.676L38.6668 23.45C38.3036 22.3825 38.2415 21.4391 38.4361 20.5998L37.7528 20.4413L37.0694 20.2828C36.8043 21.4259 36.9088 22.6389 37.3386 23.902L38.0027 23.676ZM37.7528 20.4413L38.4355 20.6026C38.6456 19.7131 39.0529 18.9626 39.6578 18.3357L39.1529 17.8486L38.6481 17.3616C37.8622 18.1761 37.3361 19.1541 37.0701 20.2801L37.7528 20.4413ZM39.1529 17.8486L39.6604 18.3329C40.2848 17.6786 41.0292 17.2043 41.9032 16.9069L41.6773 16.2428L41.4513 15.5787C40.3666 15.9477 39.4281 16.544 38.6454 17.3644L39.1529 17.8486ZM41.6773 16.2428L41.9032 16.9069C42.4753 16.7123 42.995 16.6397 43.4686 16.6705L43.5142 15.9705L43.5598 15.2705C42.8734 15.2257 42.1685 15.3347 41.4513 15.5787L41.6773 16.2428ZM43.5142 15.9705L43.4833 16.6713C43.9807 16.6933 44.4457 16.7953 44.8828 16.9754L45.15 16.3268L45.4173 15.6782C44.8247 15.434 44.1992 15.2985 43.5451 15.2697L43.5142 15.9705ZM45.15 16.3268L44.481 16.1158L43.6526 18.7422L44.3216 18.9532L44.9906 19.1643L45.8191 16.5379L45.15 16.3268ZM44.3216 18.9532L44.5765 18.2997C44.2212 18.1611 43.8663 18.0737 43.5181 18.0588L43.488 18.7597L43.4579 19.4605C43.6151 19.4673 43.8159 19.509 44.0666 19.6068L44.3216 18.9532ZM43.488 18.7597L43.5319 18.0595C43.2022 18.0388 42.8787 18.0807 42.5669 18.1868L42.7929 18.8509L43.0189 19.5151C43.1534 19.4693 43.2933 19.4503 43.4441 19.4598L43.488 18.7597ZM42.7929 18.8509L42.5669 18.1868C41.9708 18.3896 41.4693 18.7242 41.0957 19.2028L41.6486 19.6345L42.2016 20.0662C42.3867 19.8291 42.648 19.6412 43.0189 19.5151L42.7929 18.8509ZM41.6486 19.6345L41.0957 19.2028C40.7261 19.6762 40.5181 20.2347 40.4555 20.8528L41.1535 20.9234L41.8514 20.994C41.8904 20.6092 42.0124 20.3085 42.2016 20.0662L41.6486 19.6345ZM41.1535 20.9234L40.4547 20.862C40.4017 21.466 40.5013 22.0991 40.7229 22.7505L41.3871 22.5245L42.0512 22.2985C41.8763 21.7846 41.8202 21.3502 41.8523 20.9847L41.1535 20.9234ZM41.3871 22.5245L40.7229 22.7505C40.9466 23.4078 41.2647 23.9758 41.6933 24.4297L42.2034 23.9481L42.7135 23.4665C42.4501 23.1876 42.224 22.8065 42.0512 22.2985L41.3871 22.5245ZM42.2034 23.9481L41.6933 24.4297C42.1104 24.8714 42.5945 25.1912 43.1473 25.3533L43.3447 24.6802L43.5421 24.007C43.2651 23.9258 42.9883 23.7576 42.7135 23.4665L42.2034 23.9481ZM43.3447 24.6802L43.1587 25.3566C43.7221 25.5114 44.29 25.4937 44.8438 25.3053L44.6178 24.6412L44.3918 23.9771C44.1026 24.0755 43.8217 24.0838 43.5306 24.0037L43.3447 24.6802ZM44.6178 24.6412L44.8438 25.3053C45.2717 25.1597 45.6551 24.9313 45.9895 24.6245L45.5152 24.1076L45.0409 23.5908C44.8482 23.7676 44.6334 23.8949 44.3918 23.9771L44.6178 24.6412ZM45.5152 24.1076L46.0063 24.6086C46.3008 24.3198 46.5624 24.0028 46.7905 23.6583L46.2057 23.271L45.6208 22.8837C45.4469 23.1463 45.2481 23.3871 45.0241 23.6067L45.5152 24.1076ZM46.2057 23.271L45.7484 23.803L47.7717 25.5421L48.229 25.0101L48.6863 24.4781L46.6629 22.739L46.2057 23.271ZM48.229 25.0101L47.6204 24.6611C47.304 25.213 46.9053 25.6531 46.4245 25.9921L46.8286 26.5655L47.2328 27.1389C47.8899 26.6757 48.4248 26.0789 48.8376 25.3591L48.229 25.0101ZM46.8286 26.5655L46.4214 25.9943C45.9117 26.3577 45.4149 26.6167 44.931 26.7814L45.157 27.4455L45.383 28.1096C46.0148 27.8946 46.6324 27.567 47.2359 27.1367L46.8286 26.5655Z" fill="#7A7173" mask="url(#path-9-outside-4_4_462)"/>
<mask id="path-11-outside-5_4_462" maskUnits="userSpaceOnUse" x="46.0661" y="8.94564" width="15.1256" height="16.5606" fill="black">
<rect fill="white" x="46.0661" y="8.94564" width="15.1256" height="16.5606"/>
<path d="M55.6681 23.1799C54.6286 23.449 53.633 23.47 52.6815 23.2429C51.7394 22.9998 50.9111 22.5176 50.1969 21.7963C49.4953 21.0716 48.9902 20.1135 48.6817 18.9218C48.4553 18.0471 48.3913 17.225 48.4897 16.4556C48.6007 15.6829 48.8331 14.987 49.1869 14.3679C49.5533 13.7455 50.0079 13.2288 50.5508 12.8177C51.103 12.3907 51.7024 12.0935 52.349 11.9261C53.3885 11.657 54.3096 11.662 55.1123 11.9412C55.915 12.2203 56.5892 12.7086 57.1349 13.406C57.6807 14.1033 58.0816 14.9464 58.3375 15.9352C58.4163 16.2395 58.4711 16.5296 58.502 16.8057C58.5456 17.0785 58.5664 17.2895 58.5645 17.4388L52.2133 19.083C52.4427 19.5511 52.7235 19.9045 53.0558 20.1431C53.3882 20.3817 53.7578 20.5295 54.1648 20.5864C54.5686 20.6307 54.9986 20.5938 55.455 20.4756C55.848 20.3739 56.2135 20.2184 56.5516 20.0091C56.8897 19.7999 57.2257 19.5303 57.5596 19.2004L59.2083 20.9446C58.7522 21.482 58.2035 21.9487 57.562 22.3447C56.9332 22.7374 56.3019 23.0158 55.6681 23.1799ZM51.5803 16.8729L55.2693 15.9179C55.1315 15.3855 54.8835 14.9763 54.5254 14.6902C54.18 14.4009 53.6967 14.3366 53.0755 14.4974C52.7712 14.5762 52.4977 14.7214 52.2549 14.9331C52.0215 15.1287 51.8395 15.3923 51.7089 15.7237C51.5876 16.0391 51.5448 16.4222 51.5803 16.8729Z"/>
</mask>
<path d="M55.6681 23.1799C54.6286 23.449 53.633 23.47 52.6815 23.2429C51.7394 22.9998 50.9111 22.5176 50.1969 21.7963C49.4953 21.0716 48.9902 20.1135 48.6817 18.9218C48.4553 18.0471 48.3913 17.225 48.4897 16.4556C48.6007 15.6829 48.8331 14.987 49.1869 14.3679C49.5533 13.7455 50.0079 13.2288 50.5508 12.8177C51.103 12.3907 51.7024 12.0935 52.349 11.9261C53.3885 11.657 54.3096 11.662 55.1123 11.9412C55.915 12.2203 56.5892 12.7086 57.1349 13.406C57.6807 14.1033 58.0816 14.9464 58.3375 15.9352C58.4163 16.2395 58.4711 16.5296 58.502 16.8057C58.5456 17.0785 58.5664 17.2895 58.5645 17.4388L52.2133 19.083C52.4427 19.5511 52.7235 19.9045 53.0558 20.1431C53.3882 20.3817 53.7578 20.5295 54.1648 20.5864C54.5686 20.6307 54.9986 20.5938 55.455 20.4756C55.848 20.3739 56.2135 20.2184 56.5516 20.0091C56.8897 19.7999 57.2257 19.5303 57.5596 19.2004L59.2083 20.9446C58.7522 21.482 58.2035 21.9487 57.562 22.3447C56.9332 22.7374 56.3019 23.0158 55.6681 23.1799ZM51.5803 16.8729L55.2693 15.9179C55.1315 15.3855 54.8835 14.9763 54.5254 14.6902C54.18 14.4009 53.6967 14.3366 53.0755 14.4974C52.7712 14.5762 52.4977 14.7214 52.2549 14.9331C52.0215 15.1287 51.8395 15.3923 51.7089 15.7237C51.5876 16.0391 51.5448 16.4222 51.5803 16.8729Z" fill="#7A7173"/>
<path d="M52.6815 23.2429L52.5062 23.9223L52.5187 23.9252L52.6815 23.2429ZM50.1969 21.7963L49.6928 22.2843L49.6984 22.2899L50.1969 21.7963ZM48.4897 16.4556L47.7952 16.3558L47.7938 16.3666L48.4897 16.4556ZM49.1869 14.3679L48.5823 14.012L48.5778 14.0199L49.1869 14.3679ZM50.5508 12.8177L50.9743 13.377L50.9799 13.3727L50.5508 12.8177ZM55.1123 11.9412L55.3427 11.2786V11.2786L55.1123 11.9412ZM58.502 16.8057L57.8048 16.8837L57.8067 16.9001L57.8093 16.9163L58.502 16.8057ZM58.5645 17.4388L58.7403 18.1179L59.259 17.9836L59.2659 17.4479L58.5645 17.4388ZM52.2133 19.083L52.0375 18.4038L51.2049 18.6194L51.5833 19.3916L52.2133 19.083ZM53.0558 20.1431L52.6467 20.7129V20.7129L53.0558 20.1431ZM54.1648 20.5864L54.0676 21.2812L54.078 21.2826L54.0883 21.2838L54.1648 20.5864ZM56.5516 20.0091L56.1824 19.4126L56.1824 19.4126L56.5516 20.0091ZM57.5596 19.2004L58.0694 18.7185L57.5768 18.1973L57.0666 18.7014L57.5596 19.2004ZM59.2083 20.9446L59.7431 21.3985L60.1497 20.9194L59.7181 20.4627L59.2083 20.9446ZM57.562 22.3447L57.1935 21.7477L57.1904 21.7497L57.562 22.3447ZM51.5803 16.8729L50.881 16.928L50.9466 17.7616L51.7561 17.552L51.5803 16.8729ZM55.2693 15.9179L55.4451 16.597L56.1242 16.4212L55.9484 15.7421L55.2693 15.9179ZM54.5254 14.6902L54.0749 15.228L54.0812 15.2332L54.0876 15.2383L54.5254 14.6902ZM52.2549 14.9331L52.7057 15.4707L52.7159 15.4619L52.2549 14.9331ZM51.7089 15.7237L51.0562 15.4664L51.0541 15.472L51.7089 15.7237ZM55.6681 23.1799L55.4923 22.5008C54.5526 22.744 53.6738 22.7585 52.8444 22.5606L52.6815 23.2429L52.5187 23.9252C53.5923 24.1815 54.7045 24.154 55.8439 23.859L55.6681 23.1799ZM52.6815 23.2429L52.8567 22.5636C52.0426 22.3536 51.3246 21.9382 50.6953 21.3027L50.1969 21.7963L49.6984 22.2899C50.4977 23.0971 51.4362 23.6461 52.5063 23.9222L52.6815 23.2429ZM50.1969 21.7963L50.7009 21.3083C50.1004 20.6881 49.6456 19.8459 49.3609 18.746L48.6817 18.9218L48.0026 19.0976C48.3348 20.381 48.8901 21.4551 49.6929 22.2842L50.1969 21.7963ZM48.6817 18.9218L49.3609 18.746C49.1531 17.9437 49.1001 17.2122 49.1855 16.5446L48.4897 16.4556L47.7938 16.3666C47.6824 17.2379 47.7574 18.1506 48.0026 19.0976L48.6817 18.9218ZM48.4897 16.4556L49.184 16.5554C49.2837 15.8618 49.49 15.2514 49.796 14.7159L49.1869 14.3679L48.5778 14.0199C48.1763 14.7226 47.9177 15.504 47.7953 16.3558L48.4897 16.4556ZM49.1869 14.3679L49.7914 14.7238C50.1142 14.1755 50.5088 13.7294 50.9743 13.377L50.5508 12.8177L50.1273 12.2584C49.507 12.7281 48.9924 13.3155 48.5823 14.012L49.1869 14.3679ZM50.5508 12.8177L50.9799 13.3727C51.4605 13.0011 51.9744 12.7477 52.5248 12.6052L52.349 11.9261L52.1731 11.247C51.4305 11.4392 50.7456 11.7803 50.1217 12.2627L50.5508 12.8177ZM52.349 11.9261L52.5248 12.6052C53.4655 12.3617 54.2406 12.3808 54.8818 12.6038L55.1123 11.9412L55.3427 11.2786C54.3786 10.9433 53.3115 10.9523 52.1731 11.247L52.349 11.9261ZM55.1123 11.9412L54.8818 12.6038C55.5518 12.8368 56.1161 13.2423 56.5825 13.8383L57.1349 13.406L57.6874 12.9736C57.0623 12.1749 56.2781 11.6039 55.3427 11.2786L55.1123 11.9412ZM57.1349 13.406L56.5825 13.8383C57.0604 14.449 57.4229 15.2013 57.6584 16.111L58.3375 15.9352L59.0167 15.7594C58.7402 14.6915 58.301 13.7577 57.6874 12.9736L57.1349 13.406ZM58.3375 15.9352L57.6584 16.111C57.7299 16.3872 57.7781 16.6446 57.8048 16.8837L58.502 16.8057L59.1992 16.7277C59.1642 16.4147 59.1027 16.0917 59.0167 15.7594L58.3375 15.9352ZM58.502 16.8057L57.8093 16.9163C57.8509 17.1768 57.8642 17.341 57.863 17.4297L58.5645 17.4388L59.2659 17.4479C59.2686 17.2381 59.2403 16.9801 59.1947 16.6951L58.502 16.8057ZM58.5645 17.4388L58.3886 16.7597L52.0375 18.4038L52.2133 19.083L52.3891 19.7621L58.7403 18.1179L58.5645 17.4388ZM52.2133 19.083L51.5833 19.3916C51.85 19.9359 52.1981 20.3908 52.6467 20.7129L53.0558 20.1431L53.465 19.5733C53.249 19.4182 53.0353 19.1663 52.8432 18.7743L52.2133 19.083ZM53.0558 20.1431L52.6467 20.7129C53.0718 21.0181 53.5486 21.2086 54.0676 21.2812L54.1648 20.5864L54.262 19.8917C53.9671 19.8504 53.7045 19.7453 53.465 19.5733L53.0558 20.1431ZM54.1648 20.5864L54.0883 21.2838C54.589 21.3387 55.1051 21.2908 55.6308 21.1548L55.455 20.4756L55.2792 19.7965C54.8921 19.8967 54.5481 19.9228 54.2413 19.8891L54.1648 20.5864ZM55.455 20.4756L55.6308 21.1548C56.0906 21.0357 56.5215 20.8528 56.9208 20.6056L56.5516 20.0091L56.1824 19.4126C55.9055 19.584 55.6054 19.7121 55.2792 19.7965L55.455 20.4756ZM56.5516 20.0091L56.9208 20.6056C57.3109 20.3642 57.6878 20.0599 58.0527 19.6994L57.5596 19.2004L57.0666 18.7014C56.7636 19.0007 56.4685 19.2356 56.1824 19.4126L56.5516 20.0091ZM57.5596 19.2004L57.0498 19.6822L58.6984 21.4265L59.2083 20.9446L59.7181 20.4627L58.0694 18.7185L57.5596 19.2004ZM59.2083 20.9446L58.6734 20.4907C58.2681 20.9682 57.7767 21.3877 57.1935 21.7478L57.562 22.3447L57.9305 22.9416C58.6302 22.5096 59.2363 21.9958 59.7431 21.3985L59.2083 20.9446ZM57.562 22.3447L57.1904 21.7497C56.6143 22.1095 56.0485 22.3568 55.4923 22.5008L55.6681 23.1799L55.8439 23.859C56.5554 23.6748 57.2522 23.3653 57.9336 22.9397L57.562 22.3447ZM51.5803 16.8729L51.7561 17.552L55.4451 16.597L55.2693 15.9179L55.0935 15.2388L51.4045 16.1938L51.5803 16.8729ZM55.2693 15.9179L55.9484 15.7421C55.7804 15.093 55.4622 14.5407 54.9632 14.1421L54.5254 14.6902L54.0876 15.2383C54.3048 15.4119 54.4826 15.678 54.5902 16.0937L55.2693 15.9179ZM54.5254 14.6902L54.9758 14.1524C54.3907 13.6624 53.6409 13.6264 52.8997 13.8183L53.0755 14.4974L53.2513 15.1766C53.7524 15.0468 53.9692 15.1394 54.0749 15.228L54.5254 14.6902ZM53.0755 14.4974L52.8997 13.8183C52.4873 13.9251 52.1167 14.1229 51.794 14.4043L52.2549 14.9331L52.7159 15.4619C52.8787 15.3199 53.0552 15.2273 53.2513 15.1766L53.0755 14.4974ZM52.2549 14.9331L51.8042 14.3955C51.4671 14.6781 51.2225 15.0447 51.0562 15.4664L51.7089 15.7237L52.3615 15.9809C52.4566 15.7398 52.576 15.5793 52.7056 15.4706L52.2549 14.9331ZM51.7089 15.7237L51.0541 15.472C50.8848 15.9123 50.8399 16.4066 50.881 16.928L51.5803 16.8729L52.2796 16.8178C52.2497 16.4379 52.2904 16.166 52.3637 15.9754L51.7089 15.7237Z" fill="#7A7173" mask="url(#path-11-outside-5_4_462)"/>
<path d="M55.9766 40.3511C58.129 40.3511 59.7337 40.9836 61.0059 42.2358C62.2761 43.4863 62.9218 45.1309 62.9219 47.2046C62.9219 49.2619 62.0063 51.8047 60.1133 54.7974C58.2176 57.7941 55.227 61.7225 51.1475 66.6011L50.666 67.1772H62.5049L62.083 70.187H44.8223C50.0811 63.743 53.8131 58.8858 56.0137 55.6343L56.4453 54.9878C57.5384 53.3199 58.365 51.866 58.9189 50.6294C59.4699 49.3994 59.7645 48.3552 59.7646 47.5142C59.7646 46.2684 59.3631 45.2461 58.5244 44.5015C57.6922 43.7626 56.5687 43.4097 55.1836 43.4097C53.2484 43.4097 51.1993 44.1653 49.0459 45.6284L49.4834 42.2866C51.7042 40.9882 53.8667 40.3511 55.9766 40.3511Z" fill="#7A7173" stroke="#7A7173" stroke-width="0.701511"/>
</svg>
